NotoSerifBalinese-Regular.ufo
<glyph name="uni1B00" format="2">
  <unicode hex="1B00"/>
  <note>
uni1B00
</note>
  <outline>
    <contour>
      <point x="-270" y="806" type="curve" smooth="yes"/>
      <point x="-301" y="806"/>
      <point x="-327" y="780"/>
      <point x="-327" y="749" type="curve" smooth="yes"/>
      <point x="-327" y="719"/>
      <point x="-303" y="692"/>
      <point x="-270" y="692" type="curve" smooth="yes"/>
      <point x="-238" y="692"/>
      <point x="-214" y="718"/>
      <point x="-214" y="749" type="curve" smooth="yes"/>
      <point x="-214" y="781"/>
      <point x="-240" y="806"/>
    </contour>
    <contour>
      <point x="-146" y="620" type="line"/>
      <point x="-104" y="673"/>
      <point x="-83" y="727"/>
      <point x="-83" y="782" type="curve" smooth="yes"/>
      <point x="-83" y="903"/>
      <point x="-152" y="972"/>
      <point x="-273" y="972" type="curve" smooth="yes"/>
      <point x="-398" y="972"/>
      <point x="-467" y="905"/>
      <point x="-467" y="782" type="curve" smooth="yes"/>
      <point x="-467" y="726"/>
      <point x="-446" y="672"/>
      <point x="-404" y="620" type="curve"/>
      <point x="-379" y="645" type="line"/>
      <point x="-422" y="706"/>
      <point x="-428" y="729"/>
      <point x="-428" y="778" type="curve" smooth="yes"/>
      <point x="-428" y="854"/>
      <point x="-370" y="898"/>
      <point x="-270" y="898" type="curve" smooth="yes"/>
      <point x="-177" y="898"/>
      <point x="-122" y="856"/>
      <point x="-122" y="778" type="curve" smooth="yes"/>
      <point x="-122" y="729"/>
      <point x="-128" y="707"/>
      <point x="-171" y="645" type="curve"/>
    </contour>
  </outline>
</glyph>
<glyph name="uni1B01" format="2">
  <unicode hex="1B01"/>
  <note>
uni1B01
</note>
  <outline>
    <contour>
      <point x="-166" y="947" type="line"/>
      <point x="-125" y="889"/>
      <point x="-117" y="864"/>
      <point x="-117" y="814" type="curve" smooth="yes"/>
      <point x="-117" y="793"/>
      <point x="-121" y="774"/>
      <point x="-129" y="758" type="curve"/>
      <point x="-139" y="831"/>
      <point x="-183" y="883"/>
      <point x="-246" y="893" type="curve"/>
      <point x="-246" y="996" type="line"/>
      <point x="-285" y="996" type="line"/>
      <point x="-285" y="894" type="line"/>
      <point x="-352" y="884"/>
      <point x="-399" y="828"/>
      <point x="-405" y="750" type="curve"/>
      <point x="-417" y="768"/>
      <point x="-423" y="790"/>
      <point x="-423" y="814" type="curve" smooth="yes"/>
      <point x="-423" y="865"/>
      <point x="-416" y="887"/>
      <point x="-375" y="947" type="curve"/>
      <point x="-399" y="972" type="line"/>
      <point x="-441" y="919"/>
      <point x="-462" y="865"/>
      <point x="-462" y="810" type="curve" smooth="yes"/>
      <point x="-462" y="687"/>
      <point x="-393" y="620"/>
      <point x="-269" y="620" type="curve" smooth="yes"/>
      <point x="-147" y="620"/>
      <point x="-78" y="688"/>
      <point x="-78" y="810" type="curve" smooth="yes"/>
      <point x="-78" y="866"/>
      <point x="-99" y="919"/>
      <point x="-142" y="972" type="curve"/>
    </contour>
    <contour>
      <point x="-368" y="716" type="curve"/>
      <point x="-369" y="721"/>
      <point x="-370" y="728"/>
      <point x="-370" y="736" type="curve" smooth="yes"/>
      <point x="-370" y="801"/>
      <point x="-327" y="854"/>
      <point x="-268" y="854" type="curve" smooth="yes"/>
      <point x="-208" y="854"/>
      <point x="-165" y="801"/>
      <point x="-165" y="736" type="curve" smooth="yes"/>
      <point x="-165" y="730"/>
      <point x="-165" y="723"/>
      <point x="-166" y="717" type="curve"/>
      <point x="-190" y="701"/>
      <point x="-224" y="693"/>
      <point x="-265" y="693" type="curve" smooth="yes"/>
      <point x="-307" y="693"/>
      <point x="-341" y="701"/>
    </contour>
  </outline>
</glyph>
<glyph name="uni1B02" format="2">
  <unicode hex="1B02"/>
  <note>
uni1B02
</note>
  <outline>
    <contour>
      <point x="-38" y="639" type="line"/>
      <point x="-123" y="849" type="line" smooth="yes"/>
      <point x="-146" y="907"/>
      <point x="-167" y="949"/>
      <point x="-187" y="974" type="curve" smooth="yes"/>
      <point x="-207" y="999"/>
      <point x="-226" y="1011"/>
      <point x="-245" y="1011" type="curve" smooth="yes"/>
      <point x="-288" y="1011"/>
      <point x="-313" y="944"/>
      <point x="-313" y="875" type="curve"/>
      <point x="-281" y="872" type="line"/>
      <point x="-280" y="905"/>
      <point x="-265" y="927"/>
      <point x="-238" y="927" type="curve" smooth="yes"/>
      <point x="-223" y="927"/>
      <point x="-208" y="918"/>
      <point x="-194" y="900" type="curve" smooth="yes"/>
      <point x="-180" y="881"/>
      <point x="-165" y="850"/>
      <point x="-147" y="806" type="curve" smooth="yes"/>
      <point x="-73" y="620" type="line"/>
    </contour>
  </outline>
</glyph>
<glyph name="uni1B03" format="2">
  <unicode hex="1B03"/>
  <note>
uni1B03
</note>
  <outline>
    <contour>
      <point x="-3" y="650" type="line"/>
      <point x="-183" y="673"/>
      <point x="-321" y="794"/>
      <point x="-389" y="989" type="curve"/>
      <point x="-484" y="1011" type="line"/>
      <point x="-420" y="797"/>
      <point x="-227" y="635"/>
      <point x="-15" y="621" type="curve"/>
    </contour>
  </outline>
</glyph>
<glyph name="uni1B04" format="2">
  <advance width="412"/>
  <unicode hex="1B04"/>
  <note>
uni1B04
</note>
  <outline>
    <contour>
      <point x="94" y="180" type="line"/>
      <point x="114" y="180" type="line" smooth="yes"/>
      <point x="237" y="180"/>
      <point x="314" y="132"/>
      <point x="314" y="46" type="curve" smooth="yes"/>
      <point x="314" y="-21"/>
      <point x="292" y="-91"/>
      <point x="249" y="-164" type="curve" smooth="yes"/>
      <point x="206" y="-236"/>
      <point x="184" y="-313"/>
      <point x="184" y="-392" type="curve" smooth="yes"/>
      <point x="184" y="-433"/>
      <point x="204" y="-519"/>
      <point x="224" y="-546" type="curve"/>
      <point x="249" y="-527" type="line"/>
      <point x="237" y="-493"/>
      <point x="232" y="-460"/>
      <point x="232" y="-421" type="curve" smooth="yes"/>
      <point x="232" y="-372"/>
      <point x="254" y="-307"/>
      <point x="298" y="-226" type="curve" smooth="yes"/>
      <point x="342" y="-145"/>
      <point x="363" y="-63"/>
      <point x="363" y="14" type="curve" smooth="yes"/>
      <point x="363" y="103"/>
      <point x="321" y="165"/>
      <point x="237" y="200" type="curve"/>
      <point x="302" y="232"/>
      <point x="341" y="289"/>
      <point x="341" y="349" type="curve" smooth="yes"/>
      <point x="341" y="470"/>
      <point x="280" y="546"/>
      <point x="187" y="546" type="curve" smooth="yes"/>
      <point x="92" y="546"/>
      <point x="39" y="463"/>
      <point x="39" y="335" type="curve"/>
      <point x="57" y="332" type="line"/>
      <point x="62" y="332"/>
      <point x="69" y="333"/>
      <point x="78" y="336" type="curve"/>
      <point x="80" y="417"/>
      <point x="121" y="463"/>
      <point x="188" y="463" type="curve" smooth="yes"/>
      <point x="251" y="463"/>
      <point x="292" y="422"/>
      <point x="292" y="352" type="curve" smooth="yes"/>
      <point x="292" y="264"/>
      <point x="236" y="219"/>
      <point x="125" y="219" type="curve" smooth="yes"/>
      <point x="99" y="219" type="line"/>
    </contour>
  </outline>
</glyph>
<glyph name="uni1B05" format="2">
  <advance width="1103"/>
  <unicode hex="1B05"/>
  <note>
uni1B05
</note>
  <outline>
    <contour>
      <point x="232" y="342" type="line"/>
      <point x="251" y="373"/>
      <point x="279" y="386"/>
      <point x="325" y="386" type="curve" smooth="yes"/>
      <point x="359" y="386"/>
      <point x="387" y="367"/>
      <point x="387" y="337" type="curve" smooth="yes"/>
      <point x="387" y="308"/>
      <point x="350" y="276"/>
      <point x="303" y="271" type="curve"/>
      <point x="265" y="271" type="line"/>
      <point x="260" y="232" type="line"/>
      <point x="305" y="232" type="line" smooth="yes"/>
      <point x="374" y="232"/>
      <point x="410" y="205"/>
      <point x="410" y="162" type="curve" smooth="yes"/>
      <point x="410" y="104"/>
      <point x="374" y="73"/>
      <point x="283" y="73" type="curve" smooth="yes"/>
      <point x="164" y="73"/>
      <point x="98" y="151"/>
      <point x="98" y="295" type="curve" smooth="yes"/>
      <point x="98" y="442"/>
      <point x="203" y="542"/>
      <point x="337" y="542" type="curve" smooth="yes"/>
      <point x="438" y="542"/>
      <point x="514" y="512"/>
      <point x="597" y="390" type="curve"/>
      <point x="631" y="412" type="line"/>
      <point x="580" y="521"/>
      <point x="468" y="591"/>
      <point x="336" y="591" type="curve" smooth="yes"/>
      <point x="200" y="591"/>
      <point x="49" y="490"/>
      <point x="49" y="292" type="curve" smooth="yes"/>
      <point x="49" y="122"/>
      <point x="150" y="-10"/>
      <point x="283" y="-10" type="curve" smooth="yes"/>
      <point x="389" y="-10"/>
      <point x="459" y="58"/>
      <point x="459" y="157" type="curve" smooth="yes"/>
      <point x="459" y="206"/>
      <point x="430" y="246"/>
      <point x="377" y="262" type="curve"/>
      <point x="416" y="287"/>
      <point x="436" y="324"/>
      <point x="436" y="373" type="curve" smooth="yes"/>
      <point x="436" y="428"/>
      <point x="391" y="469"/>
      <point x="334" y="469" type="curve" smooth="yes"/>
      <point x="283" y="469"/>
      <point x="237" y="423"/>
      <point x="215" y="354" type="curve"/>
    </contour>
    <contour>
      <point x="1088" y="207" type="line"/>
      <point x="1010" y="240" type="line"/>
      <point x="1010" y="310" type="line" smooth="yes"/>
      <point x="1010" y="375"/>
      <point x="1006" y="422"/>
      <point x="997" y="452" type="curve" smooth="yes"/>
      <point x="979" y="511"/>
      <point x="938" y="537"/>
      <point x="869" y="537" type="curve" smooth="yes"/>
      <point x="846" y="537" type="line"/>
      <point x="846" y="305" type="line"/>
      <point x="810" y="316"/>
      <point x="781" y="322"/>
      <point x="761" y="322" type="curve" smooth="yes"/>
      <point x="725" y="322"/>
      <point x="699" y="301"/>
      <point x="699" y="269" type="curve" smooth="yes"/>
      <point x="699" y="236"/>
      <point x="724" y="193"/>
      <point x="761" y="162" type="curve"/>
      <point x="786" y="182" type="line"/>
      <point x="772" y="196"/>
      <point x="765" y="210"/>
      <point x="765" y="224" type="curve" smooth="yes"/>
      <point x="765" y="249"/>
      <point x="785" y="264"/>
      <point x="812" y="264" type="curve" smooth="yes"/>
      <point x="820" y="264"/>
      <point x="832" y="263"/>
      <point x="846" y="259" type="curve"/>
      <point x="846" y="242" type="line" smooth="yes"/>
      <point x="846" y="129"/>
      <point x="798" y="73"/>
      <point x="710" y="73" type="curve" smooth="yes"/>
      <point x="616" y="73"/>
      <point x="562" y="115"/>
      <point x="552" y="190" type="curve"/>
      <point x="520" y="181" type="line"/>
      <point x="533" y="58"/>
      <point x="599" y="-10"/>
      <point x="710" y="-10" type="curve" smooth="yes"/>
      <point x="824" y="-10"/>
      <point x="885" y="71"/>
      <point x="885" y="237" type="curve" smooth="yes"/>
      <point x="885" y="249" type="line"/>
      <point x="904" y="242"/>
      <point x="933" y="231"/>
      <point x="971" y="214" type="curve"/>
      <point x="971" y="0" type="line"/>
      <point x="1010" y="0" type="line"/>
      <point x="1010" y="197" type="line"/>
      <point x="1076" y="169" type="line"/>
    </contour>
    <contour>
      <point x="885" y="454" type="line"/>
      <point x="898" y="454" type="line" smooth="yes"/>
      <point x="946" y="454"/>
      <point x="971" y="405"/>
      <point x="971" y="306" type="curve" smooth="yes"/>
      <point x="971" y="257" type="line"/>
      <point x="885" y="292" type="line"/>
    </contour>
  </outline>
</glyph>
<glyph name="uni1B06" format="2">
  <advance width="1402"/>
  <unicode hex="1B06"/>
  <note>
uni1B06
</note>
  <outline>
    <contour>
      <point x="1008" y="98" type="line"/>
      <point x="885" y="227" type="line"/>
      <point x="885" y="264" type="line" smooth="yes"/>
      <point x="885" y="384"/>
      <point x="965" y="462"/>
      <point x="1095" y="462" type="curve" smooth="yes"/>
      <point x="1222" y="462"/>
      <point x="1304" y="388"/>
      <point x="1304" y="270" type="curve" smooth="yes"/>
      <point x="1304" y="130"/>
      <point x="1232" y="39"/>
      <point x="1144" y="39" type="curve" smooth="yes"/>
      <point x="1122" y="39"/>
      <point x="1090" y="42"/>
      <point x="1075" y="50" type="curve"/>
      <point x="1050" y="11" type="line"/>
      <point x="1073" y="-3"/>
      <point x="1103" y="-10"/>
      <point x="1139" y="-10" type="curve" smooth="yes"/>
      <point x="1256" y="-10"/>
      <point x="1353" y="94"/>
      <point x="1353" y="274" type="curve" smooth="yes"/>
      <point x="1353" y="431"/>
      <point x="1246" y="545"/>
      <point x="1093" y="545" type="curve" smooth="yes"/>
      <point x="952" y="545"/>
      <point x="846" y="429"/>
      <point x="846" y="265" type="curve"/>
      <point x="803" y="305"/>
      <point x="769" y="325"/>
      <point x="743" y="325" type="curve" smooth="yes"/>
      <point x="710" y="325"/>
      <point x="688" y="297"/>
      <point x="688" y="255" type="curve" smooth="yes"/>
      <point x="688" y="227"/>
      <point x="696" y="199"/>
      <point x="710" y="170" type="curve"/>
      <point x="741" y="180" type="line"/>
      <point x="737" y="190"/>
      <point x="735" y="199"/>
      <point x="735" y="208" type="curve" smooth="yes"/>
      <point x="735" y="231"/>
      <point x="752" y="250"/>
      <point x="775" y="250" type="curve" smooth="yes"/>
      <point x="793" y="250"/>
      <point x="816" y="236"/>
      <point x="845" y="210" type="curve"/>
      <point x="836" y="119"/>
      <point x="792" y="73"/>
      <point x="710" y="73" type="curve" smooth="yes"/>
      <point x="616" y="73"/>
      <point x="562" y="115"/>
      <point x="552" y="190" type="curve"/>
      <point x="520" y="181" type="line"/>
      <point x="533" y="58"/>
      <point x="599" y="-10"/>
      <point x="710" y="-10" type="curve" smooth="yes"/>
      <point x="810" y="-10"/>
      <point x="868" y="51"/>
      <point x="882" y="174" type="curve"/>
      <point x="982" y="67" type="line"/>
    </contour>
    <contour>
      <point x="232" y="342" type="line"/>
      <point x="251" y="373"/>
      <point x="279" y="386"/>
      <point x="325" y="386" type="curve" smooth="yes"/>
      <point x="359" y="386"/>
      <point x="387" y="367"/>
      <point x="387" y="337" type="curve" smooth="yes"/>
      <point x="387" y="307"/>
      <point x="349" y="271"/>
      <point x="303" y="271" type="curve" smooth="yes"/>
      <point x="265" y="271" type="line"/>
      <point x="260" y="232" type="line"/>
      <point x="305" y="232" type="line" smooth="yes"/>
      <point x="374" y="232"/>
      <point x="410" y="205"/>
      <point x="410" y="162" type="curve" smooth="yes"/>
      <point x="410" y="104"/>
      <point x="374" y="73"/>
      <point x="283" y="73" type="curve" smooth="yes"/>
      <point x="164" y="73"/>
      <point x="98" y="151"/>
      <point x="98" y="295" type="curve" smooth="yes"/>
      <point x="98" y="442"/>
      <point x="203" y="542"/>
      <point x="337" y="542" type="curve" smooth="yes"/>
      <point x="438" y="542"/>
      <point x="514" y="512"/>
      <point x="597" y="390" type="curve"/>
      <point x="631" y="412" type="line"/>
      <point x="580" y="521"/>
      <point x="468" y="591"/>
      <point x="336" y="591" type="curve" smooth="yes"/>
      <point x="199" y="591"/>
      <point x="49" y="489"/>
      <point x="49" y="292" type="curve" smooth="yes"/>
      <point x="49" y="122"/>
      <point x="150" y="-10"/>
      <point x="283" y="-10" type="curve" smooth="yes"/>
      <point x="389" y="-10"/>
      <point x="459" y="58"/>
      <point x="459" y="157" type="curve" smooth="yes"/>
      <point x="459" y="206"/>
      <point x="430" y="246"/>
      <point x="377" y="262" type="curve"/>
      <point x="416" y="287"/>
      <point x="436" y="324"/>
      <point x="436" y="373" type="curve" smooth="yes"/>
      <point x="436" y="428"/>
      <point x="391" y="469"/>
      <point x="334" y="469" type="curve" smooth="yes"/>
      <point x="283" y="469"/>
      <point x="237" y="423"/>
      <point x="215" y="354" type="curve"/>
    </contour>
  </outline>
</glyph>
<glyph name="uni1B07" format="2">
  <advance width="933"/>
  <unicode hex="1B07"/>
  <note>
uni1B07
</note>
  <outline>
    <contour>
      <point x="338" y="0" type="curve" smooth="yes"/>
      <point x="361" y="0" type="line"/>
      <point x="361" y="301" type="line" smooth="yes"/>
      <point x="361" y="430"/>
      <point x="405" y="463"/>
      <point x="474" y="463" type="curve" smooth="yes"/>
      <point x="532" y="463"/>
      <point x="579" y="411"/>
      <point x="579" y="358" type="curve"/>
      <point x="613" y="358" type="line"/>
      <point x="619" y="428"/>
      <point x="668" y="463"/>
      <point x="718" y="463" type="curve" smooth="yes"/>
      <point x="787" y="463"/>
      <point x="830" y="430"/>
      <point x="830" y="301" type="curve" smooth="yes"/>
      <point x="830" y="0" type="line"/>
      <point x="869" y="0" type="line"/>
      <point x="869" y="301" type="line" smooth="yes"/>
      <point x="869" y="474"/>
      <point x="831" y="546"/>
      <point x="718" y="546" type="curve" smooth="yes"/>
      <point x="655" y="546"/>
      <point x="617" y="510"/>
      <point x="596" y="445" type="curve"/>
      <point x="575" y="510"/>
      <point x="536" y="546"/>
      <point x="474" y="546" type="curve" smooth="yes"/>
      <point x="361" y="546"/>
      <point x="322" y="474"/>
      <point x="322" y="301" type="curve" smooth="yes"/>
      <point x="322" y="83" type="line"/>
      <point x="310" y="83" type="line" smooth="yes"/>
      <point x="268" y="83"/>
      <point x="238" y="121"/>
      <point x="238" y="204" type="curve" smooth="yes"/>
      <point x="238" y="319" type="line" smooth="yes"/>
      <point x="238" y="422"/>
      <point x="235" y="546"/>
      <point x="140" y="546" type="curve" smooth="yes"/>
      <point x="42" y="546"/>
      <point x="39" y="405"/>
      <point x="39" y="335" type="curve"/>
      <point x="45" y="333"/>
      <point x="48" y="332"/>
      <point x="57" y="332" type="curve" smooth="yes"/>
      <point x="67" y="332"/>
      <point x="71" y="334"/>
      <point x="78" y="336" type="curve"/>
      <point x="80" y="410"/>
      <point x="80" y="463"/>
      <point x="141" y="463" type="curve" smooth="yes"/>
      <point x="187" y="463"/>
      <point x="199" y="424"/>
      <point x="199" y="322" type="curve" smooth="yes"/>
      <point x="199" y="227" type="line" smooth="yes"/>
      <point x="199" y="107"/>
      <point x="203" y="0"/>
    </contour>
    <contour>
      <point x="599" y="-352" type="curve" smooth="yes"/>
      <point x="682" y="-352"/>
      <point x="728" y="-296"/>
      <point x="728" y="-241" type="curve" smooth="yes"/>
      <point x="728" y="-124"/>
      <point x="518" y="-150"/>
      <point x="518" y="-98" type="curve" smooth="yes"/>
      <point x="518" y="-72"/>
      <point x="561" y="-63"/>
      <point x="587" y="-63" type="curve" smooth="yes"/>
      <point x="620" y="-63"/>
      <point x="644" y="-69"/>
      <point x="664" y="-82" type="curve"/>
      <point x="683" y="-47" type="line"/>
      <point x="660" y="-35"/>
      <point x="636" y="-24"/>
      <point x="590" y="-24" type="curve" smooth="yes"/>
      <point x="531" y="-24"/>
      <point x="477" y="-54"/>
      <point x="477" y="-104" type="curve" smooth="yes"/>
      <point x="477" y="-193"/>
      <point x="686" y="-161"/>
      <point x="686" y="-234" type="curve" smooth="yes"/>
      <point x="686" y="-271"/>
      <point x="614" y="-279"/>
      <point x="589" y="-279" type="curve" smooth="yes"/>
      <point x="541" y="-279"/>
      <point x="462" y="-257"/>
      <point x="442" y="-227" type="curve"/>
      <point x="424" y="-240" type="line"/>
      <point x="444" y="-300"/>
      <point x="529" y="-352"/>
    </contour>
  </outline>
</glyph>
<glyph name="uni1B09" format="2">
  <advance width="749"/>
  <unicode hex="1B09"/>
  <note>
uni1B09
</note>
  <outline>
    <contour>
      <point x="686" y="-546" type="line"/>
      <point x="686" y="-402" type="line" smooth="yes"/>
      <point x="686" y="-235"/>
      <point x="603" y="-155"/>
      <point x="456" y="-155" type="curve" smooth="yes"/>
      <point x="306" y="-155"/>
      <point x="227" y="-242"/>
      <point x="227" y="-401" type="curve" smooth="yes"/>
      <point x="227" y="-463" type="line"/>
      <point x="214" y="-463" type="line" smooth="yes"/>
      <point x="165" y="-463"/>
      <point x="112" y="-407"/>
      <point x="112" y="-333" type="curve" smooth="yes"/>
      <point x="112" y="-258"/>
      <point x="161" y="-184"/>
      <point x="285" y="-86" type="curve" smooth="yes"/>
      <point x="347" y="-37"/>
      <point x="400" y="10"/>
      <point x="445" y="56" type="curve" smooth="yes"/>
      <point x="534" y="146"/>
      <point x="577" y="243"/>
      <point x="577" y="349" type="curve" smooth="yes"/>
      <point x="577" y="470"/>
      <point x="517" y="546"/>
      <point x="423" y="546" type="curve" smooth="yes"/>
      <point x="328" y="546"/>
      <point x="275" y="463"/>
      <point x="275" y="335" type="curve"/>
      <point x="281" y="333"/>
      <point x="288" y="332"/>
      <point x="293" y="332" type="curve" smooth="yes"/>
      <point x="298" y="332"/>
      <point x="305" y="333"/>
      <point x="314" y="336" type="curve"/>
      <point x="316" y="417"/>
      <point x="357" y="463"/>
      <point x="425" y="463" type="curve" smooth="yes"/>
      <point x="487" y="463"/>
      <point x="528" y="422"/>
      <point x="528" y="352" type="curve" smooth="yes"/>
      <point x="528" y="308"/>
      <point x="513" y="263"/>
      <point x="483" y="218" type="curve" smooth="yes"/>
      <point x="453" y="172"/>
      <point x="393" y="112"/>
      <point x="303" y="36" type="curve" smooth="yes"/>
      <point x="123" y="-117"/>
      <point x="63" y="-215"/>
      <point x="63" y="-330" type="curve" smooth="yes"/>
      <point x="63" y="-466"/>
      <point x="131" y="-546"/>
      <point x="243" y="-546" type="curve" smooth="yes"/>
      <point x="266" y="-546" type="line"/>
      <point x="266" y="-401" type="line" smooth="yes"/>
      <point x="266" y="-291"/>
      <point x="322" y="-238"/>
      <point x="456" y="-238" type="curve" smooth="yes"/>
      <point x="589" y="-238"/>
      <point x="646" y="-288"/>
      <point x="646" y="-403" type="curve" smooth="yes"/>
      <point x="646" y="-546" type="line"/>
    </contour>
  </outline>
</glyph>
<glyph name="uni1B0B" format="2">
  <advance width="807"/>
  <unicode hex="1B0B"/>
  <note>
uni1B0B
</note>
  <outline>
    <contour>
      <point x="410" y="-10" type="curve" smooth="yes"/>
      <point x="537" y="-10"/>
      <point x="619" y="62"/>
      <point x="619" y="235" type="curve" smooth="yes"/>
      <point x="619" y="454" type="line"/>
      <point x="632" y="454" type="line" smooth="yes"/>
      <point x="678" y="454"/>
      <point x="705" y="408"/>
      <point x="705" y="306" type="curve" smooth="yes"/>
      <point x="705" y="0" type="line"/>
      <point x="744" y="0" type="line"/>
      <point x="744" y="310" type="line" smooth="yes"/>
      <point x="744" y="430"/>
      <point x="738" y="537"/>
      <point x="603" y="537" type="curve" smooth="yes"/>
      <point x="580" y="537" type="line"/>
      <point x="580" y="235" type="line" smooth="yes"/>
      <point x="580" y="106"/>
      <point x="510" y="73"/>
      <point x="409" y="73" type="curve" smooth="yes"/>
      <point x="281" y="73"/>
      <point x="238" y="125"/>
      <point x="238" y="237" type="curve" smooth="yes"/>
      <point x="238" y="319" type="line" smooth="yes"/>
      <point x="238" y="422"/>
      <point x="235" y="546"/>
      <point x="140" y="546" type="curve" smooth="yes"/>
      <point x="42" y="546"/>
      <point x="39" y="405"/>
      <point x="39" y="335" type="curve"/>
      <point x="45" y="333"/>
      <point x="48" y="332"/>
      <point x="57" y="332" type="curve" smooth="yes"/>
      <point x="67" y="332"/>
      <point x="71" y="334"/>
      <point x="78" y="336" type="curve"/>
      <point x="80" y="410"/>
      <point x="80" y="463"/>
      <point x="141" y="463" type="curve" smooth="yes"/>
      <point x="187" y="463"/>
      <point x="199" y="424"/>
      <point x="199" y="322" type="curve" smooth="yes"/>
      <point x="199" y="227" type="line" smooth="yes"/>
      <point x="199" y="66"/>
      <point x="275" y="-10"/>
    </contour>
    <contour>
      <point x="418" y="-376" type="curve" smooth="yes"/>
      <point x="501" y="-376"/>
      <point x="547" y="-321"/>
      <point x="547" y="-266" type="curve" smooth="yes"/>
      <point x="547" y="-148"/>
      <point x="337" y="-175"/>
      <point x="337" y="-122" type="curve" smooth="yes"/>
      <point x="337" y="-96"/>
      <point x="380" y="-88"/>
      <point x="407" y="-88" type="curve" smooth="yes"/>
      <point x="439" y="-88"/>
      <point x="463" y="-93"/>
      <point x="483" y="-106" type="curve"/>
      <point x="502" y="-71" type="line"/>
      <point x="479" y="-59"/>
      <point x="455" y="-49"/>
      <point x="409" y="-49" type="curve" smooth="yes"/>
      <point x="351" y="-49"/>
      <point x="296" y="-78"/>
      <point x="296" y="-128" type="curve" smooth="yes"/>
      <point x="296" y="-218"/>
      <point x="505" y="-186"/>
      <point x="505" y="-259" type="curve" smooth="yes"/>
      <point x="505" y="-295"/>
      <point x="433" y="-303"/>
      <point x="408" y="-303" type="curve" smooth="yes"/>
      <point x="360" y="-303"/>
      <point x="281" y="-282"/>
      <point x="262" y="-251" type="curve"/>
      <point x="243" y="-264" type="line"/>
      <point x="264" y="-325"/>
      <point x="349" y="-376"/>
    </contour>
  </outline>
</glyph>
<glyph name="uni1B0D" format="2">
  <advance width="947"/>
  <unicode hex="1B0D"/>
  <note>
uni1B0D
</note>
  <outline>
    <contour>
      <point x="1021" y="-211" type="curve"/>
      <point x="1004" y="-176" type="line"/>
      <point x="976" y="-192"/>
      <point x="937" y="-199"/>
      <point x="878" y="-199" type="curve" smooth="yes"/>
      <point x="867" y="-199" type="line"/>
      <point x="886" y="-97"/>
      <point x="898" y="14"/>
      <point x="898" y="131" type="curve" smooth="yes"/>
      <point x="898" y="354"/>
      <point x="853" y="546"/>
      <point x="718" y="546" type="curve" smooth="yes"/>
      <point x="655" y="546"/>
      <point x="617" y="510"/>
      <point x="596" y="445" type="curve"/>
      <point x="575" y="510"/>
      <point x="536" y="546"/>
      <point x="474" y="546" type="curve" smooth="yes"/>
      <point x="361" y="546"/>
      <point x="322" y="474"/>
      <point x="322" y="301" type="curve" smooth="yes"/>
      <point x="322" y="83" type="line"/>
      <point x="310" y="83" type="line" smooth="yes"/>
      <point x="268" y="83"/>
      <point x="238" y="121"/>
      <point x="238" y="204" type="curve" smooth="yes"/>
      <point x="238" y="319" type="line" smooth="yes"/>
      <point x="238" y="422"/>
      <point x="235" y="546"/>
      <point x="140" y="546" type="curve" smooth="yes"/>
      <point x="42" y="546"/>
      <point x="39" y="405"/>
      <point x="39" y="335" type="curve"/>
      <point x="45" y="333"/>
      <point x="48" y="332"/>
      <point x="57" y="332" type="curve" smooth="yes"/>
      <point x="67" y="332"/>
      <point x="71" y="334"/>
      <point x="78" y="336" type="curve"/>
      <point x="80" y="410"/>
      <point x="80" y="463"/>
      <point x="141" y="463" type="curve" smooth="yes"/>
      <point x="187" y="463"/>
      <point x="199" y="424"/>
      <point x="199" y="322" type="curve" smooth="yes"/>
      <point x="199" y="227" type="line" smooth="yes"/>
      <point x="199" y="107"/>
      <point x="203" y="0"/>
      <point x="338" y="0" type="curve" smooth="yes"/>
      <point x="361" y="0" type="line"/>
      <point x="361" y="301" type="line" smooth="yes"/>
      <point x="361" y="430"/>
      <point x="405" y="463"/>
      <point x="474" y="463" type="curve" smooth="yes"/>
      <point x="532" y="463"/>
      <point x="579" y="411"/>
      <point x="579" y="358" type="curve"/>
      <point x="613" y="358" type="line"/>
      <point x="619" y="428"/>
      <point x="668" y="463"/>
      <point x="718" y="463" type="curve" smooth="yes"/>
      <point x="817" y="463"/>
      <point x="850" y="321"/>
      <point x="850" y="126" type="curve" smooth="yes"/>
      <point x="850" y="17"/>
      <point x="838" y="-93"/>
      <point x="819" y="-194" type="curve"/>
      <point x="753" y="-184"/>
      <point x="690" y="-159"/>
      <point x="626" y="-134" type="curve" smooth="yes"/>
      <point x="543" y="-101"/>
      <point x="458" y="-68"/>
      <point x="363" y="-68" type="curve" smooth="yes"/>
      <point x="249" y="-68"/>
      <point x="186" y="-139"/>
      <point x="186" y="-209" type="curve" smooth="yes"/>
      <point x="186" y="-313"/>
      <point x="307" y="-359"/>
      <point x="436" y="-392" type="curve" smooth="yes"/>
      <point x="579" y="-429"/>
      <point x="731" y="-451"/>
      <point x="737" y="-520" type="curve"/>
      <point x="732" y="-537" type="line"/>
      <point x="771" y="-547" type="line"/>
      <point x="801" y="-466"/>
      <point x="834" y="-364"/>
      <point x="858" y="-247" type="curve"/>
      <point x="866" y="-248"/>
      <point x="875" y="-248"/>
      <point x="883" y="-248" type="curve" smooth="yes"/>
      <point x="926" y="-248"/>
      <point x="981" y="-237"/>
    </contour>
    <contour>
      <point x="757" y="-457" type="curve"/>
      <point x="715" y="-407"/>
      <point x="573" y="-382"/>
      <point x="448" y="-349" type="curve" smooth="yes"/>
      <point x="334" y="-319"/>
      <point x="234" y="-282"/>
      <point x="234" y="-211" type="curve" smooth="yes"/>
      <point x="234" y="-168"/>
      <point x="263" y="-142"/>
      <point x="333" y="-142" type="curve" smooth="yes"/>
      <point x="418" y="-142"/>
      <point x="512" y="-172"/>
      <point x="612" y="-201" type="curve" smooth="yes"/>
      <point x="675" y="-219"/>
      <point x="742" y="-236"/>
      <point x="810" y="-244" type="curve"/>
      <point x="794" y="-321"/>
      <point x="776" y="-395"/>
    </contour>
  </outline>
</glyph>
<glyph name="uni1B0E" format="2">
  <advance width="1149"/>
  <unicode hex="1B0E"/>
  <note>
uni1B0E
</note>
  <outline>
    <contour>
      <point x="1128" y="-293" type="curve"/>
      <point x="1162" y="-271"/>
      <point x="1181" y="-240"/>
      <point x="1181" y="-198" type="curve" smooth="yes"/>
      <point x="1181" y="-151"/>
      <point x="1150" y="-112"/>
      <point x="1103" y="-112" type="curve" smooth="yes"/>
      <point x="995" y="-112"/>
      <point x="1005" y="-199"/>
      <point x="878" y="-199" type="curve" smooth="yes"/>
      <point x="867" y="-199" type="line"/>
      <point x="886" y="-97"/>
      <point x="898" y="14"/>
      <point x="898" y="131" type="curve" smooth="yes"/>
      <point x="898" y="354"/>
      <point x="853" y="546"/>
      <point x="718" y="546" type="curve" smooth="yes"/>
      <point x="655" y="546"/>
      <point x="617" y="510"/>
      <point x="596" y="445" type="curve"/>
      <point x="575" y="510"/>
      <point x="536" y="546"/>
      <point x="474" y="546" type="curve" smooth="yes"/>
      <point x="361" y="546"/>
      <point x="322" y="474"/>
      <point x="322" y="301" type="curve" smooth="yes"/>
      <point x="322" y="83" type="line"/>
      <point x="310" y="83" type="line" smooth="yes"/>
      <point x="268" y="83"/>
      <point x="238" y="121"/>
      <point x="238" y="204" type="curve" smooth="yes"/>
      <point x="238" y="319" type="line" smooth="yes"/>
      <point x="238" y="422"/>
      <point x="235" y="546"/>
      <point x="140" y="546" type="curve" smooth="yes"/>
      <point x="42" y="546"/>
      <point x="39" y="405"/>
      <point x="39" y="335" type="curve"/>
      <point x="45" y="333"/>
      <point x="48" y="332"/>
      <point x="57" y="332" type="curve" smooth="yes"/>
      <point x="67" y="332"/>
      <point x="71" y="334"/>
      <point x="78" y="336" type="curve"/>
      <point x="80" y="410"/>
      <point x="80" y="463"/>
      <point x="141" y="463" type="curve" smooth="yes"/>
      <point x="187" y="463"/>
      <point x="199" y="424"/>
      <point x="199" y="322" type="curve" smooth="yes"/>
      <point x="199" y="227" type="line" smooth="yes"/>
      <point x="199" y="107"/>
      <point x="203" y="0"/>
      <point x="338" y="0" type="curve" smooth="yes"/>
      <point x="361" y="0" type="line"/>
      <point x="361" y="301" type="line" smooth="yes"/>
      <point x="361" y="430"/>
      <point x="405" y="463"/>
      <point x="474" y="463" type="curve" smooth="yes"/>
      <point x="532" y="463"/>
      <point x="579" y="411"/>
      <point x="579" y="358" type="curve"/>
      <point x="613" y="358" type="line"/>
      <point x="619" y="428"/>
      <point x="668" y="463"/>
      <point x="718" y="463" type="curve" smooth="yes"/>
      <point x="817" y="463"/>
      <point x="850" y="321"/>
      <point x="850" y="126" type="curve" smooth="yes"/>
      <point x="850" y="17"/>
      <point x="838" y="-93"/>
      <point x="819" y="-194" type="curve"/>
      <point x="744" y="-183"/>
      <point x="672" y="-153"/>
      <point x="600" y="-124" type="curve" smooth="yes"/>
      <point x="525" y="-94"/>
      <point x="448" y="-68"/>
      <point x="363" y="-68" type="curve" smooth="yes"/>
      <point x="249" y="-68"/>
      <point x="186" y="-139"/>
      <point x="186" y="-209" type="curve" smooth="yes"/>
      <point x="186" y="-328"/>
      <point x="348" y="-373"/>
      <point x="496" y="-407" type="curve" smooth="yes"/>
      <point x="548" y="-419"/>
      <point x="597" y="-431"/>
      <point x="638" y="-444" type="curve" smooth="yes"/>
      <point x="694" y="-462"/>
      <point x="735" y="-486"/>
      <point x="737" y="-521" type="curve"/>
      <point x="732" y="-537" type="line"/>
      <point x="771" y="-547" type="line"/>
      <point x="801" y="-467"/>
      <point x="833" y="-365"/>
      <point x="858" y="-248" type="curve"/>
      <point x="976" y="-247"/>
      <point x="1004" y="-172"/>
      <point x="1090" y="-172" type="curve" smooth="yes"/>
      <point x="1127" y="-172"/>
      <point x="1137" y="-190"/>
      <point x="1137" y="-221" type="curve" smooth="yes"/>
      <point x="1137" y="-248"/>
      <point x="1108" y="-286"/>
      <point x="1062" y="-286" type="curve" smooth="yes"/>
      <point x="1030" y="-286" type="line"/>
      <point x="1026" y="-325" type="line"/>
      <point x="1064" y="-325" type="line" smooth="yes"/>
      <point x="1122" y="-325"/>
      <point x="1154" y="-351"/>
      <point x="1154" y="-387" type="curve" smooth="yes"/>
      <point x="1154" y="-437"/>
      <point x="1123" y="-463"/>
      <point x="1045" y="-463" type="curve" smooth="yes"/>
      <point x="985" y="-463"/>
      <point x="943" y="-449"/>
      <point x="918" y="-411" type="curve"/>
      <point x="888" y="-440" type="line"/>
      <point x="924" y="-499"/>
      <point x="980" y="-536"/>
      <point x="1045" y="-536" type="curve" smooth="yes"/>
      <point x="1138" y="-536"/>
      <point x="1198" y="-473"/>
      <point x="1198" y="-391" type="curve" smooth="yes"/>
      <point x="1198" y="-359"/>
      <point x="1182" y="-310"/>
    </contour>
    <contour>
      <point x="757" y="-457" type="curve"/>
      <point x="738" y="-435"/>
      <point x="698" y="-416"/>
      <point x="648" y="-401" type="curve" smooth="yes"/>
      <point x="606" y="-388"/>
      <point x="555" y="-376"/>
      <point x="505" y="-364" type="curve" smooth="yes"/>
      <point x="392" y="-337"/>
      <point x="234" y="-297"/>
      <point x="234" y="-211" type="curve" smooth="yes"/>
      <point x="234" y="-168"/>
      <point x="263" y="-142"/>
      <point x="333" y="-142" type="curve" smooth="yes"/>
      <point x="404" y="-142"/>
      <point x="488" y="-164"/>
      <point x="571" y="-189" type="curve" smooth="yes"/>
      <point x="650" y="-213"/>
      <point x="732" y="-238"/>
      <point x="810" y="-246" type="curve"/>
      <point x="794" y="-323"/>
      <point x="775" y="-395"/>
    </contour>
  </outline>
</glyph>
<glyph name="uni1B0F" format="2">
  <advance width="718"/>
  <unicode hex="1B0F"/>
  <note>
uni1B0F
</note>
  <outline>
    <contour>
      <point x="659" y="0" type="line"/>
      <point x="659" y="8"/>
      <point x="660" y="17"/>
      <point x="660" y="25" type="curve" smooth="yes"/>
      <point x="660" y="181"/>
      <point x="554" y="293"/>
      <point x="400" y="293" type="curve" smooth="yes"/>
      <point x="283" y="293"/>
      <point x="188" y="213"/>
      <point x="161" y="90" type="curve"/>
      <point x="125" y="129"/>
      <point x="107" y="188"/>
      <point x="107" y="266" type="curve" smooth="yes"/>
      <point x="107" y="413"/>
      <point x="212" y="513"/>
      <point x="347" y="513" type="curve" smooth="yes"/>
      <point x="362" y="513"/>
      <point x="379" y="512"/>
      <point x="397" y="509" type="curve"/>
      <point x="408" y="556" type="line"/>
      <point x="387" y="560"/>
      <point x="366" y="562"/>
      <point x="346" y="562" type="curve" smooth="yes"/>
      <point x="231" y="562"/>
      <point x="59" y="478"/>
      <point x="59" y="262" type="curve" smooth="yes"/>
      <point x="59" y="143"/>
      <point x="108" y="39"/>
      <point x="192" y="-12" type="curve"/>
      <point x="192" y="12" type="line" smooth="yes"/>
      <point x="192" y="132"/>
      <point x="272" y="210"/>
      <point x="401" y="210" type="curve" smooth="yes"/>
      <point x="530" y="210"/>
      <point x="611" y="139"/>
      <point x="611" y="21" type="curve" smooth="yes"/>
      <point x="611" y="11"/>
      <point x="610" y="0"/>
      <point x="610" y="-10" type="curve"/>
    </contour>
  </outline>
</glyph>
<glyph name="uni1B10" format="2">
  <advance width="1144"/>
  <unicode hex="1B10"/>
  <note>
uni1B10
</note>
  <outline>
    <contour>
      <point x="999" y="508" type="line"/>
      <point x="1077" y="510"/>
      <point x="1136" y="582"/>
      <point x="1144" y="693" type="curve"/>
      <point x="1110" y="714" type="line"/>
      <point x="1104" y="638"/>
      <point x="1056" y="592"/>
      <point x="999" y="592" type="curve"/>
      <point x="995" y="691"/>
      <point x="950" y="767"/>
      <point x="887" y="767" type="curve" smooth="yes"/>
      <point x="836" y="767"/>
      <point x="804" y="732"/>
      <point x="804" y="677" type="curve" smooth="yes"/>
      <point x="804" y="588"/>
      <point x="866" y="523"/>
      <point x="959" y="509" type="curve"/>
      <point x="959" y="-301" type="line" smooth="yes"/>
      <point x="959" y="-412"/>
      <point x="932" y="-463"/>
      <point x="832" y="-463" type="curve" smooth="yes"/>
      <point x="800" y="-463"/>
      <point x="774" y="-445"/>
      <point x="755" y="-410" type="curve" smooth="yes"/>
      <point x="736" y="-375"/>
      <point x="714" y="-358"/>
      <point x="690" y="-358" type="curve" smooth="yes"/>
      <point x="672" y="-358"/>
      <point x="656" y="-369"/>
      <point x="644" y="-392" type="curve" smooth="yes"/>
      <point x="620" y="-436"/>
      <point x="594" y="-463"/>
      <point x="549" y="-463" type="curve" smooth="yes"/>
      <point x="461" y="-463"/>
      <point x="411" y="-416"/>
      <point x="411" y="-333" type="curve" smooth="yes"/>
      <point x="411" y="-265"/>
      <point x="444" y="-203"/>
      <point x="582" y="-103" type="curve" smooth="yes"/>
      <point x="651" y="-53"/>
      <point x="707" y="-3"/>
      <point x="750" y="41" type="curve" smooth="yes"/>
      <point x="838" y="132"/>
      <point x="875" y="232"/>
      <point x="875" y="349" type="curve" smooth="yes"/>
      <point x="875" y="474"/>
      <point x="817" y="546"/>
      <point x="718" y="546" type="curve" smooth="yes"/>
      <point x="658" y="546"/>
      <point x="618" y="512"/>
      <point x="596" y="445" type="curve"/>
      <point x="574" y="512"/>
      <point x="534" y="546"/>
      <point x="474" y="546" type="curve" smooth="yes"/>
      <point x="365" y="546"/>
      <point x="322" y="479"/>
      <point x="322" y="301" type="curve" smooth="yes"/>
      <point x="322" y="83" type="line"/>
      <point x="310" y="83" type="line" smooth="yes"/>
      <point x="265" y="83"/>
      <point x="238" y="125"/>
      <point x="238" y="204" type="curve" smooth="yes"/>
      <point x="238" y="319" type="line" smooth="yes"/>
      <point x="238" y="442"/>
      <point x="228" y="546"/>
      <point x="140" y="546" type="curve" smooth="yes"/>
      <point x="56" y="546"/>
      <point x="39" y="445"/>
      <point x="39" y="335" type="curve"/>
      <point x="45" y="333"/>
      <point x="53" y="332"/>
      <point x="57" y="332" type="curve" smooth="yes"/>
      <point x="62" y="332"/>
      <point x="69" y="333"/>
      <point x="78" y="336" type="curve"/>
      <point x="80" y="412"/>
      <point x="79" y="463"/>
      <point x="141" y="463" type="curve" smooth="yes"/>
      <point x="195" y="463"/>
      <point x="199" y="403"/>
      <point x="199" y="320" type="curve" smooth="yes"/>
      <point x="199" y="227" type="line" smooth="yes"/>
      <point x="199" y="161"/>
      <point x="203" y="114"/>
      <point x="212" y="85" type="curve" smooth="yes"/>
      <point x="230" y="28"/>
      <point x="271" y="0"/>
      <point x="338" y="0" type="curve" smooth="yes"/>
      <point x="361" y="0" type="line"/>
      <point x="361" y="301" type="line" smooth="yes"/>
      <point x="361" y="413"/>
      <point x="392" y="463"/>
      <point x="474" y="463" type="curve" smooth="yes"/>
      <point x="530" y="463"/>
      <point x="579" y="413"/>
      <point x="579" y="358" type="curve"/>
      <point x="613" y="358" type="line"/>
      <point x="619" y="422"/>
      <point x="663" y="463"/>
      <point x="718" y="463" type="curve" smooth="yes"/>
      <point x="786" y="463"/>
      <point x="827" y="421"/>
      <point x="827" y="352" type="curve" smooth="yes"/>
      <point x="827" y="243"/>
      <point x="777" y="157"/>
      <point x="594" y="11" type="curve" smooth="yes"/>
      <point x="412" y="-134"/>
      <point x="362" y="-222"/>
      <point x="362" y="-331" type="curve" smooth="yes"/>
      <point x="362" y="-461"/>
      <point x="430" y="-546"/>
      <point x="540" y="-546" type="curve" smooth="yes"/>
      <point x="572" y="-546"/>
      <point x="599" y="-529"/>
      <point x="619" y="-496" type="curve" smooth="yes"/>
      <point x="639" y="-463"/>
      <point x="662" y="-445"/>
      <point x="690" y="-445" type="curve" smooth="yes"/>
      <point x="719" y="-445"/>
      <point x="743" y="-462"/>
      <point x="763" y="-496" type="curve" smooth="yes"/>
      <point x="783" y="-529"/>
      <point x="809" y="-546"/>
      <point x="842" y="-546" type="curve" smooth="yes"/>
      <point x="953" y="-546"/>
      <point x="999" y="-469"/>
      <point x="999" y="-301" type="curve" smooth="yes"/>
    </contour>
    <contour>
      <point x="848" y="677" type="curve" smooth="yes"/>
      <point x="848" y="704"/>
      <point x="862" y="718"/>
      <point x="889" y="718" type="curve" smooth="yes"/>
      <point x="925" y="718"/>
      <point x="957" y="665"/>
      <point x="959" y="592" type="curve"/>
      <point x="889" y="598"/>
      <point x="848" y="628"/>
    </contour>
  </outline>
</glyph>
<glyph name="uni1B11" format="2">
  <advance width="983"/>
  <unicode hex="1B11"/>
  <note>
uni1B11
</note>
  <outline>
    <contour>
      <point x="541" y="-546" type="curve" smooth="yes"/>
      <point x="563" y="-546" type="line"/>
      <point x="563" y="-401" type="line" smooth="yes"/>
      <point x="563" y="-272"/>
      <point x="644" y="-238"/>
      <point x="754" y="-238" type="curve" smooth="yes"/>
      <point x="892" y="-238"/>
      <point x="944" y="-292"/>
      <point x="944" y="-403" type="curve" smooth="yes"/>
      <point x="944" y="-546" type="line"/>
      <point x="983" y="-546" type="line"/>
      <point x="983" y="-402" type="line" smooth="yes"/>
      <point x="983" y="-235"/>
      <point x="900" y="-155"/>
      <point x="753" y="-155" type="curve" smooth="yes"/>
      <point x="616" y="-155"/>
      <point x="524" y="-228"/>
      <point x="524" y="-401" type="curve" smooth="yes"/>
      <point x="524" y="-463" type="line"/>
      <point x="512" y="-463" type="line" smooth="yes"/>
      <point x="448" y="-463"/>
      <point x="411" y="-386"/>
      <point x="411" y="-333" type="curve" smooth="yes"/>
      <point x="411" y="-102"/>
      <point x="875" y="-50"/>
      <point x="875" y="349" type="curve" smooth="yes"/>
      <point x="875" y="456"/>
      <point x="832" y="546"/>
      <point x="718" y="546" type="curve" smooth="yes"/>
      <point x="655" y="546"/>
      <point x="617" y="510"/>
      <point x="596" y="445" type="curve"/>
      <point x="575" y="510"/>
      <point x="536" y="546"/>
      <point x="474" y="546" type="curve" smooth="yes"/>
      <point x="361" y="546"/>
      <point x="322" y="474"/>
      <point x="322" y="301" type="curve" smooth="yes"/>
      <point x="322" y="83" type="line"/>
      <point x="310" y="83" type="line" smooth="yes"/>
      <point x="268" y="83"/>
      <point x="238" y="121"/>
      <point x="238" y="204" type="curve" smooth="yes"/>
      <point x="238" y="319" type="line" smooth="yes"/>
      <point x="238" y="422"/>
      <point x="235" y="546"/>
      <point x="140" y="546" type="curve" smooth="yes"/>
      <point x="42" y="546"/>
      <point x="39" y="405"/>
      <point x="39" y="335" type="curve"/>
      <point x="45" y="333"/>
      <point x="48" y="332"/>
      <point x="57" y="332" type="curve" smooth="yes"/>
      <point x="67" y="332"/>
      <point x="71" y="334"/>
      <point x="78" y="336" type="curve"/>
      <point x="80" y="410"/>
      <point x="80" y="463"/>
      <point x="141" y="463" type="curve" smooth="yes"/>
      <point x="187" y="463"/>
      <point x="199" y="424"/>
      <point x="199" y="322" type="curve" smooth="yes"/>
      <point x="199" y="227" type="line" smooth="yes"/>
      <point x="199" y="107"/>
      <point x="203" y="0"/>
      <point x="338" y="0" type="curve" smooth="yes"/>
      <point x="361" y="0" type="line"/>
      <point x="361" y="301" type="line" smooth="yes"/>
      <point x="361" y="430"/>
      <point x="405" y="463"/>
      <point x="474" y="463" type="curve" smooth="yes"/>
      <point x="532" y="463"/>
      <point x="579" y="411"/>
      <point x="579" y="358" type="curve"/>
      <point x="613" y="358" type="line"/>
      <point x="619" y="428"/>
      <point x="668" y="463"/>
      <point x="718" y="463" type="curve" smooth="yes"/>
      <point x="788" y="463"/>
      <point x="827" y="418"/>
      <point x="827" y="352" type="curve" smooth="yes"/>
      <point x="827" y="51"/>
      <point x="362" y="-28"/>
      <point x="362" y="-330" type="curve" smooth="yes"/>
      <point x="362" y="-435"/>
      <point x="405" y="-546"/>
    </contour>
  </outline>
</glyph>
<glyph name="uni1B13" format="2">
  <advance width="1111"/>
  <unicode hex="1B13"/>
  <note>
uni1B13
</note>
  <outline>
    <contour>
      <point x="153" y="-10" type="curve" smooth="yes"/>
      <point x="241" y="-10"/>
      <point x="262" y="79"/>
      <point x="262" y="182" type="curve" smooth="yes"/>
      <point x="262" y="212" type="line"/>
      <point x="281" y="214"/>
      <point x="297" y="215"/>
      <point x="317" y="215" type="curve"/>
      <point x="317" y="203" type="line" smooth="yes"/>
      <point x="317" y="68"/>
      <point x="431" y="-10"/>
      <point x="522" y="-10" type="curve" smooth="yes"/>
      <point x="587" y="-10"/>
      <point x="655" y="19"/>
      <point x="655" y="99" type="curve" smooth="yes"/>
      <point x="655" y="239"/>
      <point x="502" y="289"/>
      <point x="356" y="297" type="curve"/>
      <point x="356" y="405"/>
      <point x="421" y="463"/>
      <point x="557" y="463" type="curve" smooth="yes"/>
      <point x="695" y="463"/>
      <point x="752" y="411"/>
      <point x="752" y="299" type="curve" smooth="yes"/>
      <point x="752" y="182" type="line" smooth="yes"/>
      <point x="752" y="79"/>
      <point x="761" y="-10"/>
      <point x="843" y="-10" type="curve" smooth="yes"/>
      <point x="905" y="-10"/>
      <point x="923" y="57"/>
      <point x="923" y="108" type="curve" smooth="yes"/>
      <point x="923" y="454" type="line"/>
      <point x="936" y="454" type="line" smooth="yes"/>
      <point x="982" y="454"/>
      <point x="1008" y="408"/>
      <point x="1008" y="306" type="curve" smooth="yes"/>
      <point x="1008" y="0" type="line"/>
      <point x="1047" y="0" type="line"/>
      <point x="1047" y="310" type="line" smooth="yes"/>
      <point x="1047" y="430"/>
      <point x="1042" y="537"/>
      <point x="907" y="537" type="curve" smooth="yes"/>
      <point x="884" y="537" type="line"/>
      <point x="884" y="138" type="line" smooth="yes"/>
      <point x="884" y="96"/>
      <point x="870" y="63"/>
      <point x="844" y="63" type="curve" smooth="yes"/>
      <point x="805" y="63"/>
      <point x="791" y="88"/>
      <point x="791" y="178" type="curve" smooth="yes"/>
      <point x="791" y="300" type="line" smooth="yes"/>
      <point x="791" y="467"/>
      <point x="703" y="546"/>
      <point x="556" y="546" type="curve" smooth="yes"/>
      <point x="418" y="546"/>
      <point x="317" y="473"/>
      <point x="317" y="319" type="curve" smooth="yes"/>
      <point x="317" y="298" type="line"/>
      <point x="281" y="297"/>
      <point x="271" y="296"/>
      <point x="262" y="294" type="curve"/>
      <point x="262" y="319" type="line" smooth="yes"/>
      <point x="262" y="422"/>
      <point x="255" y="546"/>
      <point x="156" y="546" type="curve" smooth="yes"/>
      <point x="42" y="546"/>
      <point x="39" y="405"/>
      <point x="39" y="335" type="curve"/>
      <point x="45" y="333"/>
      <point x="48" y="332"/>
      <point x="57" y="332" type="curve" smooth="yes"/>
      <point x="67" y="332"/>
      <point x="71" y="334"/>
      <point x="78" y="336" type="curve"/>
      <point x="80" y="410"/>
      <point x="87" y="463"/>
      <point x="151" y="463" type="curve" smooth="yes"/>
      <point x="197" y="463"/>
      <point x="223" y="424"/>
      <point x="223" y="322" type="curve" smooth="yes"/>
      <point x="223" y="286" type="line"/>
      <point x="137" y="261"/>
      <point x="68" y="196"/>
      <point x="68" y="92" type="curve" smooth="yes"/>
      <point x="68" y="42"/>
      <point x="98" y="-10"/>
    </contour>
    <contour>
      <point x="155" y="39" type="curve" smooth="yes"/>
      <point x="130" y="39"/>
      <point x="112" y="56"/>
      <point x="112" y="98" type="curve" smooth="yes"/>
      <point x="112" y="155"/>
      <point x="158" y="190"/>
      <point x="223" y="206" type="curve"/>
      <point x="223" y="178" type="line" smooth="yes"/>
      <point x="223" y="76"/>
      <point x="195" y="39"/>
    </contour>
    <contour>
      <point x="527" y="39" type="curve" smooth="yes"/>
      <point x="455" y="39"/>
      <point x="356" y="87"/>
      <point x="356" y="199" type="curve" smooth="yes"/>
      <point x="356" y="213" type="line"/>
      <point x="476" y="206"/>
      <point x="606" y="165"/>
      <point x="606" y="85" type="curve" smooth="yes"/>
      <point x="606" y="52"/>
      <point x="564" y="39"/>
    </contour>
  </outline>
</glyph>
<glyph name="uni1B14" format="2">
  <advance width="1131"/>
  <unicode hex="1B14"/>
  <note>
uni1B14
</note>
  <outline>
    <contour>
      <point x="1155" y="-88" type="line"/>
      <point x="1142" y="20"/>
      <point x="1070" y="76"/>
      <point x="954" y="78" type="curve" smooth="yes"/>
      <point x="838" y="80"/>
      <point x="791" y="118"/>
      <point x="791" y="203" type="curve" smooth="yes"/>
      <point x="791" y="300" type="line" smooth="yes"/>
      <point x="791" y="460"/>
      <point x="710" y="546"/>
      <point x="556" y="546" type="curve" smooth="yes"/>
      <point x="407" y="546"/>
      <point x="317" y="462"/>
      <point x="317" y="319" type="curve" smooth="yes"/>
      <point x="317" y="298" type="line"/>
      <point x="293" y="298"/>
      <point x="275" y="297"/>
      <point x="262" y="294" type="curve"/>
      <point x="262" y="319" type="line" smooth="yes"/>
      <point x="262" y="407"/>
      <point x="253" y="467"/>
      <point x="235" y="499" type="curve" smooth="yes"/>
      <point x="217" y="530"/>
      <point x="190" y="546"/>
      <point x="156" y="546" type="curve" smooth="yes"/>
      <point x="78" y="546"/>
      <point x="39" y="485"/>
      <point x="39" y="335" type="curve"/>
      <point x="45" y="334"/>
      <point x="51" y="332"/>
      <point x="57" y="332" type="curve" smooth="yes"/>
      <point x="62" y="332"/>
      <point x="69" y="333"/>
      <point x="78" y="336" type="curve"/>
      <point x="79" y="388"/>
      <point x="85" y="421"/>
      <point x="98" y="439" type="curve" smooth="yes"/>
      <point x="109" y="455"/>
      <point x="127" y="463"/>
      <point x="151" y="463" type="curve" smooth="yes"/>
      <point x="201" y="463"/>
      <point x="223" y="417"/>
      <point x="223" y="322" type="curve" smooth="yes"/>
      <point x="223" y="286" type="line"/>
      <point x="126" y="258"/>
      <point x="68" y="186"/>
      <point x="68" y="92" type="curve" smooth="yes"/>
      <point x="68" y="35"/>
      <point x="103" y="-10"/>
      <point x="153" y="-10" type="curve" smooth="yes"/>
      <point x="226" y="-10"/>
      <point x="262" y="49"/>
      <point x="262" y="182" type="curve" smooth="yes"/>
      <point x="262" y="212" type="line"/>
      <point x="275" y="214"/>
      <point x="293" y="214"/>
      <point x="317" y="214" type="curve"/>
      <point x="317" y="202" type="line" smooth="yes"/>
      <point x="317" y="77"/>
      <point x="422" y="-10"/>
      <point x="522" y="-10" type="curve" smooth="yes"/>
      <point x="604" y="-10"/>
      <point x="655" y="32"/>
      <point x="655" y="99" type="curve" smooth="yes"/>
      <point x="655" y="217"/>
      <point x="543" y="287"/>
      <point x="356" y="297" type="curve"/>
      <point x="356" y="311" type="line" smooth="yes"/>
      <point x="356" y="415"/>
      <point x="415" y="463"/>
      <point x="557" y="463" type="curve" smooth="yes"/>
      <point x="690" y="463"/>
      <point x="752" y="415"/>
      <point x="752" y="299" type="curve" smooth="yes"/>
      <point x="752" y="198" type="line" smooth="yes"/>
      <point x="752" y="61"/>
      <point x="815" y="-5"/>
      <point x="944" y="-5" type="curve" smooth="yes"/>
      <point x="1071" y="-5"/>
      <point x="1115" y="-37"/>
      <point x="1123" y="-98" type="curve"/>
    </contour>
    <contour>
      <point x="356" y="213" type="line"/>
      <point x="505" y="204"/>
      <point x="606" y="154"/>
      <point x="606" y="85" type="curve" smooth="yes"/>
      <point x="606" y="56"/>
      <point x="572" y="39"/>
      <point x="527" y="39" type="curve" smooth="yes"/>
      <point x="443" y="39"/>
      <point x="356" y="97"/>
      <point x="356" y="199" type="curve" smooth="yes"/>
    </contour>
    <contour>
      <point x="223" y="178" type="line" smooth="yes"/>
      <point x="223" y="85"/>
      <point x="201" y="39"/>
      <point x="155" y="39" type="curve" smooth="yes"/>
      <point x="126" y="39"/>
      <point x="112" y="59"/>
      <point x="112" y="98" type="curve" smooth="yes"/>
      <point x="112" y="149"/>
      <point x="150" y="188"/>
      <point x="223" y="206" type="curve"/>
    </contour>
  </outline>
</glyph>
<glyph name="uni1B16" format="2">
  <advance width="1168"/>
  <unicode hex="1B16"/>
  <note>
uni1B16
</note>
  <outline>
    <contour>
      <point x="939" y="546" type="curve" smooth="yes"/>
      <point x="872" y="546"/>
      <point x="830" y="508"/>
      <point x="804" y="454" type="curve"/>
      <point x="920" y="454"/>
      <point x="955" y="337"/>
      <point x="955" y="261" type="curve" smooth="yes"/>
      <point x="955" y="235" type="line" smooth="yes"/>
      <point x="955" y="106"/>
      <point x="921" y="73"/>
      <point x="862" y="73" type="curve" smooth="yes"/>
      <point x="779" y="73"/>
      <point x="786" y="178"/>
      <point x="720" y="178" type="curve" smooth="yes"/>
      <point x="659" y="178"/>
      <point x="672" y="73"/>
      <point x="579" y="73" type="curve" smooth="yes"/>
      <point x="520" y="73"/>
      <point x="486" y="106"/>
      <point x="486" y="235" type="curve" smooth="yes"/>
      <point x="486" y="537" type="line"/>
      <point x="463" y="537" type="line" smooth="yes"/>
      <point x="328" y="537"/>
      <point x="322" y="430"/>
      <point x="322" y="310" type="curve" smooth="yes"/>
      <point x="322" y="83" type="line"/>
      <point x="310" y="83" type="line" smooth="yes"/>
      <point x="268" y="83"/>
      <point x="238" y="121"/>
      <point x="238" y="204" type="curve" smooth="yes"/>
      <point x="238" y="319" type="line" smooth="yes"/>
      <point x="238" y="422"/>
      <point x="235" y="546"/>
      <point x="140" y="546" type="curve" smooth="yes"/>
      <point x="42" y="546"/>
      <point x="39" y="405"/>
      <point x="39" y="335" type="curve"/>
      <point x="45" y="333"/>
      <point x="48" y="332"/>
      <point x="57" y="332" type="curve" smooth="yes"/>
      <point x="67" y="332"/>
      <point x="71" y="334"/>
      <point x="78" y="336" type="curve"/>
      <point x="80" y="410"/>
      <point x="80" y="463"/>
      <point x="141" y="463" type="curve" smooth="yes"/>
      <point x="187" y="463"/>
      <point x="199" y="424"/>
      <point x="199" y="322" type="curve" smooth="yes"/>
      <point x="199" y="227" type="line" smooth="yes"/>
      <point x="199" y="107"/>
      <point x="203" y="0"/>
      <point x="338" y="0" type="curve" smooth="yes"/>
      <point x="361" y="0" type="line"/>
      <point x="361" y="306" type="line" smooth="yes"/>
      <point x="361" y="408"/>
      <point x="388" y="454"/>
      <point x="434" y="454" type="curve" smooth="yes"/>
      <point x="447" y="454" type="line"/>
      <point x="447" y="235" type="line" smooth="yes"/>
      <point x="447" y="62"/>
      <point x="481" y="-10"/>
      <point x="569" y="-10" type="curve" smooth="yes"/>
      <point x="656" y="-10"/>
      <point x="643" y="91"/>
      <point x="720" y="91" type="curve" smooth="yes"/>
      <point x="798" y="91"/>
      <point x="785" y="-10"/>
      <point x="872" y="-10" type="curve" smooth="yes"/>
      <point x="960" y="-10"/>
      <point x="994" y="62"/>
      <point x="994" y="235" type="curve" smooth="yes"/>
      <point x="994" y="273" type="line" smooth="yes"/>
      <point x="994" y="343"/>
      <point x="980" y="405"/>
      <point x="919" y="456" type="curve"/>
      <point x="928" y="460"/>
      <point x="947" y="463"/>
      <point x="958" y="463" type="curve" smooth="yes"/>
      <point x="1012" y="463"/>
      <point x="1065" y="426"/>
      <point x="1065" y="306" type="curve" smooth="yes"/>
      <point x="1065" y="0" type="line"/>
      <point x="1104" y="0" type="line"/>
      <point x="1104" y="310" type="line" smooth="yes"/>
      <point x="1104" y="443"/>
      <point x="1062" y="546"/>
    </contour>
  </outline>
</glyph>
<glyph name="uni1B18" format="2">
  <advance width="794"/>
  <unicode hex="1B18"/>
  <note>
uni1B18
</note>
  <outline>
    <contour>
      <point x="566" y="546" type="curve" smooth="yes"/>
      <point x="499" y="546"/>
      <point x="456" y="508"/>
      <point x="431" y="454" type="curve"/>
      <point x="547" y="454"/>
      <point x="581" y="337"/>
      <point x="581" y="261" type="curve" smooth="yes"/>
      <point x="581" y="232" type="line" smooth="yes"/>
      <point x="581" y="151"/>
      <point x="572" y="73"/>
      <point x="500" y="73" type="curve" smooth="yes"/>
      <point x="443" y="73"/>
      <point x="380" y="248"/>
      <point x="262" y="275" type="curve"/>
      <point x="262" y="319" type="line" smooth="yes"/>
      <point x="262" y="422"/>
      <point x="255" y="546"/>
      <point x="156" y="546" type="curve" smooth="yes"/>
      <point x="42" y="546"/>
      <point x="39" y="405"/>
      <point x="39" y="335" type="curve"/>
      <point x="45" y="333"/>
      <point x="48" y="332"/>
      <point x="57" y="332" type="curve" smooth="yes"/>
      <point x="67" y="332"/>
      <point x="71" y="334"/>
      <point x="78" y="336" type="curve"/>
      <point x="80" y="410"/>
      <point x="87" y="463"/>
      <point x="151" y="463" type="curve" smooth="yes"/>
      <point x="197" y="463"/>
      <point x="223" y="424"/>
      <point x="223" y="322" type="curve" smooth="yes"/>
      <point x="223" y="278" type="line"/>
      <point x="156" y="274"/>
      <point x="68" y="224"/>
      <point x="68" y="92" type="curve" smooth="yes"/>
      <point x="68" y="42"/>
      <point x="98" y="-10"/>
      <point x="153" y="-10" type="curve" smooth="yes"/>
      <point x="241" y="-10"/>
      <point x="262" y="79"/>
      <point x="262" y="182" type="curve" smooth="yes"/>
      <point x="262" y="188" type="line"/>
      <point x="357" y="147"/>
      <point x="394" y="-10"/>
      <point x="501" y="-10" type="curve" smooth="yes"/>
      <point x="596" y="-10"/>
      <point x="620" y="92"/>
      <point x="620" y="205" type="curve" smooth="yes"/>
      <point x="620" y="273" type="line" smooth="yes"/>
      <point x="620" y="343"/>
      <point x="607" y="405"/>
      <point x="545" y="456" type="curve"/>
      <point x="555" y="460"/>
      <point x="574" y="463"/>
      <point x="584" y="463" type="curve" smooth="yes"/>
      <point x="639" y="463"/>
      <point x="692" y="426"/>
      <point x="692" y="306" type="curve" smooth="yes"/>
      <point x="692" y="0" type="line"/>
      <point x="731" y="0" type="line"/>
      <point x="731" y="310" type="line" smooth="yes"/>
      <point x="731" y="443"/>
      <point x="689" y="546"/>
    </contour>
    <contour>
      <point x="155" y="39" type="curve" smooth="yes"/>
      <point x="130" y="39"/>
      <point x="112" y="56"/>
      <point x="112" y="98" type="curve" smooth="yes"/>
      <point x="112" y="175"/>
      <point x="168" y="194"/>
      <point x="223" y="195" type="curve"/>
      <point x="223" y="178" type="line" smooth="yes"/>
      <point x="223" y="76"/>
      <point x="195" y="39"/>
    </contour>
  </outline>
</glyph>
<glyph name="uni1B19" format="2">
  <advance width="1052"/>
  <unicode hex="1B19"/>
  <note>
uni1B19
</note>
  <outline>
    <contour>
      <point x="162" y="-10" type="curve" smooth="yes"/>
      <point x="260" y="-10"/>
      <point x="263" y="146"/>
      <point x="263" y="216" type="curve"/>
      <point x="256" y="218"/>
      <point x="254" y="219"/>
      <point x="245" y="219" type="curve" smooth="yes"/>
      <point x="235" y="219"/>
      <point x="230" y="217"/>
      <point x="224" y="215" type="curve"/>
      <point x="222" y="141"/>
      <point x="222" y="73"/>
      <point x="161" y="73" type="curve" smooth="yes"/>
      <point x="115" y="73"/>
      <point x="103" y="112"/>
      <point x="103" y="214" type="curve" smooth="yes"/>
      <point x="103" y="301" type="line" smooth="yes"/>
      <point x="103" y="430"/>
      <point x="173" y="463"/>
      <point x="273" y="463" type="curve" smooth="yes"/>
      <point x="401" y="463"/>
      <point x="444" y="411"/>
      <point x="444" y="299" type="curve" smooth="yes"/>
      <point x="444" y="227" type="line" smooth="yes"/>
      <point x="444" y="66"/>
      <point x="521" y="-10"/>
      <point x="655" y="-10" type="curve" smooth="yes"/>
      <point x="782" y="-10"/>
      <point x="864" y="62"/>
      <point x="864" y="235" type="curve" smooth="yes"/>
      <point x="864" y="454" type="line"/>
      <point x="877" y="454" type="line" smooth="yes"/>
      <point x="923" y="454"/>
      <point x="950" y="408"/>
      <point x="950" y="306" type="curve" smooth="yes"/>
      <point x="950" y="0" type="line"/>
      <point x="989" y="0" type="line"/>
      <point x="989" y="310" type="line" smooth="yes"/>
      <point x="989" y="430"/>
      <point x="983" y="537"/>
      <point x="848" y="537" type="curve" smooth="yes"/>
      <point x="825" y="537" type="line"/>
      <point x="825" y="235" type="line" smooth="yes"/>
      <point x="825" y="106"/>
      <point x="755" y="73"/>
      <point x="654" y="73" type="curve" smooth="yes"/>
      <point x="526" y="73"/>
      <point x="483" y="125"/>
      <point x="483" y="237" type="curve" smooth="yes"/>
      <point x="483" y="300" type="line" smooth="yes"/>
      <point x="483" y="467"/>
      <point x="410" y="546"/>
      <point x="273" y="546" type="curve" smooth="yes"/>
      <point x="146" y="546"/>
      <point x="63" y="474"/>
      <point x="63" y="301" type="curve" smooth="yes"/>
      <point x="63" y="217" type="line" smooth="yes"/>
      <point x="63" y="114"/>
      <point x="67" y="-10"/>
    </contour>
  </outline>
</glyph>
<glyph name="uni1B1A" format="2">
  <advance width="879"/>
  <unicode hex="1B1A"/>
  <note>
uni1B1A
</note>
  <outline>
    <contour>
      <point x="710" y="212" type="curve"/>
      <point x="790" y="243"/>
      <point x="815" y="306"/>
      <point x="815" y="351" type="curve" smooth="yes"/>
      <point x="815" y="484"/>
      <point x="709" y="546"/>
      <point x="563" y="546" type="curve" smooth="yes"/>
      <point x="428" y="546"/>
      <point x="322" y="480"/>
      <point x="322" y="301" type="curve" smooth="yes"/>
      <point x="322" y="83" type="line"/>
      <point x="310" y="83" type="line" smooth="yes"/>
      <point x="268" y="83"/>
      <point x="238" y="121"/>
      <point x="238" y="204" type="curve" smooth="yes"/>
      <point x="238" y="319" type="line" smooth="yes"/>
      <point x="238" y="422"/>
      <point x="235" y="546"/>
      <point x="140" y="546" type="curve" smooth="yes"/>
      <point x="42" y="546"/>
      <point x="39" y="405"/>
      <point x="39" y="335" type="curve"/>
      <point x="45" y="333"/>
      <point x="48" y="332"/>
      <point x="57" y="332" type="curve" smooth="yes"/>
      <point x="67" y="332"/>
      <point x="71" y="334"/>
      <point x="78" y="336" type="curve"/>
      <point x="80" y="410"/>
      <point x="80" y="463"/>
      <point x="141" y="463" type="curve" smooth="yes"/>
      <point x="187" y="463"/>
      <point x="199" y="424"/>
      <point x="199" y="322" type="curve" smooth="yes"/>
      <point x="199" y="227" type="line" smooth="yes"/>
      <point x="199" y="107"/>
      <point x="203" y="0"/>
      <point x="338" y="0" type="curve" smooth="yes"/>
      <point x="361" y="0" type="line"/>
      <point x="361" y="301" type="line" smooth="yes"/>
      <point x="361" y="430"/>
      <point x="445" y="463"/>
      <point x="563" y="463" type="curve" smooth="yes"/>
      <point x="701" y="463"/>
      <point x="767" y="410"/>
      <point x="767" y="344" type="curve" smooth="yes"/>
      <point x="767" y="256"/>
      <point x="674" y="232"/>
      <point x="595" y="232" type="curve" smooth="yes"/>
      <point x="546" y="232" type="line"/>
      <point x="542" y="193" type="line"/>
      <point x="586" y="193" type="line" smooth="yes"/>
      <point x="633" y="193"/>
      <point x="776" y="188"/>
      <point x="776" y="58" type="curve" smooth="yes"/>
      <point x="776" y="0" type="line"/>
      <point x="815" y="0" type="line"/>
      <point x="815" y="55" type="line" smooth="yes"/>
      <point x="815" y="145"/>
      <point x="766" y="190"/>
    </contour>
  </outline>
</glyph>
<glyph name="uni1B1B" format="2">
  <advance width="1208"/>
  <unicode hex="1B1B"/>
  <note>
uni1B1B
</note>
  <outline>
    <contour>
      <point x="999" y="563" type="curve"/>
      <point x="999" y="583" type="line" smooth="yes"/>
      <point x="999" y="686"/>
      <point x="977" y="767"/>
      <point x="890" y="767" type="curve" smooth="yes"/>
      <point x="834" y="767"/>
      <point x="804" y="723"/>
      <point x="804" y="672" type="curve" smooth="yes"/>
      <point x="804" y="580"/>
      <point x="872" y="517"/>
      <point x="959" y="493" type="curve"/>
      <point x="959" y="-301" type="line" smooth="yes"/>
      <point x="959" y="-430"/>
      <point x="917" y="-463"/>
      <point x="832" y="-463" type="curve" smooth="yes"/>
      <point x="749" y="-463"/>
      <point x="756" y="-358"/>
      <point x="690" y="-358" type="curve" smooth="yes"/>
      <point x="629" y="-358"/>
      <point x="643" y="-463"/>
      <point x="549" y="-463" type="curve" smooth="yes"/>
      <point x="463" y="-463"/>
      <point x="411" y="-417"/>
      <point x="411" y="-333" type="curve" smooth="yes"/>
      <point x="411" y="-102"/>
      <point x="875" y="-50"/>
      <point x="875" y="349" type="curve" smooth="yes"/>
      <point x="875" y="456"/>
      <point x="832" y="546"/>
      <point x="718" y="546" type="curve" smooth="yes"/>
      <point x="655" y="546"/>
      <point x="617" y="510"/>
      <point x="596" y="445" type="curve"/>
      <point x="575" y="510"/>
      <point x="536" y="546"/>
      <point x="474" y="546" type="curve" smooth="yes"/>
      <point x="361" y="546"/>
      <point x="322" y="474"/>
      <point x="322" y="301" type="curve" smooth="yes"/>
      <point x="322" y="83" type="line"/>
      <point x="310" y="83" type="line" smooth="yes"/>
      <point x="268" y="83"/>
      <point x="238" y="121"/>
      <point x="238" y="204" type="curve" smooth="yes"/>
      <point x="238" y="319" type="line" smooth="yes"/>
      <point x="238" y="422"/>
      <point x="235" y="546"/>
      <point x="140" y="546" type="curve" smooth="yes"/>
      <point x="42" y="546"/>
      <point x="39" y="405"/>
      <point x="39" y="335" type="curve"/>
      <point x="45" y="333"/>
      <point x="48" y="332"/>
      <point x="57" y="332" type="curve" smooth="yes"/>
      <point x="67" y="332"/>
      <point x="71" y="334"/>
      <point x="78" y="336" type="curve"/>
      <point x="80" y="410"/>
      <point x="80" y="463"/>
      <point x="141" y="463" type="curve" smooth="yes"/>
      <point x="187" y="463"/>
      <point x="199" y="424"/>
      <point x="199" y="322" type="curve" smooth="yes"/>
      <point x="199" y="227" type="line" smooth="yes"/>
      <point x="199" y="107"/>
      <point x="203" y="0"/>
      <point x="338" y="0" type="curve" smooth="yes"/>
      <point x="361" y="0" type="line"/>
      <point x="361" y="301" type="line" smooth="yes"/>
      <point x="361" y="430"/>
      <point x="405" y="463"/>
      <point x="474" y="463" type="curve" smooth="yes"/>
      <point x="532" y="463"/>
      <point x="579" y="411"/>
      <point x="579" y="358" type="curve"/>
      <point x="613" y="358" type="line"/>
      <point x="619" y="428"/>
      <point x="668" y="463"/>
      <point x="718" y="463" type="curve" smooth="yes"/>
      <point x="788" y="463"/>
      <point x="827" y="418"/>
      <point x="827" y="352" type="curve" smooth="yes"/>
      <point x="827" y="51"/>
      <point x="362" y="-29"/>
      <point x="362" y="-331" type="curve" smooth="yes"/>
      <point x="362" y="-445"/>
      <point x="416" y="-546"/>
      <point x="540" y="-546" type="curve" smooth="yes"/>
      <point x="626" y="-546"/>
      <point x="613" y="-445"/>
      <point x="690" y="-445" type="curve" smooth="yes"/>
      <point x="768" y="-445"/>
      <point x="755" y="-546"/>
      <point x="842" y="-546" type="curve" smooth="yes"/>
      <point x="950" y="-546"/>
      <point x="999" y="-474"/>
      <point x="999" y="-301" type="curve" smooth="yes"/>
      <point x="999" y="484" type="line"/>
      <point x="1026" y="480" type="line" smooth="yes"/>
      <point x="1070" y="473"/>
      <point x="1129" y="466"/>
      <point x="1129" y="363" type="curve" smooth="yes"/>
      <point x="1129" y="345" type="line"/>
      <point x="1168" y="345" type="line"/>
      <point x="1168" y="368" type="line" smooth="yes"/>
      <point x="1168" y="488"/>
      <point x="1132" y="549"/>
    </contour>
    <contour>
      <point x="848" y="667" type="curve" smooth="yes"/>
      <point x="848" y="708"/>
      <point x="866" y="718"/>
      <point x="892" y="718" type="curve" smooth="yes"/>
      <point x="931" y="718"/>
      <point x="959" y="688"/>
      <point x="959" y="586" type="curve" smooth="yes"/>
      <point x="959" y="570" type="line"/>
      <point x="895" y="584"/>
      <point x="848" y="616"/>
    </contour>
  </outline>
</glyph>
<glyph name="uni1B1C" format="2">
  <advance width="1509"/>
  <unicode hex="1B1C"/>
  <note>
uni1B1C
</note>
  <outline>
    <contour>
      <point x="1200" y="546" type="curve" smooth="yes"/>
      <point x="1065" y="546"/>
      <point x="953" y="438"/>
      <point x="953" y="266" type="curve" smooth="yes"/>
      <point x="953" y="204" type="line" smooth="yes"/>
      <point x="953" y="121"/>
      <point x="924" y="83"/>
      <point x="882" y="83" type="curve" smooth="yes"/>
      <point x="869" y="83" type="line"/>
      <point x="869" y="301" type="line" smooth="yes"/>
      <point x="869" y="474"/>
      <point x="831" y="546"/>
      <point x="718" y="546" type="curve" smooth="yes"/>
      <point x="655" y="546"/>
      <point x="617" y="510"/>
      <point x="596" y="445" type="curve"/>
      <point x="575" y="510"/>
      <point x="536" y="546"/>
      <point x="474" y="546" type="curve" smooth="yes"/>
      <point x="361" y="546"/>
      <point x="322" y="474"/>
      <point x="322" y="301" type="curve" smooth="yes"/>
      <point x="322" y="83" type="line"/>
      <point x="310" y="83" type="line" smooth="yes"/>
      <point x="268" y="83"/>
      <point x="238" y="121"/>
      <point x="238" y="204" type="curve" smooth="yes"/>
      <point x="238" y="319" type="line" smooth="yes"/>
      <point x="238" y="422"/>
      <point x="235" y="546"/>
      <point x="140" y="546" type="curve" smooth="yes"/>
      <point x="42" y="546"/>
      <point x="39" y="405"/>
      <point x="39" y="335" type="curve"/>
      <point x="45" y="333"/>
      <point x="48" y="332"/>
      <point x="57" y="332" type="curve" smooth="yes"/>
      <point x="67" y="332"/>
      <point x="71" y="334"/>
      <point x="78" y="336" type="curve"/>
      <point x="80" y="410"/>
      <point x="80" y="463"/>
      <point x="141" y="463" type="curve" smooth="yes"/>
      <point x="187" y="463"/>
      <point x="199" y="424"/>
      <point x="199" y="322" type="curve" smooth="yes"/>
      <point x="199" y="227" type="line" smooth="yes"/>
      <point x="199" y="107"/>
      <point x="203" y="0"/>
      <point x="338" y="0" type="curve" smooth="yes"/>
      <point x="361" y="0" type="line"/>
      <point x="361" y="301" type="line" smooth="yes"/>
      <point x="361" y="430"/>
      <point x="405" y="463"/>
      <point x="474" y="463" type="curve" smooth="yes"/>
      <point x="532" y="463"/>
      <point x="579" y="411"/>
      <point x="579" y="358" type="curve"/>
      <point x="613" y="358" type="line"/>
      <point x="619" y="428"/>
      <point x="668" y="463"/>
      <point x="718" y="463" type="curve" smooth="yes"/>
      <point x="787" y="463"/>
      <point x="830" y="430"/>
      <point x="830" y="301" type="curve" smooth="yes"/>
      <point x="830" y="0" type="line"/>
      <point x="853" y="0" type="line" smooth="yes"/>
      <point x="988" y="0"/>
      <point x="992" y="107"/>
      <point x="992" y="227" type="curve" smooth="yes"/>
      <point x="992" y="265" type="line" smooth="yes"/>
      <point x="992" y="376"/>
      <point x="1064" y="463"/>
      <point x="1202" y="463" type="curve" smooth="yes"/>
      <point x="1323" y="463"/>
      <point x="1411" y="394"/>
      <point x="1411" y="271" type="curve" smooth="yes"/>
      <point x="1411" y="113"/>
      <point x="1328" y="39"/>
      <point x="1251" y="39" type="curve" smooth="yes"/>
      <point x="1232" y="39"/>
      <point x="1197" y="42"/>
      <point x="1182" y="50" type="curve"/>
      <point x="1157" y="11" type="line"/>
      <point x="1182" y="-3"/>
      <point x="1217" y="-10"/>
      <point x="1246" y="-10" type="curve" smooth="yes"/>
      <point x="1329" y="-10"/>
      <point x="1460" y="55"/>
      <point x="1460" y="274" type="curve" smooth="yes"/>
      <point x="1460" y="426"/>
      <point x="1359" y="546"/>
    </contour>
  </outline>
</glyph>
<glyph name="uni1B1D" format="2">
  <advance width="1050"/>
  <unicode hex="1B1D"/>
  <note>
uni1B1D
</note>
  <outline>
    <contour>
      <point x="549" y="-293" type="curve" smooth="yes"/>
      <point x="647" y="-293"/>
      <point x="728" y="-240"/>
      <point x="744" y="-103" type="curve"/>
      <point x="712" y="-93" type="line"/>
      <point x="699" y="-185"/>
      <point x="620" y="-210"/>
      <point x="549" y="-210" type="curve" smooth="yes"/>
      <point x="437" y="-210"/>
      <point x="393" y="-121"/>
      <point x="393" y="-41" type="curve" smooth="yes"/>
      <point x="393" y="-8" type="line"/>
      <point x="458" y="0"/>
      <point x="548" y="47"/>
      <point x="548" y="159" type="curve" smooth="yes"/>
      <point x="548" y="210"/>
      <point x="521" y="249"/>
      <point x="465" y="249" type="curve" smooth="yes"/>
      <point x="396" y="249"/>
      <point x="356" y="160"/>
      <point x="354" y="74" type="curve"/>
      <point x="317" y="74"/>
      <point x="242" y="103"/>
      <point x="242" y="214" type="curve" smooth="yes"/>
      <point x="242" y="318" type="line" smooth="yes"/>
      <point x="242" y="421"/>
      <point x="233" y="546"/>
      <point x="151" y="546" type="curve" smooth="yes"/>
      <point x="40" y="546"/>
      <point x="39" y="405"/>
      <point x="39" y="335" type="curve"/>
      <point x="45" y="333"/>
      <point x="48" y="332"/>
      <point x="57" y="332" type="curve" smooth="yes"/>
      <point x="67" y="332"/>
      <point x="71" y="334"/>
      <point x="78" y="336" type="curve"/>
      <point x="80" y="410"/>
      <point x="82" y="463"/>
      <point x="146" y="463" type="curve" smooth="yes"/>
      <point x="184" y="463"/>
      <point x="203" y="424"/>
      <point x="203" y="322" type="curve" smooth="yes"/>
      <point x="203" y="200" type="line" smooth="yes"/>
      <point x="203" y="31"/>
      <point x="300" y="-7"/>
      <point x="354" y="-9" type="curve"/>
      <point x="354" y="-46" type="line" smooth="yes"/>
      <point x="354" y="-171"/>
      <point x="409" y="-293"/>
    </contour>
    <contour>
      <point x="393" y="74" type="curve"/>
      <point x="396" y="142"/>
      <point x="425" y="200"/>
      <point x="463" y="200" type="curve" smooth="yes"/>
      <point x="489" y="200"/>
      <point x="504" y="188"/>
      <point x="504" y="160" type="curve" smooth="yes"/>
      <point x="504" y="105"/>
      <point x="456" y="79"/>
    </contour>
    <contour>
      <point x="947" y="0" type="line"/>
      <point x="986" y="0" type="line"/>
      <point x="986" y="301" type="line" smooth="yes"/>
      <point x="986" y="474"/>
      <point x="948" y="546"/>
      <point x="835" y="546" type="curve" smooth="yes"/>
      <point x="772" y="546"/>
      <point x="734" y="510"/>
      <point x="713" y="445" type="curve"/>
      <point x="692" y="510"/>
      <point x="653" y="546"/>
      <point x="591" y="546" type="curve" smooth="yes"/>
      <point x="492" y="546"/>
      <point x="440" y="489"/>
      <point x="427" y="369" type="curve"/>
      <point x="461" y="360" type="line"/>
      <point x="474" y="454"/>
      <point x="530" y="463"/>
      <point x="591" y="463" type="curve" smooth="yes"/>
      <point x="649" y="463"/>
      <point x="696" y="411"/>
      <point x="696" y="358" type="curve"/>
      <point x="730" y="358" type="line"/>
      <point x="736" y="428"/>
      <point x="786" y="463"/>
      <point x="835" y="463" type="curve" smooth="yes"/>
      <point x="904" y="463"/>
      <point x="947" y="430"/>
      <point x="947" y="301" type="curve" smooth="yes"/>
    </contour>
  </outline>
</glyph>
<glyph name="uni1B1E" format="2">
  <advance width="1011"/>
  <unicode hex="1B1E"/>
  <note>
uni1B1E
</note>
  <outline>
    <contour>
      <point x="397" y="-68" type="curve" smooth="yes"/>
      <point x="496" y="-68"/>
      <point x="577" y="-15"/>
      <point x="593" y="122" type="curve"/>
      <point x="561" y="132" type="line"/>
      <point x="548" y="40"/>
      <point x="468" y="15"/>
      <point x="397" y="15" type="curve" smooth="yes"/>
      <point x="286" y="15"/>
      <point x="242" y="104"/>
      <point x="242" y="184" type="curve" smooth="yes"/>
      <point x="242" y="318" type="line" smooth="yes"/>
      <point x="242" y="421"/>
      <point x="233" y="546"/>
      <point x="151" y="546" type="curve" smooth="yes"/>
      <point x="40" y="546"/>
      <point x="39" y="405"/>
      <point x="39" y="335" type="curve"/>
      <point x="45" y="333"/>
      <point x="48" y="332"/>
      <point x="57" y="332" type="curve" smooth="yes"/>
      <point x="67" y="332"/>
      <point x="71" y="334"/>
      <point x="78" y="336" type="curve"/>
      <point x="81" y="410"/>
      <point x="82" y="463"/>
      <point x="146" y="463" type="curve" smooth="yes"/>
      <point x="184" y="463"/>
      <point x="203" y="424"/>
      <point x="203" y="322" type="curve" smooth="yes"/>
      <point x="203" y="178" type="line" smooth="yes"/>
      <point x="203" y="54"/>
      <point x="257" y="-68"/>
    </contour>
    <contour>
      <point x="908" y="0" type="line"/>
      <point x="947" y="0" type="line"/>
      <point x="947" y="301" type="line" smooth="yes"/>
      <point x="947" y="474"/>
      <point x="909" y="546"/>
      <point x="796" y="546" type="curve" smooth="yes"/>
      <point x="733" y="546"/>
      <point x="695" y="510"/>
      <point x="674" y="445" type="curve"/>
      <point x="653" y="510"/>
      <point x="614" y="546"/>
      <point x="552" y="546" type="curve" smooth="yes"/>
      <point x="453" y="546"/>
      <point x="401" y="489"/>
      <point x="388" y="369" type="curve"/>
      <point x="422" y="360" type="line"/>
      <point x="435" y="454"/>
      <point x="491" y="463"/>
      <point x="552" y="463" type="curve" smooth="yes"/>
      <point x="610" y="463"/>
      <point x="657" y="411"/>
      <point x="657" y="358" type="curve"/>
      <point x="691" y="358" type="line"/>
      <point x="697" y="428"/>
      <point x="747" y="463"/>
      <point x="796" y="463" type="curve" smooth="yes"/>
      <point x="865" y="463"/>
      <point x="908" y="430"/>
      <point x="908" y="301" type="curve" smooth="yes"/>
    </contour>
  </outline>
</glyph>
<glyph name="uni1B20" format="2">
  <advance width="810"/>
  <unicode hex="1B20"/>
  <note>
uni1B20
</note>
  <outline>
    <contour>
      <point x="322" y="-10" type="curve" smooth="yes"/>
      <point x="408" y="-10"/>
      <point x="395" y="91"/>
      <point x="473" y="91" type="curve" smooth="yes"/>
      <point x="549" y="91"/>
      <point x="537" y="-10"/>
      <point x="624" y="-10" type="curve" smooth="yes"/>
      <point x="712" y="-10"/>
      <point x="746" y="62"/>
      <point x="746" y="235" type="curve" smooth="yes"/>
      <point x="746" y="537" type="line"/>
      <point x="707" y="537" type="line"/>
      <point x="707" y="235" type="line" smooth="yes"/>
      <point x="707" y="106"/>
      <point x="674" y="73"/>
      <point x="614" y="73" type="curve" smooth="yes"/>
      <point x="533" y="73"/>
      <point x="540" y="178"/>
      <point x="473" y="178" type="curve" smooth="yes"/>
      <point x="413" y="178"/>
      <point x="423" y="73"/>
      <point x="332" y="73" type="curve" smooth="yes"/>
      <point x="272" y="73"/>
      <point x="238" y="106"/>
      <point x="238" y="235" type="curve" smooth="yes"/>
      <point x="238" y="319" type="line" smooth="yes"/>
      <point x="238" y="422"/>
      <point x="235" y="546"/>
      <point x="140" y="546" type="curve" smooth="yes"/>
      <point x="42" y="546"/>
      <point x="39" y="405"/>
      <point x="39" y="335" type="curve"/>
      <point x="45" y="333"/>
      <point x="48" y="332"/>
      <point x="57" y="332" type="curve" smooth="yes"/>
      <point x="67" y="332"/>
      <point x="71" y="334"/>
      <point x="78" y="336" type="curve"/>
      <point x="80" y="410"/>
      <point x="80" y="463"/>
      <point x="141" y="463" type="curve" smooth="yes"/>
      <point x="187" y="463"/>
      <point x="199" y="424"/>
      <point x="199" y="322" type="curve" smooth="yes"/>
      <point x="199" y="235" type="line" smooth="yes"/>
      <point x="199" y="62"/>
      <point x="233" y="-10"/>
    </contour>
  </outline>
</glyph>
<glyph name="uni1B21" format="2">
  <advance width="1221"/>
  <unicode hex="1B21"/>
  <note>
uni1B21
</note>
  <outline>
    <contour>
      <point x="953" y="-10" type="curve" smooth="yes"/>
      <point x="1016" y="-10"/>
      <point x="1033" y="57"/>
      <point x="1033" y="108" type="curve" smooth="yes"/>
      <point x="1033" y="454" type="line"/>
      <point x="1046" y="454" type="line" smooth="yes"/>
      <point x="1092" y="454"/>
      <point x="1119" y="408"/>
      <point x="1119" y="306" type="curve" smooth="yes"/>
      <point x="1119" y="0" type="line"/>
      <point x="1158" y="0" type="line"/>
      <point x="1158" y="310" type="line" smooth="yes"/>
      <point x="1158" y="430"/>
      <point x="1152" y="537"/>
      <point x="1017" y="537" type="curve" smooth="yes"/>
      <point x="994" y="537" type="line"/>
      <point x="994" y="138" type="line" smooth="yes"/>
      <point x="994" y="96"/>
      <point x="980" y="63"/>
      <point x="955" y="63" type="curve" smooth="yes"/>
      <point x="915" y="63"/>
      <point x="901" y="88"/>
      <point x="901" y="178" type="curve" smooth="yes"/>
      <point x="901" y="324" type="line" smooth="yes"/>
      <point x="901" y="491"/>
      <point x="836" y="546"/>
      <point x="759" y="546" type="curve" smooth="yes"/>
      <point x="641" y="546"/>
      <point x="650" y="396"/>
      <point x="562" y="396" type="curve" smooth="yes"/>
      <point x="473" y="396"/>
      <point x="482" y="546"/>
      <point x="365" y="546" type="curve" smooth="yes"/>
      <point x="187" y="546"/>
      <point x="286" y="324"/>
      <point x="150" y="324" type="curve" smooth="yes"/>
      <point x="80" y="324"/>
      <point x="80" y="376"/>
      <point x="78" y="451" type="curve"/>
      <point x="71" y="453"/>
      <point x="67" y="455"/>
      <point x="57" y="455" type="curve" smooth="yes"/>
      <point x="48" y="455"/>
      <point x="45" y="453"/>
      <point x="39" y="452" type="curve"/>
      <point x="39" y="381"/>
      <point x="39" y="241"/>
      <point x="149" y="241" type="curve" smooth="yes"/>
      <point x="293" y="241"/>
      <point x="221" y="463"/>
      <point x="369" y="463" type="curve" smooth="yes"/>
      <point x="483" y="463"/>
      <point x="481" y="313"/>
      <point x="562" y="313" type="curve" smooth="yes"/>
      <point x="643" y="313"/>
      <point x="640" y="463"/>
      <point x="755" y="463" type="curve" smooth="yes"/>
      <point x="811" y="463"/>
      <point x="862" y="435"/>
      <point x="862" y="323" type="curve" smooth="yes"/>
      <point x="862" y="182" type="line" smooth="yes"/>
      <point x="862" y="79"/>
      <point x="872" y="-10"/>
    </contour>
  </outline>
</glyph>
<glyph name="uni1B22" format="2">
  <advance width="1204"/>
  <unicode hex="1B22"/>
  <note>
uni1B22
</note>
  <outline>
    <contour>
      <point x="418" y="-10" type="curve" smooth="yes"/>
      <point x="558" y="-10"/>
      <point x="661" y="66"/>
      <point x="661" y="178" type="curve" smooth="yes"/>
      <point x="661" y="376"/>
      <point x="448" y="276"/>
      <point x="448" y="371" type="curve" smooth="yes"/>
      <point x="448" y="422"/>
      <point x="495" y="463"/>
      <point x="633" y="463" type="curve" smooth="yes"/>
      <point x="751" y="463"/>
      <point x="845" y="430"/>
      <point x="845" y="301" type="curve" smooth="yes"/>
      <point x="845" y="182" type="line" smooth="yes"/>
      <point x="845" y="79"/>
      <point x="854" y="-10"/>
      <point x="936" y="-10" type="curve" smooth="yes"/>
      <point x="998" y="-10"/>
      <point x="1016" y="57"/>
      <point x="1016" y="108" type="curve" smooth="yes"/>
      <point x="1016" y="454" type="line"/>
      <point x="1028" y="454" type="line" smooth="yes"/>
      <point x="1075" y="454"/>
      <point x="1101" y="408"/>
      <point x="1101" y="306" type="curve" smooth="yes"/>
      <point x="1101" y="0" type="line"/>
      <point x="1140" y="0" type="line"/>
      <point x="1140" y="310" type="line" smooth="yes"/>
      <point x="1140" y="430"/>
      <point x="1135" y="537"/>
      <point x="1000" y="537" type="curve" smooth="yes"/>
      <point x="977" y="537" type="line"/>
      <point x="977" y="138" type="line" smooth="yes"/>
      <point x="977" y="96"/>
      <point x="962" y="63"/>
      <point x="937" y="63" type="curve" smooth="yes"/>
      <point x="897" y="63"/>
      <point x="884" y="88"/>
      <point x="884" y="178" type="curve" smooth="yes"/>
      <point x="884" y="301" type="line" smooth="yes"/>
      <point x="884" y="480"/>
      <point x="768" y="546"/>
      <point x="633" y="546" type="curve" smooth="yes"/>
      <point x="487" y="546"/>
      <point x="399" y="468"/>
      <point x="399" y="374" type="curve" smooth="yes"/>
      <point x="399" y="175"/>
      <point x="612" y="292"/>
      <point x="612" y="179" type="curve" smooth="yes"/>
      <point x="612" y="113"/>
      <point x="540" y="73"/>
      <point x="418" y="73" type="curve" smooth="yes"/>
      <point x="293" y="73"/>
      <point x="242" y="124"/>
      <point x="242" y="214" type="curve" smooth="yes"/>
      <point x="242" y="318" type="line" smooth="yes"/>
      <point x="242" y="421"/>
      <point x="233" y="546"/>
      <point x="151" y="546" type="curve" smooth="yes"/>
      <point x="40" y="546"/>
      <point x="39" y="405"/>
      <point x="39" y="335" type="curve"/>
      <point x="45" y="333"/>
      <point x="48" y="332"/>
      <point x="57" y="332" type="curve" smooth="yes"/>
      <point x="67" y="332"/>
      <point x="71" y="334"/>
      <point x="78" y="336" type="curve"/>
      <point x="80" y="410"/>
      <point x="82" y="463"/>
      <point x="146" y="463" type="curve" smooth="yes"/>
      <point x="184" y="463"/>
      <point x="203" y="424"/>
      <point x="203" y="322" type="curve" smooth="yes"/>
      <point x="203" y="200" type="line" smooth="yes"/>
      <point x="203" y="31"/>
      <point x="297" y="-10"/>
    </contour>
  </outline>
</glyph>
<glyph name="uni1B23" format="2">
  <advance width="793"/>
  <unicode hex="1B23"/>
  <note>
uni1B23
</note>
  <outline>
    <contour>
      <point x="565" y="546" type="curve" smooth="yes"/>
      <point x="498" y="546"/>
      <point x="455" y="508"/>
      <point x="430" y="454" type="curve"/>
      <point x="546" y="454"/>
      <point x="580" y="337"/>
      <point x="580" y="261" type="curve" smooth="yes"/>
      <point x="580" y="235" type="line" smooth="yes"/>
      <point x="580" y="167"/>
      <point x="561" y="126"/>
      <point x="527" y="102" type="curve"/>
      <point x="493" y="187" type="line" smooth="yes"/>
      <point x="458" y="275"/>
      <point x="420" y="348"/>
      <point x="371" y="348" type="curve" smooth="yes"/>
      <point x="316" y="348"/>
      <point x="303" y="251"/>
      <point x="303" y="212" type="curve"/>
      <point x="335" y="209" type="line"/>
      <point x="336" y="238"/>
      <point x="349" y="265"/>
      <point x="378" y="265" type="curve" smooth="yes"/>
      <point x="410" y="265"/>
      <point x="435" y="228"/>
      <point x="469" y="143" type="curve" smooth="yes"/>
      <point x="493" y="84" type="line"/>
      <point x="468" y="76"/>
      <point x="440" y="73"/>
      <point x="409" y="73" type="curve" smooth="yes"/>
      <point x="281" y="73"/>
      <point x="238" y="125"/>
      <point x="238" y="237" type="curve" smooth="yes"/>
      <point x="238" y="319" type="line" smooth="yes"/>
      <point x="238" y="422"/>
      <point x="235" y="546"/>
      <point x="140" y="546" type="curve" smooth="yes"/>
      <point x="42" y="546"/>
      <point x="39" y="405"/>
      <point x="39" y="335" type="curve"/>
      <point x="45" y="333"/>
      <point x="48" y="332"/>
      <point x="57" y="332" type="curve" smooth="yes"/>
      <point x="67" y="332"/>
      <point x="71" y="334"/>
      <point x="78" y="336" type="curve"/>
      <point x="80" y="410"/>
      <point x="80" y="463"/>
      <point x="141" y="463" type="curve" smooth="yes"/>
      <point x="187" y="463"/>
      <point x="199" y="424"/>
      <point x="199" y="322" type="curve" smooth="yes"/>
      <point x="199" y="227" type="line" smooth="yes"/>
      <point x="199" y="66"/>
      <point x="275" y="-10"/>
      <point x="410" y="-10" type="curve" smooth="yes"/>
      <point x="452" y="-10"/>
      <point x="490" y="-2"/>
      <point x="521" y="15" type="curve"/>
      <point x="552" y="-63" type="line"/>
      <point x="587" y="-45" type="line"/>
      <point x="553" y="39" type="line"/>
      <point x="595" y="78"/>
      <point x="619" y="142"/>
      <point x="619" y="235" type="curve" smooth="yes"/>
      <point x="619" y="273" type="line" smooth="yes"/>
      <point x="619" y="343"/>
      <point x="606" y="405"/>
      <point x="544" y="456" type="curve"/>
      <point x="554" y="460"/>
      <point x="573" y="463"/>
      <point x="583" y="463" type="curve" smooth="yes"/>
      <point x="638" y="463"/>
      <point x="691" y="426"/>
      <point x="691" y="306" type="curve" smooth="yes"/>
      <point x="691" y="0" type="line"/>
      <point x="730" y="0" type="line"/>
      <point x="730" y="310" type="line" smooth="yes"/>
      <point x="730" y="443"/>
      <point x="688" y="546"/>
    </contour>
  </outline>
</glyph>
<glyph name="uni1B24" format="2">
  <advance width="1072"/>
  <unicode hex="1B24"/>
  <note>
uni1B24
</note>
  <outline>
    <contour>
      <point x="778" y="546" type="curve" smooth="yes"/>
      <point x="641" y="546"/>
      <point x="549" y="474"/>
      <point x="549" y="301" type="curve" smooth="yes"/>
      <point x="549" y="231" type="line"/>
      <point x="463" y="186"/>
      <point x="394" y="73"/>
      <point x="340" y="73" type="curve" smooth="yes"/>
      <point x="270" y="73"/>
      <point x="259" y="151"/>
      <point x="259" y="232" type="curve" smooth="yes"/>
      <point x="259" y="319" type="line" smooth="yes"/>
      <point x="259" y="422"/>
      <point x="255" y="546"/>
      <point x="156" y="546" type="curve" smooth="yes"/>
      <point x="42" y="546"/>
      <point x="39" y="405"/>
      <point x="39" y="335" type="curve"/>
      <point x="45" y="333"/>
      <point x="48" y="332"/>
      <point x="57" y="332" type="curve" smooth="yes"/>
      <point x="67" y="332"/>
      <point x="71" y="334"/>
      <point x="78" y="336" type="curve"/>
      <point x="80" y="410"/>
      <point x="87" y="463"/>
      <point x="151" y="463" type="curve" smooth="yes"/>
      <point x="197" y="463"/>
      <point x="220" y="424"/>
      <point x="220" y="322" type="curve" smooth="yes"/>
      <point x="220" y="217" type="line" smooth="yes"/>
      <point x="220" y="102"/>
      <point x="241" y="-10"/>
      <point x="337" y="-10" type="curve" smooth="yes"/>
      <point x="428" y="-10"/>
      <point x="482" y="90"/>
      <point x="550" y="140" type="curve"/>
      <point x="558" y="53"/>
      <point x="598" y="-10"/>
      <point x="677" y="-10" type="curve" smooth="yes"/>
      <point x="732" y="-10"/>
      <point x="762" y="42"/>
      <point x="762" y="92" type="curve" smooth="yes"/>
      <point x="762" y="205"/>
      <point x="685" y="249"/>
      <point x="616" y="249" type="curve" smooth="yes"/>
      <point x="606" y="249"/>
      <point x="597" y="248"/>
      <point x="588" y="246" type="curve"/>
      <point x="588" y="301" type="line" smooth="yes"/>
      <point x="588" y="430"/>
      <point x="668" y="463"/>
      <point x="779" y="463" type="curve" smooth="yes"/>
      <point x="917" y="463"/>
      <point x="969" y="411"/>
      <point x="969" y="299" type="curve" smooth="yes"/>
      <point x="969" y="0" type="line"/>
      <point x="1008" y="0" type="line"/>
      <point x="1008" y="300" type="line" smooth="yes"/>
      <point x="1008" y="467"/>
      <point x="925" y="546"/>
    </contour>
    <contour>
      <point x="624" y="166" type="curve" smooth="yes"/>
      <point x="669" y="166"/>
      <point x="718" y="146"/>
      <point x="718" y="85" type="curve" smooth="yes"/>
      <point x="718" y="63"/>
      <point x="700" y="39"/>
      <point x="675" y="39" type="curve" smooth="yes"/>
      <point x="636" y="39"/>
      <point x="591" y="65"/>
      <point x="588" y="160" type="curve"/>
      <point x="599" y="164"/>
      <point x="611" y="166"/>
    </contour>
  </outline>
</glyph>
<glyph name="uni1B25" format="2">
  <advance width="920"/>
  <unicode hex="1B25"/>
  <note>
uni1B25
</note>
  <outline>
    <contour>
      <point x="692" y="546" type="curve" smooth="yes"/>
      <point x="625" y="546"/>
      <point x="582" y="508"/>
      <point x="557" y="454" type="curve"/>
      <point x="673" y="454"/>
      <point x="707" y="337"/>
      <point x="707" y="261" type="curve" smooth="yes"/>
      <point x="707" y="235" type="line" smooth="yes"/>
      <point x="707" y="106"/>
      <point x="674" y="73"/>
      <point x="614" y="73" type="curve" smooth="yes"/>
      <point x="531" y="73"/>
      <point x="540" y="178"/>
      <point x="473" y="178" type="curve" smooth="yes"/>
      <point x="412" y="178"/>
      <point x="425" y="73"/>
      <point x="332" y="73" type="curve" smooth="yes"/>
      <point x="272" y="73"/>
      <point x="238" y="106"/>
      <point x="238" y="235" type="curve" smooth="yes"/>
      <point x="238" y="319" type="line" smooth="yes"/>
      <point x="238" y="422"/>
      <point x="235" y="546"/>
      <point x="140" y="546" type="curve" smooth="yes"/>
      <point x="42" y="546"/>
      <point x="39" y="405"/>
      <point x="39" y="335" type="curve"/>
      <point x="45" y="333"/>
      <point x="48" y="332"/>
      <point x="57" y="332" type="curve" smooth="yes"/>
      <point x="67" y="332"/>
      <point x="71" y="334"/>
      <point x="78" y="336" type="curve"/>
      <point x="80" y="410"/>
      <point x="80" y="463"/>
      <point x="141" y="463" type="curve" smooth="yes"/>
      <point x="187" y="463"/>
      <point x="199" y="424"/>
      <point x="199" y="322" type="curve" smooth="yes"/>
      <point x="199" y="235" type="line" smooth="yes"/>
      <point x="199" y="62"/>
      <point x="233" y="-10"/>
      <point x="322" y="-10" type="curve" smooth="yes"/>
      <point x="408" y="-10"/>
      <point x="395" y="91"/>
      <point x="473" y="91" type="curve" smooth="yes"/>
      <point x="550" y="91"/>
      <point x="537" y="-10"/>
      <point x="624" y="-10" type="curve" smooth="yes"/>
      <point x="712" y="-10"/>
      <point x="746" y="62"/>
      <point x="746" y="235" type="curve" smooth="yes"/>
      <point x="746" y="273" type="line" smooth="yes"/>
      <point x="746" y="343"/>
      <point x="733" y="405"/>
      <point x="671" y="456" type="curve"/>
      <point x="681" y="460"/>
      <point x="700" y="463"/>
      <point x="710" y="463" type="curve" smooth="yes"/>
      <point x="765" y="463"/>
      <point x="818" y="426"/>
      <point x="818" y="306" type="curve" smooth="yes"/>
      <point x="818" y="0" type="line"/>
      <point x="857" y="0" type="line"/>
      <point x="857" y="310" type="line" smooth="yes"/>
      <point x="857" y="443"/>
      <point x="815" y="546"/>
    </contour>
  </outline>
</glyph>
<glyph name="uni1B27" format="2">
  <advance width="807"/>
  <unicode hex="1B27"/>
  <note>
uni1B27
</note>
  <outline>
    <contour>
      <point x="410" y="-10" type="curve" smooth="yes"/>
      <point x="537" y="-10"/>
      <point x="619" y="62"/>
      <point x="619" y="235" type="curve" smooth="yes"/>
      <point x="619" y="454" type="line"/>
      <point x="632" y="454" type="line" smooth="yes"/>
      <point x="678" y="454"/>
      <point x="705" y="408"/>
      <point x="705" y="306" type="curve" smooth="yes"/>
      <point x="705" y="0" type="line"/>
      <point x="744" y="0" type="line"/>
      <point x="744" y="310" type="line" smooth="yes"/>
      <point x="744" y="430"/>
      <point x="738" y="537"/>
      <point x="603" y="537" type="curve" smooth="yes"/>
      <point x="580" y="537" type="line"/>
      <point x="580" y="235" type="line" smooth="yes"/>
      <point x="580" y="106"/>
      <point x="510" y="73"/>
      <point x="409" y="73" type="curve" smooth="yes"/>
      <point x="281" y="73"/>
      <point x="238" y="125"/>
      <point x="238" y="237" type="curve" smooth="yes"/>
      <point x="238" y="319" type="line" smooth="yes"/>
      <point x="238" y="422"/>
      <point x="235" y="546"/>
      <point x="140" y="546" type="curve" smooth="yes"/>
      <point x="42" y="546"/>
      <point x="39" y="405"/>
      <point x="39" y="335" type="curve"/>
      <point x="45" y="333"/>
      <point x="48" y="332"/>
      <point x="57" y="332" type="curve" smooth="yes"/>
      <point x="67" y="332"/>
      <point x="71" y="334"/>
      <point x="78" y="336" type="curve"/>
      <point x="80" y="410"/>
      <point x="80" y="463"/>
      <point x="141" y="463" type="curve" smooth="yes"/>
      <point x="187" y="463"/>
      <point x="199" y="424"/>
      <point x="199" y="322" type="curve" smooth="yes"/>
      <point x="199" y="227" type="line" smooth="yes"/>
      <point x="199" y="66"/>
      <point x="275" y="-10"/>
    </contour>
  </outline>
</glyph>
<glyph name="uni1B28" format="2">
  <advance width="765"/>
  <unicode hex="1B28"/>
  <note>
uni1B28
</note>
  <outline>
    <contour>
      <point x="731" y="646" type="line"/>
      <point x="724" y="549"/>
      <point x="654" y="523"/>
      <point x="619" y="523" type="curve"/>
      <point x="617" y="609"/>
      <point x="578" y="698"/>
      <point x="508" y="698" type="curve" smooth="yes"/>
      <point x="453" y="698"/>
      <point x="425" y="659"/>
      <point x="425" y="608" type="curve" smooth="yes"/>
      <point x="425" y="496"/>
      <point x="515" y="450"/>
      <point x="580" y="441" type="curve"/>
      <point x="580" y="235" type="line" smooth="yes"/>
      <point x="580" y="106"/>
      <point x="510" y="73"/>
      <point x="409" y="73" type="curve" smooth="yes"/>
      <point x="281" y="73"/>
      <point x="238" y="125"/>
      <point x="238" y="237" type="curve" smooth="yes"/>
      <point x="238" y="319" type="line" smooth="yes"/>
      <point x="238" y="422"/>
      <point x="235" y="546"/>
      <point x="140" y="546" type="curve" smooth="yes"/>
      <point x="42" y="546"/>
      <point x="39" y="405"/>
      <point x="39" y="335" type="curve"/>
      <point x="45" y="333"/>
      <point x="48" y="332"/>
      <point x="57" y="332" type="curve" smooth="yes"/>
      <point x="67" y="332"/>
      <point x="71" y="334"/>
      <point x="78" y="336" type="curve"/>
      <point x="80" y="410"/>
      <point x="80" y="463"/>
      <point x="141" y="463" type="curve" smooth="yes"/>
      <point x="187" y="463"/>
      <point x="199" y="424"/>
      <point x="199" y="322" type="curve" smooth="yes"/>
      <point x="199" y="227" type="line" smooth="yes"/>
      <point x="199" y="66"/>
      <point x="275" y="-10"/>
      <point x="410" y="-10" type="curve" smooth="yes"/>
      <point x="537" y="-10"/>
      <point x="619" y="62"/>
      <point x="619" y="235" type="curve" smooth="yes"/>
      <point x="619" y="440" type="line"/>
      <point x="670" y="442"/>
      <point x="754" y="480"/>
      <point x="765" y="625" type="curve"/>
    </contour>
    <contour>
      <point x="469" y="609" type="curve" smooth="yes"/>
      <point x="469" y="637"/>
      <point x="484" y="649"/>
      <point x="510" y="649" type="curve" smooth="yes"/>
      <point x="548" y="649"/>
      <point x="578" y="591"/>
      <point x="580" y="523" type="curve"/>
      <point x="518" y="528"/>
      <point x="469" y="555"/>
    </contour>
  </outline>
</glyph>
<glyph name="uni1B29" format="2">
  <advance width="1180"/>
  <unicode hex="1B29"/>
  <note>
uni1B29
</note>
  <outline>
    <contour>
      <point x="338" y="0" type="curve" smooth="yes"/>
      <point x="361" y="0" type="line"/>
      <point x="361" y="301" type="line" smooth="yes"/>
      <point x="361" y="430"/>
      <point x="405" y="463"/>
      <point x="474" y="463" type="curve" smooth="yes"/>
      <point x="532" y="463"/>
      <point x="579" y="411"/>
      <point x="579" y="358" type="curve"/>
      <point x="613" y="358" type="line"/>
      <point x="619" y="428"/>
      <point x="668" y="463"/>
      <point x="718" y="463" type="curve" smooth="yes"/>
      <point x="787" y="463"/>
      <point x="830" y="430"/>
      <point x="830" y="301" type="curve" smooth="yes"/>
      <point x="830" y="0" type="line"/>
      <point x="853" y="0" type="line" smooth="yes"/>
      <point x="988" y="0"/>
      <point x="992" y="107"/>
      <point x="992" y="227" type="curve" smooth="yes"/>
      <point x="992" y="454" type="line"/>
      <point x="1005" y="454" type="line" smooth="yes"/>
      <point x="1051" y="454"/>
      <point x="1078" y="408"/>
      <point x="1078" y="306" type="curve" smooth="yes"/>
      <point x="1078" y="0" type="line"/>
      <point x="1117" y="0" type="line"/>
      <point x="1117" y="310" type="line" smooth="yes"/>
      <point x="1117" y="430"/>
      <point x="1111" y="537"/>
      <point x="976" y="537" type="curve" smooth="yes"/>
      <point x="953" y="537" type="line"/>
      <point x="953" y="204" type="line" smooth="yes"/>
      <point x="953" y="121"/>
      <point x="924" y="83"/>
      <point x="882" y="83" type="curve" smooth="yes"/>
      <point x="869" y="83" type="line"/>
      <point x="869" y="301" type="line" smooth="yes"/>
      <point x="869" y="474"/>
      <point x="831" y="546"/>
      <point x="718" y="546" type="curve" smooth="yes"/>
      <point x="655" y="546"/>
      <point x="617" y="510"/>
      <point x="596" y="445" type="curve"/>
      <point x="575" y="510"/>
      <point x="536" y="546"/>
      <point x="474" y="546" type="curve" smooth="yes"/>
      <point x="361" y="546"/>
      <point x="322" y="474"/>
      <point x="322" y="301" type="curve" smooth="yes"/>
      <point x="322" y="83" type="line"/>
      <point x="310" y="83" type="line" smooth="yes"/>
      <point x="268" y="83"/>
      <point x="238" y="121"/>
      <point x="238" y="204" type="curve" smooth="yes"/>
      <point x="238" y="319" type="line" smooth="yes"/>
      <point x="238" y="422"/>
      <point x="235" y="546"/>
      <point x="140" y="546" type="curve" smooth="yes"/>
      <point x="42" y="546"/>
      <point x="39" y="405"/>
      <point x="39" y="335" type="curve"/>
      <point x="45" y="333"/>
      <point x="48" y="332"/>
      <point x="57" y="332" type="curve" smooth="yes"/>
      <point x="67" y="332"/>
      <point x="71" y="334"/>
      <point x="78" y="336" type="curve"/>
      <point x="80" y="410"/>
      <point x="80" y="463"/>
      <point x="141" y="463" type="curve" smooth="yes"/>
      <point x="187" y="463"/>
      <point x="199" y="424"/>
      <point x="199" y="322" type="curve" smooth="yes"/>
      <point x="199" y="227" type="line" smooth="yes"/>
      <point x="199" y="107"/>
      <point x="203" y="0"/>
    </contour>
  </outline>
</glyph>
<glyph name="uni1B2A" format="2">
  <advance width="925"/>
  <unicode hex="1B2A"/>
  <note>
uni1B2A
</note>
  <outline>
    <contour>
      <point x="178" y="-10" type="curve" smooth="yes"/>
      <point x="259" y="-10"/>
      <point x="335" y="91"/>
      <point x="404" y="140" type="curve"/>
      <point x="412" y="53"/>
      <point x="452" y="-10"/>
      <point x="530" y="-10" type="curve" smooth="yes"/>
      <point x="585" y="-10"/>
      <point x="616" y="42"/>
      <point x="616" y="92" type="curve" smooth="yes"/>
      <point x="616" y="205"/>
      <point x="539" y="249"/>
      <point x="470" y="249" type="curve" smooth="yes"/>
      <point x="460" y="249"/>
      <point x="451" y="248"/>
      <point x="442" y="246" type="curve"/>
      <point x="442" y="301" type="line" smooth="yes"/>
      <point x="442" y="430"/>
      <point x="522" y="463"/>
      <point x="632" y="463" type="curve" smooth="yes"/>
      <point x="770" y="463"/>
      <point x="823" y="411"/>
      <point x="823" y="299" type="curve" smooth="yes"/>
      <point x="823" y="0" type="line"/>
      <point x="862" y="0" type="line"/>
      <point x="862" y="300" type="line" smooth="yes"/>
      <point x="862" y="467"/>
      <point x="779" y="546"/>
      <point x="632" y="546" type="curve" smooth="yes"/>
      <point x="495" y="546"/>
      <point x="403" y="474"/>
      <point x="403" y="301" type="curve" smooth="yes"/>
      <point x="403" y="231" type="line"/>
      <point x="316" y="187"/>
      <point x="257" y="73"/>
      <point x="162" y="73" type="curve" smooth="yes"/>
      <point x="124" y="73"/>
      <point x="103" y="94"/>
      <point x="103" y="125" type="curve" smooth="yes"/>
      <point x="103" y="144"/>
      <point x="115" y="162"/>
      <point x="125" y="176" type="curve"/>
      <point x="95" y="198" type="line"/>
      <point x="74" y="173"/>
      <point x="59" y="142"/>
      <point x="59" y="110" type="curve" smooth="yes"/>
      <point x="59" y="43"/>
      <point x="110" y="-10"/>
    </contour>
    <contour>
      <point x="207" y="273" type="line"/>
      <point x="246" y="276" type="line"/>
      <point x="242" y="318" type="line" smooth="yes"/>
      <point x="232" y="421"/>
      <point x="233" y="546"/>
      <point x="151" y="546" type="curve" smooth="yes"/>
      <point x="40" y="546"/>
      <point x="39" y="405"/>
      <point x="39" y="335" type="curve"/>
      <point x="45" y="333"/>
      <point x="48" y="332"/>
      <point x="57" y="332" type="curve" smooth="yes"/>
      <point x="67" y="332"/>
      <point x="71" y="334"/>
      <point x="78" y="336" type="curve"/>
      <point x="80" y="410"/>
      <point x="82" y="463"/>
      <point x="146" y="463" type="curve" smooth="yes"/>
      <point x="184" y="463"/>
      <point x="194" y="423"/>
      <point x="203" y="322" type="curve" smooth="yes"/>
    </contour>
    <contour>
      <point x="528" y="39" type="curve" smooth="yes"/>
      <point x="490" y="39"/>
      <point x="444" y="64"/>
      <point x="442" y="159" type="curve"/>
      <point x="453" y="163"/>
      <point x="464" y="166"/>
      <point x="477" y="166" type="curve" smooth="yes"/>
      <point x="522" y="166"/>
      <point x="572" y="146"/>
      <point x="572" y="85" type="curve" smooth="yes"/>
      <point x="572" y="63"/>
      <point x="554" y="39"/>
    </contour>
  </outline>
</glyph>
<glyph name="uni1B2B" format="2">
  <advance width="854"/>
  <unicode hex="1B2B"/>
  <note>
uni1B2B
</note>
  <outline>
    <contour>
      <point x="408" y="-10" type="curve" smooth="yes"/>
      <point x="556" y="-10"/>
      <point x="666" y="49"/>
      <point x="666" y="235" type="curve" smooth="yes"/>
      <point x="666" y="454" type="line"/>
      <point x="679" y="454" type="line" smooth="yes"/>
      <point x="725" y="454"/>
      <point x="751" y="408"/>
      <point x="751" y="306" type="curve" smooth="yes"/>
      <point x="751" y="0" type="line"/>
      <point x="791" y="0" type="line"/>
      <point x="791" y="310" type="line" smooth="yes"/>
      <point x="791" y="430"/>
      <point x="785" y="537"/>
      <point x="650" y="537" type="curve" smooth="yes"/>
      <point x="627" y="537" type="line"/>
      <point x="627" y="235" type="line" smooth="yes"/>
      <point x="627" y="88"/>
      <point x="525" y="73"/>
      <point x="406" y="73" type="curve" smooth="yes"/>
      <point x="299" y="73"/>
      <point x="217" y="102"/>
      <point x="217" y="166" type="curve" smooth="yes"/>
      <point x="217" y="227"/>
      <point x="299" y="257"/>
      <point x="378" y="257" type="curve" smooth="yes"/>
      <point x="434" y="257" type="line"/>
      <point x="434" y="295" type="line"/>
      <point x="378" y="295" type="line" smooth="yes"/>
      <point x="299" y="295"/>
      <point x="217" y="323"/>
      <point x="217" y="384" type="curve" smooth="yes"/>
      <point x="217" y="442"/>
      <point x="299" y="463"/>
      <point x="392" y="463" type="curve" smooth="yes"/>
      <point x="432" y="463"/>
      <point x="472" y="462"/>
      <point x="506" y="456" type="curve"/>
      <point x="514" y="531" type="line"/>
      <point x="477" y="542"/>
      <point x="434" y="546"/>
      <point x="392" y="546" type="curve" smooth="yes"/>
      <point x="258" y="546"/>
      <point x="49" y="516"/>
      <point x="49" y="343" type="curve" smooth="yes"/>
      <point x="49" y="305"/>
      <point x="55" y="267"/>
      <point x="67" y="230" type="curve"/>
      <point x="112" y="249" type="line"/>
      <point x="102" y="279"/>
      <point x="98" y="312"/>
      <point x="98" y="347" type="curve" smooth="yes"/>
      <point x="98" y="416"/>
      <point x="146" y="456"/>
      <point x="203" y="479" type="curve"/>
      <point x="180" y="453"/>
      <point x="168" y="422"/>
      <point x="168" y="391" type="curve" smooth="yes"/>
      <point x="168" y="344"/>
      <point x="189" y="302"/>
      <point x="253" y="277" type="curve"/>
      <point x="189" y="253"/>
      <point x="168" y="206"/>
      <point x="168" y="159" type="curve" smooth="yes"/>
      <point x="168" y="71"/>
      <point x="236" y="-10"/>
    </contour>
  </outline>
</glyph>
<glyph name="uni1B2C" format="2">
  <advance width="959"/>
  <unicode hex="1B2C"/>
  <note>
uni1B2C
</note>
  <outline>
    <contour>
      <point x="333" y="-10" type="curve" smooth="yes"/>
      <point x="414" y="-10"/>
      <point x="458" y="70"/>
      <point x="479" y="189" type="curve"/>
      <point x="501" y="70"/>
      <point x="544" y="-10"/>
      <point x="626" y="-10" type="curve" smooth="yes"/>
      <point x="694" y="-10"/>
      <point x="756" y="41"/>
      <point x="756" y="200" type="curve" smooth="yes"/>
      <point x="756" y="454" type="line"/>
      <point x="779" y="454" type="line" smooth="yes"/>
      <point x="825" y="454"/>
      <point x="856" y="408"/>
      <point x="856" y="306" type="curve" smooth="yes"/>
      <point x="856" y="0" type="line"/>
      <point x="896" y="0" type="line"/>
      <point x="896" y="310" type="line" smooth="yes"/>
      <point x="896" y="430"/>
      <point x="885" y="537"/>
      <point x="750" y="537" type="curve" smooth="yes"/>
      <point x="717" y="537" type="line"/>
      <point x="717" y="214" type="line" smooth="yes"/>
      <point x="717" y="124"/>
      <point x="691" y="73"/>
      <point x="624" y="73" type="curve" smooth="yes"/>
      <point x="506" y="73"/>
      <point x="501" y="354"/>
      <point x="500" y="493" type="curve"/>
      <point x="459" y="493" type="line"/>
      <point x="458" y="368"/>
      <point x="456" y="73"/>
      <point x="335" y="73" type="curve" smooth="yes"/>
      <point x="268" y="73"/>
      <point x="242" y="124"/>
      <point x="242" y="214" type="curve" smooth="yes"/>
      <point x="242" y="318" type="line" smooth="yes"/>
      <point x="242" y="421"/>
      <point x="233" y="546"/>
      <point x="151" y="546" type="curve" smooth="yes"/>
      <point x="40" y="546"/>
      <point x="39" y="405"/>
      <point x="39" y="335" type="curve"/>
      <point x="45" y="333"/>
      <point x="48" y="332"/>
      <point x="57" y="332" type="curve" smooth="yes"/>
      <point x="67" y="332"/>
      <point x="71" y="334"/>
      <point x="78" y="336" type="curve"/>
      <point x="80" y="410"/>
      <point x="82" y="463"/>
      <point x="146" y="463" type="curve" smooth="yes"/>
      <point x="184" y="463"/>
      <point x="203" y="424"/>
      <point x="203" y="322" type="curve" smooth="yes"/>
      <point x="203" y="200" type="line" smooth="yes"/>
      <point x="203" y="41"/>
      <point x="265" y="-10"/>
    </contour>
  </outline>
</glyph>
<glyph name="uni1B2D" format="2">
  <advance width="845"/>
  <unicode hex="1B2D"/>
  <note>
uni1B2D
</note>
  <outline>
    <contour>
      <point x="199" y="0" type="line"/>
      <point x="222" y="0" type="line" smooth="yes"/>
      <point x="357" y="0"/>
      <point x="361" y="107"/>
      <point x="361" y="227" type="curve" smooth="yes"/>
      <point x="361" y="301" type="line" smooth="yes"/>
      <point x="361" y="430"/>
      <point x="441" y="463"/>
      <point x="552" y="463" type="curve" smooth="yes"/>
      <point x="689" y="463"/>
      <point x="742" y="411"/>
      <point x="742" y="299" type="curve" smooth="yes"/>
      <point x="742" y="0" type="line"/>
      <point x="781" y="0" type="line"/>
      <point x="781" y="300" type="line" smooth="yes"/>
      <point x="781" y="467"/>
      <point x="698" y="546"/>
      <point x="551" y="546" type="curve" smooth="yes"/>
      <point x="414" y="546"/>
      <point x="322" y="474"/>
      <point x="322" y="301" type="curve" smooth="yes"/>
      <point x="322" y="204" type="line" smooth="yes"/>
      <point x="322" y="121"/>
      <point x="293" y="83"/>
      <point x="251" y="83" type="curve" smooth="yes"/>
      <point x="238" y="83" type="line"/>
      <point x="238" y="319" type="line" smooth="yes"/>
      <point x="238" y="422"/>
      <point x="235" y="546"/>
      <point x="140" y="546" type="curve" smooth="yes"/>
      <point x="42" y="546"/>
      <point x="39" y="405"/>
      <point x="39" y="335" type="curve"/>
      <point x="45" y="333"/>
      <point x="48" y="332"/>
      <point x="57" y="332" type="curve" smooth="yes"/>
      <point x="67" y="332"/>
      <point x="71" y="334"/>
      <point x="78" y="336" type="curve"/>
      <point x="80" y="410"/>
      <point x="80" y="463"/>
      <point x="141" y="463" type="curve" smooth="yes"/>
      <point x="187" y="463"/>
      <point x="199" y="424"/>
      <point x="199" y="322" type="curve" smooth="yes"/>
    </contour>
  </outline>
</glyph>
<glyph name="uni1B2E" format="2">
  <advance width="1223"/>
  <unicode hex="1B2E"/>
  <note>
uni1B2E
</note>
  <outline>
    <contour>
      <point x="285" y="-10" type="curve" smooth="yes"/>
      <point x="348" y="-10"/>
      <point x="361" y="59"/>
      <point x="361" y="166" type="curve" smooth="yes"/>
      <point x="361" y="301" type="line" smooth="yes"/>
      <point x="361" y="430"/>
      <point x="388" y="463"/>
      <point x="488" y="463" type="curve" smooth="yes"/>
      <point x="592" y="463"/>
      <point x="615" y="411"/>
      <point x="615" y="299" type="curve" smooth="yes"/>
      <point x="615" y="227" type="line" smooth="yes"/>
      <point x="615" y="66"/>
      <point x="691" y="-10"/>
      <point x="826" y="-10" type="curve" smooth="yes"/>
      <point x="953" y="-10"/>
      <point x="1035" y="62"/>
      <point x="1035" y="235" type="curve" smooth="yes"/>
      <point x="1035" y="454" type="line"/>
      <point x="1048" y="454" type="line" smooth="yes"/>
      <point x="1094" y="454"/>
      <point x="1121" y="408"/>
      <point x="1121" y="306" type="curve" smooth="yes"/>
      <point x="1121" y="0" type="line"/>
      <point x="1160" y="0" type="line"/>
      <point x="1160" y="310" type="line" smooth="yes"/>
      <point x="1160" y="430"/>
      <point x="1154" y="537"/>
      <point x="1019" y="537" type="curve" smooth="yes"/>
      <point x="996" y="537" type="line"/>
      <point x="996" y="235" type="line" smooth="yes"/>
      <point x="996" y="106"/>
      <point x="926" y="73"/>
      <point x="825" y="73" type="curve" smooth="yes"/>
      <point x="697" y="73"/>
      <point x="654" y="125"/>
      <point x="654" y="237" type="curve" smooth="yes"/>
      <point x="654" y="300" type="line" smooth="yes"/>
      <point x="654" y="467"/>
      <point x="615" y="546"/>
      <point x="488" y="546" type="curve" smooth="yes"/>
      <point x="365" y="546"/>
      <point x="322" y="474"/>
      <point x="322" y="301" type="curve" smooth="yes"/>
      <point x="322" y="167" type="line" smooth="yes"/>
      <point x="322" y="101"/>
      <point x="312" y="63"/>
      <point x="287" y="63" type="curve" smooth="yes"/>
      <point x="247" y="63"/>
      <point x="238" y="88"/>
      <point x="238" y="178" type="curve" smooth="yes"/>
      <point x="238" y="319" type="line" smooth="yes"/>
      <point x="238" y="422"/>
      <point x="235" y="546"/>
      <point x="140" y="546" type="curve" smooth="yes"/>
      <point x="42" y="546"/>
      <point x="39" y="405"/>
      <point x="39" y="335" type="curve"/>
      <point x="45" y="333"/>
      <point x="48" y="332"/>
      <point x="57" y="332" type="curve" smooth="yes"/>
      <point x="67" y="332"/>
      <point x="71" y="334"/>
      <point x="78" y="336" type="curve"/>
      <point x="80" y="410"/>
      <point x="80" y="463"/>
      <point x="141" y="463" type="curve" smooth="yes"/>
      <point x="187" y="463"/>
      <point x="199" y="424"/>
      <point x="199" y="322" type="curve" smooth="yes"/>
      <point x="199" y="158" type="line" smooth="yes"/>
      <point x="199" y="77"/>
      <point x="204" y="-10"/>
    </contour>
  </outline>
</glyph>
<glyph name="uni1B2F" format="2">
  <advance width="793"/>
  <unicode hex="1B2F"/>
  <note>
uni1B2F
</note>
  <outline>
    <contour>
      <point x="410" y="-10" type="curve" smooth="yes"/>
      <point x="537" y="-10"/>
      <point x="619" y="62"/>
      <point x="619" y="235" type="curve" smooth="yes"/>
      <point x="619" y="273" type="line" smooth="yes"/>
      <point x="619" y="343"/>
      <point x="606" y="405"/>
      <point x="544" y="456" type="curve"/>
      <point x="554" y="460"/>
      <point x="573" y="463"/>
      <point x="583" y="463" type="curve" smooth="yes"/>
      <point x="638" y="463"/>
      <point x="691" y="426"/>
      <point x="691" y="306" type="curve" smooth="yes"/>
      <point x="691" y="0" type="line"/>
      <point x="730" y="0" type="line"/>
      <point x="730" y="310" type="line" smooth="yes"/>
      <point x="730" y="443"/>
      <point x="688" y="546"/>
      <point x="565" y="546" type="curve" smooth="yes"/>
      <point x="498" y="546"/>
      <point x="455" y="508"/>
      <point x="430" y="454" type="curve"/>
      <point x="546" y="454"/>
      <point x="580" y="337"/>
      <point x="580" y="261" type="curve" smooth="yes"/>
      <point x="580" y="235" type="line" smooth="yes"/>
      <point x="580" y="106"/>
      <point x="510" y="73"/>
      <point x="409" y="73" type="curve" smooth="yes"/>
      <point x="281" y="73"/>
      <point x="238" y="125"/>
      <point x="238" y="237" type="curve" smooth="yes"/>
      <point x="238" y="319" type="line" smooth="yes"/>
      <point x="238" y="422"/>
      <point x="235" y="546"/>
      <point x="140" y="546" type="curve" smooth="yes"/>
      <point x="42" y="546"/>
      <point x="39" y="405"/>
      <point x="39" y="335" type="curve"/>
      <point x="45" y="333"/>
      <point x="48" y="332"/>
      <point x="57" y="332" type="curve" smooth="yes"/>
      <point x="67" y="332"/>
      <point x="71" y="334"/>
      <point x="78" y="336" type="curve"/>
      <point x="80" y="410"/>
      <point x="80" y="463"/>
      <point x="141" y="463" type="curve" smooth="yes"/>
      <point x="187" y="463"/>
      <point x="199" y="424"/>
      <point x="199" y="322" type="curve" smooth="yes"/>
      <point x="199" y="227" type="line" smooth="yes"/>
      <point x="199" y="66"/>
      <point x="275" y="-10"/>
    </contour>
  </outline>
</glyph>
<glyph name="uni1B30" format="2">
  <advance width="1092"/>
  <unicode hex="1B30"/>
  <note>
uni1B30
</note>
  <outline>
    <contour>
      <point x="888" y="537" type="curve" smooth="yes"/>
      <point x="865" y="537" type="line"/>
      <point x="865" y="204" type="line" smooth="yes"/>
      <point x="865" y="121"/>
      <point x="836" y="83"/>
      <point x="794" y="83" type="curve" smooth="yes"/>
      <point x="781" y="83" type="line"/>
      <point x="781" y="300" type="line" smooth="yes"/>
      <point x="781" y="467"/>
      <point x="698" y="546"/>
      <point x="551" y="546" type="curve" smooth="yes"/>
      <point x="414" y="546"/>
      <point x="322" y="474"/>
      <point x="322" y="301" type="curve" smooth="yes"/>
      <point x="322" y="83" type="line"/>
      <point x="310" y="83" type="line" smooth="yes"/>
      <point x="268" y="83"/>
      <point x="238" y="121"/>
      <point x="238" y="204" type="curve" smooth="yes"/>
      <point x="238" y="319" type="line" smooth="yes"/>
      <point x="238" y="422"/>
      <point x="235" y="546"/>
      <point x="140" y="546" type="curve" smooth="yes"/>
      <point x="42" y="546"/>
      <point x="39" y="405"/>
      <point x="39" y="335" type="curve"/>
      <point x="45" y="333"/>
      <point x="48" y="332"/>
      <point x="57" y="332" type="curve" smooth="yes"/>
      <point x="67" y="332"/>
      <point x="71" y="334"/>
      <point x="78" y="336" type="curve"/>
      <point x="80" y="410"/>
      <point x="80" y="463"/>
      <point x="141" y="463" type="curve" smooth="yes"/>
      <point x="187" y="463"/>
      <point x="199" y="424"/>
      <point x="199" y="322" type="curve" smooth="yes"/>
      <point x="199" y="227" type="line" smooth="yes"/>
      <point x="199" y="107"/>
      <point x="203" y="0"/>
      <point x="338" y="0" type="curve" smooth="yes"/>
      <point x="361" y="0" type="line"/>
      <point x="361" y="301" type="line" smooth="yes"/>
      <point x="361" y="430"/>
      <point x="441" y="463"/>
      <point x="552" y="463" type="curve" smooth="yes"/>
      <point x="689" y="463"/>
      <point x="742" y="411"/>
      <point x="742" y="299" type="curve" smooth="yes"/>
      <point x="742" y="0" type="line"/>
      <point x="765" y="0" type="line" smooth="yes"/>
      <point x="900" y="0"/>
      <point x="904" y="107"/>
      <point x="904" y="227" type="curve" smooth="yes"/>
      <point x="904" y="454" type="line"/>
      <point x="917" y="454" type="line" smooth="yes"/>
      <point x="963" y="454"/>
      <point x="990" y="408"/>
      <point x="990" y="306" type="curve" smooth="yes"/>
      <point x="990" y="0" type="line"/>
      <point x="1029" y="0" type="line"/>
      <point x="1029" y="310" type="line" smooth="yes"/>
      <point x="1029" y="430"/>
      <point x="1023" y="537"/>
    </contour>
    <contour>
      <point x="523" y="332" type="curve" smooth="yes"/>
      <point x="480" y="332"/>
      <point x="446" y="274"/>
      <point x="437" y="214" type="curve"/>
      <point x="468" y="204" type="line"/>
      <point x="475" y="232"/>
      <point x="491" y="249"/>
      <point x="512" y="249" type="curve" smooth="yes"/>
      <point x="551" y="249"/>
      <point x="568" y="209"/>
      <point x="583" y="108" type="curve" smooth="yes"/>
      <point x="603" y="-25" type="line"/>
      <point x="642" y="-15" type="line"/>
      <point x="616" y="145" type="line" smooth="yes"/>
      <point x="599" y="247"/>
      <point x="580" y="332"/>
    </contour>
  </outline>
</glyph>
<glyph name="uni1B32" format="2">
  <advance width="808"/>
  <unicode hex="1B32"/>
  <note>
uni1B32
</note>
  <outline>
    <contour>
      <point x="604" y="537" type="curve" smooth="yes"/>
      <point x="581" y="537" type="line"/>
      <point x="581" y="232" type="line" smooth="yes"/>
      <point x="581" y="151"/>
      <point x="572" y="73"/>
      <point x="500" y="73" type="curve" smooth="yes"/>
      <point x="443" y="73"/>
      <point x="380" y="248"/>
      <point x="262" y="275" type="curve"/>
      <point x="262" y="319" type="line" smooth="yes"/>
      <point x="262" y="422"/>
      <point x="255" y="546"/>
      <point x="156" y="546" type="curve" smooth="yes"/>
      <point x="42" y="546"/>
      <point x="39" y="405"/>
      <point x="39" y="335" type="curve"/>
      <point x="45" y="333"/>
      <point x="48" y="332"/>
      <point x="57" y="332" type="curve" smooth="yes"/>
      <point x="67" y="332"/>
      <point x="71" y="334"/>
      <point x="78" y="336" type="curve"/>
      <point x="80" y="410"/>
      <point x="87" y="463"/>
      <point x="151" y="463" type="curve" smooth="yes"/>
      <point x="197" y="463"/>
      <point x="223" y="424"/>
      <point x="223" y="322" type="curve" smooth="yes"/>
      <point x="223" y="278" type="line"/>
      <point x="156" y="274"/>
      <point x="68" y="224"/>
      <point x="68" y="92" type="curve" smooth="yes"/>
      <point x="68" y="42"/>
      <point x="98" y="-10"/>
      <point x="153" y="-10" type="curve" smooth="yes"/>
      <point x="241" y="-10"/>
      <point x="262" y="79"/>
      <point x="262" y="182" type="curve" smooth="yes"/>
      <point x="262" y="189" type="line"/>
      <point x="359" y="146"/>
      <point x="395" y="-10"/>
      <point x="501" y="-10" type="curve" smooth="yes"/>
      <point x="597" y="-10"/>
      <point x="620" y="93"/>
      <point x="620" y="208" type="curve" smooth="yes"/>
      <point x="620" y="454" type="line"/>
      <point x="633" y="454" type="line" smooth="yes"/>
      <point x="679" y="454"/>
      <point x="706" y="408"/>
      <point x="706" y="306" type="curve" smooth="yes"/>
      <point x="706" y="0" type="line"/>
      <point x="745" y="0" type="line"/>
      <point x="745" y="310" type="line" smooth="yes"/>
      <point x="745" y="430"/>
      <point x="739" y="537"/>
    </contour>
    <contour>
      <point x="155" y="39" type="curve" smooth="yes"/>
      <point x="130" y="39"/>
      <point x="112" y="56"/>
      <point x="112" y="98" type="curve" smooth="yes"/>
      <point x="112" y="175"/>
      <point x="168" y="194"/>
      <point x="223" y="195" type="curve"/>
      <point x="223" y="178" type="line" smooth="yes"/>
      <point x="223" y="76"/>
      <point x="195" y="39"/>
    </contour>
  </outline>
</glyph>
<glyph name="uni1B33" format="2">
  <advance width="1223"/>
  <unicode hex="1B33"/>
  <note>
uni1B33
</note>
  <outline>
    <contour>
      <point x="409" y="-10" type="curve" smooth="yes"/>
      <point x="543" y="-10"/>
      <point x="619" y="66"/>
      <point x="619" y="227" type="curve" smooth="yes"/>
      <point x="619" y="299" type="line" smooth="yes"/>
      <point x="619" y="411"/>
      <point x="643" y="463"/>
      <point x="746" y="463" type="curve" smooth="yes"/>
      <point x="847" y="463"/>
      <point x="873" y="430"/>
      <point x="873" y="301" type="curve" smooth="yes"/>
      <point x="873" y="162" type="line" smooth="yes"/>
      <point x="873" y="81"/>
      <point x="877" y="-10"/>
      <point x="959" y="-10" type="curve" smooth="yes"/>
      <point x="1021" y="-10"/>
      <point x="1035" y="59"/>
      <point x="1035" y="166" type="curve" smooth="yes"/>
      <point x="1035" y="454" type="line"/>
      <point x="1048" y="454" type="line" smooth="yes"/>
      <point x="1094" y="454"/>
      <point x="1121" y="408"/>
      <point x="1121" y="306" type="curve" smooth="yes"/>
      <point x="1121" y="0" type="line"/>
      <point x="1160" y="0" type="line"/>
      <point x="1160" y="310" type="line" smooth="yes"/>
      <point x="1160" y="430"/>
      <point x="1154" y="537"/>
      <point x="1019" y="537" type="curve" smooth="yes"/>
      <point x="996" y="537" type="line"/>
      <point x="996" y="167" type="line" smooth="yes"/>
      <point x="996" y="101"/>
      <point x="986" y="63"/>
      <point x="960" y="63" type="curve" smooth="yes"/>
      <point x="921" y="63"/>
      <point x="912" y="88"/>
      <point x="912" y="178" type="curve" smooth="yes"/>
      <point x="912" y="301" type="line" smooth="yes"/>
      <point x="912" y="474"/>
      <point x="869" y="546"/>
      <point x="747" y="546" type="curve" smooth="yes"/>
      <point x="619" y="546"/>
      <point x="580" y="467"/>
      <point x="580" y="300" type="curve" smooth="yes"/>
      <point x="580" y="237" type="line" smooth="yes"/>
      <point x="580" y="125"/>
      <point x="537" y="73"/>
      <point x="409" y="73" type="curve" smooth="yes"/>
      <point x="309" y="73"/>
      <point x="238" y="106"/>
      <point x="238" y="235" type="curve" smooth="yes"/>
      <point x="238" y="319" type="line" smooth="yes"/>
      <point x="238" y="422"/>
      <point x="235" y="546"/>
      <point x="140" y="546" type="curve" smooth="yes"/>
      <point x="42" y="546"/>
      <point x="39" y="405"/>
      <point x="39" y="335" type="curve"/>
      <point x="45" y="333"/>
      <point x="48" y="332"/>
      <point x="57" y="332" type="curve" smooth="yes"/>
      <point x="67" y="332"/>
      <point x="71" y="334"/>
      <point x="78" y="336" type="curve"/>
      <point x="80" y="410"/>
      <point x="80" y="463"/>
      <point x="141" y="463" type="curve" smooth="yes"/>
      <point x="187" y="463"/>
      <point x="199" y="424"/>
      <point x="199" y="322" type="curve" smooth="yes"/>
      <point x="199" y="235" type="line" smooth="yes"/>
      <point x="199" y="62"/>
      <point x="281" y="-10"/>
    </contour>
  </outline>
</glyph>
<glyph name="uni1B34" format="2">
  <unicode hex="1B34"/>
  <note>
uni1B34
</note>
  <outline>
    <contour>
      <point x="-228" y="780" type="curve" smooth="yes"/>
      <point x="-193" y="780"/>
      <point x="-166" y="809"/>
      <point x="-166" y="842" type="curve" smooth="yes"/>
      <point x="-166" y="876"/>
      <point x="-193" y="905"/>
      <point x="-228" y="905" type="curve" smooth="yes"/>
      <point x="-262" y="905"/>
      <point x="-290" y="876"/>
      <point x="-290" y="842" type="curve" smooth="yes"/>
      <point x="-290" y="809"/>
      <point x="-262" y="780"/>
    </contour>
    <contour>
      <point x="-344" y="620" type="curve" smooth="yes"/>
      <point x="-310" y="620"/>
      <point x="-282" y="648"/>
      <point x="-282" y="683" type="curve" smooth="yes"/>
      <point x="-282" y="717"/>
      <point x="-310" y="745"/>
      <point x="-344" y="745" type="curve" smooth="yes"/>
      <point x="-378" y="745"/>
      <point x="-406" y="717"/>
      <point x="-406" y="683" type="curve" smooth="yes"/>
      <point x="-406" y="648"/>
      <point x="-378" y="620"/>
    </contour>
    <contour>
      <point x="-111" y="620" type="curve" smooth="yes"/>
      <point x="-77" y="620"/>
      <point x="-49" y="648"/>
      <point x="-49" y="683" type="curve" smooth="yes"/>
      <point x="-49" y="717"/>
      <point x="-77" y="745"/>
      <point x="-111" y="745" type="curve" smooth="yes"/>
      <point x="-145" y="745"/>
      <point x="-173" y="717"/>
      <point x="-173" y="683" type="curve" smooth="yes"/>
      <point x="-173" y="648"/>
      <point x="-145" y="620"/>
    </contour>
  </outline>
</glyph>
<glyph name="uni1B35" format="2">
  <advance width="447"/>
  <unicode hex="1B35"/>
  <note>
uni1B35
</note>
  <outline>
    <contour>
      <point x="213" y="87" type="curve" smooth="yes"/>
      <point x="347" y="87"/>
      <point x="398" y="207"/>
      <point x="398" y="321" type="curve" smooth="yes"/>
      <point x="398" y="443"/>
      <point x="325" y="546"/>
      <point x="189" y="546" type="curve" smooth="yes"/>
      <point x="111" y="546"/>
      <point x="40" y="497"/>
      <point x="0" y="415" type="curve"/>
      <point x="36" y="393" type="line"/>
      <point x="62" y="440"/>
      <point x="119" y="468"/>
      <point x="191" y="468" type="curve" smooth="yes"/>
      <point x="294" y="468"/>
      <point x="350" y="404"/>
      <point x="350" y="318" type="curve" smooth="yes"/>
      <point x="350" y="219"/>
      <point x="300" y="142"/>
      <point x="241" y="142" type="curve" smooth="yes"/>
      <point x="215" y="142"/>
      <point x="196" y="156"/>
      <point x="196" y="184" type="curve" smooth="yes"/>
      <point x="196" y="202"/>
      <point x="204" y="217"/>
      <point x="217" y="230" type="curve"/>
      <point x="184" y="255" type="line"/>
      <point x="146" y="223"/>
      <point x="131" y="184"/>
      <point x="131" y="150" type="curve" smooth="yes"/>
      <point x="131" y="107"/>
      <point x="181" y="87"/>
    </contour>
  </outline>
</glyph>
<glyph name="uni1B36" format="2">
  <unicode hex="1B36"/>
  <note>
uni1B36
</note>
  <outline>
    <contour>
      <point x="-146" y="620" type="line"/>
      <point x="-104" y="673"/>
      <point x="-83" y="727"/>
      <point x="-83" y="782" type="curve" smooth="yes"/>
      <point x="-83" y="903"/>
      <point x="-152" y="972"/>
      <point x="-273" y="972" type="curve" smooth="yes"/>
      <point x="-398" y="972"/>
      <point x="-467" y="905"/>
      <point x="-467" y="782" type="curve" smooth="yes"/>
      <point x="-467" y="726"/>
      <point x="-446" y="672"/>
      <point x="-404" y="620" type="curve"/>
      <point x="-379" y="645" type="line"/>
      <point x="-422" y="706"/>
      <point x="-428" y="729"/>
      <point x="-428" y="778" type="curve" smooth="yes"/>
      <point x="-428" y="854"/>
      <point x="-370" y="898"/>
      <point x="-270" y="898" type="curve" smooth="yes"/>
      <point x="-177" y="898"/>
      <point x="-122" y="856"/>
      <point x="-122" y="778" type="curve" smooth="yes"/>
      <point x="-122" y="729"/>
      <point x="-128" y="707"/>
      <point x="-171" y="645" type="curve"/>
    </contour>
  </outline>
</glyph>
<glyph name="uni1B37" format="2">
  <unicode hex="1B37"/>
  <note>
uni1B37
</note>
  <outline>
    <contour>
      <point x="-195" y="657" type="line"/>
      <point x="-223" y="723"/>
      <point x="-265" y="847"/>
      <point x="-309" y="847" type="curve" smooth="yes"/>
      <point x="-341" y="847"/>
      <point x="-365" y="794"/>
      <point x="-367" y="742" type="curve"/>
      <point x="-341" y="738" type="line"/>
      <point x="-338" y="767"/>
      <point x="-326" y="781"/>
      <point x="-306" y="781" type="curve" smooth="yes"/>
      <point x="-295" y="781"/>
      <point x="-287" y="776"/>
      <point x="-281" y="768" type="curve" smooth="yes"/>
      <point x="-274" y="759"/>
      <point x="-263" y="733"/>
      <point x="-249" y="693" type="curve"/>
      <point x="-226" y="642" type="line"/>
    </contour>
    <contour>
      <point x="-146" y="620" type="line"/>
      <point x="-104" y="673"/>
      <point x="-83" y="727"/>
      <point x="-83" y="782" type="curve" smooth="yes"/>
      <point x="-83" y="903"/>
      <point x="-152" y="972"/>
      <point x="-273" y="972" type="curve" smooth="yes"/>
      <point x="-398" y="972"/>
      <point x="-467" y="905"/>
      <point x="-467" y="782" type="curve" smooth="yes"/>
      <point x="-467" y="726"/>
      <point x="-446" y="672"/>
      <point x="-404" y="620" type="curve"/>
      <point x="-379" y="645" type="line"/>
      <point x="-422" y="706"/>
      <point x="-428" y="729"/>
      <point x="-428" y="778" type="curve" smooth="yes"/>
      <point x="-428" y="854"/>
      <point x="-370" y="898"/>
      <point x="-270" y="898" type="curve" smooth="yes"/>
      <point x="-177" y="898"/>
      <point x="-122" y="856"/>
      <point x="-122" y="778" type="curve" smooth="yes"/>
      <point x="-122" y="729"/>
      <point x="-128" y="707"/>
      <point x="-171" y="645" type="curve"/>
    </contour>
  </outline>
</glyph>
<glyph name="uni1B38" format="2">
  <unicode hex="1B38"/>
  <note>
uni1B38
</note>
  <outline>
    <contour>
      <point x="-182" y="-46" type="line"/>
      <point x="-195" y="-125"/>
      <point x="-226" y="-195"/>
      <point x="-314" y="-292" type="curve" smooth="yes"/>
      <point x="-359" y="-341"/>
      <point x="-381" y="-386"/>
      <point x="-381" y="-426" type="curve" smooth="yes"/>
      <point x="-381" y="-500"/>
      <point x="-339" y="-546"/>
      <point x="-270" y="-546" type="curve" smooth="yes"/>
      <point x="-147" y="-546"/>
      <point x="-63" y="-375"/>
      <point x="-63" y="-109" type="curve" smooth="yes"/>
      <point x="-63" y="15" type="line"/>
      <point x="-103" y="15" type="line"/>
      <point x="-103" y="-109" type="line" smooth="yes"/>
      <point x="-103" y="-175"/>
      <point x="-111" y="-236"/>
      <point x="-127" y="-291" type="curve" smooth="yes"/>
      <point x="-160" y="-401"/>
      <point x="-219" y="-468"/>
      <point x="-280" y="-468" type="curve" smooth="yes"/>
      <point x="-318" y="-468"/>
      <point x="-337" y="-450"/>
      <point x="-337" y="-414" type="curve" smooth="yes"/>
      <point x="-337" y="-386"/>
      <point x="-317" y="-351"/>
      <point x="-278" y="-307" type="curve" smooth="yes"/>
      <point x="-200" y="-220"/>
      <point x="-164" y="-146"/>
      <point x="-154" y="-59" type="curve"/>
    </contour>
  </outline>
</glyph>
<glyph name="uni1B39" format="2">
  <unicode hex="1B39"/>
  <note>
uni1B39
</note>
  <outline>
    <contour>
      <point x="-100" y="14" type="line"/>
      <point x="-132" y="-64"/>
      <point x="-148" y="-123"/>
      <point x="-148" y="-164" type="curve" smooth="yes"/>
      <point x="-148" y="-188"/>
      <point x="-132" y="-206"/>
      <point x="-86" y="-229" type="curve" smooth="yes"/>
      <point x="-40" y="-252"/>
      <point x="-16" y="-280"/>
      <point x="-16" y="-315" type="curve" smooth="yes"/>
      <point x="-16" y="-378"/>
      <point x="-65" y="-454"/>
      <point x="-153" y="-524" type="curve"/>
      <point x="-135" y="-546" type="line"/>
      <point x="-15" y="-451"/>
      <point x="38" y="-366"/>
      <point x="38" y="-278" type="curve" smooth="yes"/>
      <point x="38" y="-238"/>
      <point x="18" y="-203"/>
      <point x="-17" y="-185" type="curve" smooth="yes"/>
      <point x="-52" y="-167"/>
      <point x="-95" y="-149"/>
      <point x="-95" y="-110" type="curve" smooth="yes"/>
      <point x="-95" y="-82"/>
      <point x="-85" y="-43"/>
      <point x="-66" y="5" type="curve"/>
    </contour>
  </outline>
</glyph>
<glyph name="uni1B3A" format="2">
  <unicode hex="1B3A"/>
  <note>
uni1B3A
</note>
  <outline>
    <contour>
      <point x="-103" y="49" type="line"/>
      <point x="-103" y="-300" type="line" smooth="yes"/>
      <point x="-103" y="-363"/>
      <point x="-130" y="-404"/>
      <point x="-175" y="-430" type="curve" smooth="yes"/>
      <point x="-188" y="-438"/>
      <point x="-203" y="-444"/>
      <point x="-219" y="-449" type="curve"/>
      <point x="-250" y="-383" type="line" smooth="yes"/>
      <point x="-285" y="-307"/>
      <point x="-323" y="-219"/>
      <point x="-372" y="-219" type="curve" smooth="yes"/>
      <point x="-419" y="-219"/>
      <point x="-440" y="-297"/>
      <point x="-440" y="-355" type="curve"/>
      <point x="-408" y="-358" type="line"/>
      <point x="-408" y="-332"/>
      <point x="-395" y="-303"/>
      <point x="-365" y="-303" type="curve" smooth="yes"/>
      <point x="-328" y="-303"/>
      <point x="-301" y="-366"/>
      <point x="-270" y="-433" type="curve" smooth="yes"/>
      <point x="-258" y="-459" type="line"/>
      <point x="-287" y="-464"/>
      <point x="-318" y="-466"/>
      <point x="-351" y="-466" type="curve" smooth="yes"/>
      <point x="-445" y="-466"/>
      <point x="-509" y="-444"/>
      <point x="-549" y="-408" type="curve" smooth="yes"/>
      <point x="-589" y="-372"/>
      <point x="-606" y="-322"/>
      <point x="-606" y="-265" type="curve" smooth="yes"/>
      <point x="-606" y="-213"/>
      <point x="-593" y="-156"/>
      <point x="-569" y="-98" type="curve"/>
      <point x="-603" y="-82" type="line"/>
      <point x="-634" y="-146"/>
      <point x="-647" y="-216"/>
      <point x="-647" y="-277" type="curve" smooth="yes"/>
      <point x="-647" y="-353"/>
      <point x="-623" y="-420"/>
      <point x="-574" y="-468" type="curve" smooth="yes"/>
      <point x="-524" y="-517"/>
      <point x="-450" y="-546"/>
      <point x="-350" y="-546" type="curve" smooth="yes"/>
      <point x="-304" y="-546"/>
      <point x="-262" y="-540"/>
      <point x="-225" y="-529" type="curve"/>
      <point x="-195" y="-595" type="line"/>
      <point x="-160" y="-576" type="line"/>
      <point x="-188" y="-515" type="line"/>
      <point x="-171" y="-507"/>
      <point x="-155" y="-497"/>
      <point x="-141" y="-486" type="curve" smooth="yes"/>
      <point x="-91" y="-446"/>
      <point x="-63" y="-384"/>
      <point x="-63" y="-300" type="curve" smooth="yes"/>
      <point x="-63" y="49" type="line"/>
    </contour>
  </outline>
</glyph>
<glyph name="uni1B3F" format="2">
  <advance width="483"/>
  <unicode hex="1B3F"/>
  <note>
uni1B3F
</note>
  <outline>
    <contour>
      <point x="142" y="612" type="line"/>
      <point x="269" y="623"/>
      <point x="350" y="679"/>
      <point x="350" y="763" type="curve" smooth="yes"/>
      <point x="350" y="828"/>
      <point x="313" y="855"/>
      <point x="247" y="868" type="curve" smooth="yes"/>
      <point x="196" y="878"/>
      <point x="182" y="889"/>
      <point x="182" y="914" type="curve" smooth="yes"/>
      <point x="182" y="955"/>
      <point x="250" y="998"/>
      <point x="320" y="1007" type="curve"/>
      <point x="324" y="1056" type="line"/>
      <point x="210" y="1042"/>
      <point x="133" y="978"/>
      <point x="133" y="900" type="curve" smooth="yes"/>
      <point x="133" y="824"/>
      <point x="177" y="796"/>
      <point x="264" y="782" type="curve" smooth="yes"/>
      <point x="288" y="778"/>
      <point x="301" y="767"/>
      <point x="301" y="751" type="curve" smooth="yes"/>
      <point x="301" y="702"/>
      <point x="238" y="666"/>
      <point x="133" y="660" type="curve"/>
    </contour>
    <contour>
      <point x="47" y="332" type="curve" smooth="yes"/>
      <point x="52" y="332"/>
      <point x="59" y="333"/>
      <point x="68" y="336" type="curve"/>
      <point x="70" y="413"/>
      <point x="132" y="463"/>
      <point x="228" y="463" type="curve" smooth="yes"/>
      <point x="333" y="463"/>
      <point x="386" y="396"/>
      <point x="386" y="264" type="curve" smooth="yes"/>
      <point x="386" y="152"/>
      <point x="369" y="48"/>
      <point x="291" y="-143" type="curve" smooth="yes"/>
      <point x="252" y="-238"/>
      <point x="232" y="-321"/>
      <point x="232" y="-392" type="curve" smooth="yes"/>
      <point x="232" y="-434"/>
      <point x="250" y="-519"/>
      <point x="270" y="-546" type="curve"/>
      <point x="303" y="-527" type="line"/>
      <point x="287" y="-480"/>
      <point x="281" y="-443"/>
      <point x="281" y="-397" type="curve" smooth="yes"/>
      <point x="281" y="-321"/>
      <point x="307" y="-223"/>
      <point x="358" y="-103" type="curve" smooth="yes"/>
      <point x="409" y="18"/>
      <point x="435" y="139"/>
      <point x="435" y="260" type="curve" smooth="yes"/>
      <point x="435" y="444"/>
      <point x="360" y="546"/>
      <point x="226" y="546" type="curve" smooth="yes"/>
      <point x="103" y="546"/>
      <point x="29" y="448"/>
      <point x="29" y="335" type="curve"/>
      <point x="35" y="334"/>
      <point x="41" y="332"/>
    </contour>
  </outline>
</glyph>
<glyph name="uni1B42" format="2">
  <unicode hex="1B42"/>
  <note>
uni1B42
</note>
  <outline>
    <contour>
      <point x="-613" y="792" type="line"/>
      <point x="-495" y="931"/>
      <point x="-397" y="991"/>
      <point x="-287" y="991" type="curve" smooth="yes"/>
      <point x="-245" y="991"/>
      <point x="-216" y="982"/>
      <point x="-181" y="953" type="curve"/>
      <point x="-479" y="826" type="line"/>
      <point x="-461" y="795" type="line"/>
      <point x="-73" y="956" type="line"/>
      <point x="-121" y="1027"/>
      <point x="-193" y="1069"/>
      <point x="-266" y="1069" type="curve" smooth="yes"/>
      <point x="-417" y="1069"/>
      <point x="-514" y="1002"/>
      <point x="-635" y="809" type="curve"/>
    </contour>
    <contour>
      <point x="-586" y="646" type="line"/>
      <point x="-662" y="734"/>
      <point x="-722" y="806"/>
      <point x="-765" y="861" type="curve"/>
      <point x="-808" y="816" type="line"/>
      <point x="-763" y="760"/>
      <point x="-696" y="694"/>
      <point x="-607" y="620" type="curve"/>
    </contour>
  </outline>
</glyph>
<glyph name="uni1B44" format="2">
  <advance width="348"/>
  <unicode hex="1B44"/>
  <note>
uni1B44
</note>
  <outline>
    <contour>
      <point x="174" y="-514" type="line"/>
      <point x="115" y="-381"/>
      <point x="104" y="-310"/>
      <point x="104" y="-231" type="curve" smooth="yes"/>
      <point x="104" y="-101"/>
      <point x="119" y="11"/>
      <point x="188" y="215" type="curve" smooth="yes"/>
      <point x="257" y="418"/>
      <point x="274" y="539"/>
      <point x="274" y="693" type="curve" smooth="yes"/>
      <point x="274" y="935"/>
      <point x="157" y="1069"/>
      <point x="-23" y="1069" type="curve" smooth="yes"/>
      <point x="-193" y="1069"/>
      <point x="-307" y="934"/>
      <point x="-313" y="741" type="curve"/>
      <point x="-307" y="740"/>
      <point x="-301" y="738"/>
      <point x="-295" y="738" type="curve" smooth="yes"/>
      <point x="-290" y="738"/>
      <point x="-283" y="739"/>
      <point x="-273" y="742" type="curve"/>
      <point x="-246" y="908"/>
      <point x="-173" y="986"/>
      <point x="-21" y="986" type="curve" smooth="yes"/>
      <point x="123" y="986"/>
      <point x="216" y="878"/>
      <point x="216" y="719" type="curve" smooth="yes"/>
      <point x="216" y="603"/>
      <point x="186" y="463"/>
      <point x="125" y="299" type="curve" smooth="yes"/>
      <point x="64" y="136"/>
      <point x="35" y="-9"/>
      <point x="35" y="-137" type="curve" smooth="yes"/>
      <point x="35" y="-285"/>
      <point x="69" y="-421"/>
      <point x="137" y="-546" type="curve"/>
    </contour>
  </outline>
</glyph>
<glyph name="uni1B45" format="2">
  <advance width="1213"/>
  <unicode hex="1B45"/>
  <note>
uni1B45
</note>
  <outline>
    <contour>
      <point x="1009" y="537" type="curve" smooth="yes"/>
      <point x="986" y="537" type="line"/>
      <point x="986" y="138" type="line" smooth="yes"/>
      <point x="986" y="96"/>
      <point x="972" y="63"/>
      <point x="947" y="63" type="curve" smooth="yes"/>
      <point x="907" y="63"/>
      <point x="894" y="88"/>
      <point x="894" y="178" type="curve" smooth="yes"/>
      <point x="894" y="300" type="line" smooth="yes"/>
      <point x="894" y="467"/>
      <point x="805" y="546"/>
      <point x="658" y="546" type="curve" smooth="yes"/>
      <point x="521" y="546"/>
      <point x="419" y="473"/>
      <point x="419" y="319" type="curve" smooth="yes"/>
      <point x="419" y="298" type="line"/>
      <point x="402" y="299"/>
      <point x="381" y="300"/>
      <point x="360" y="300" type="curve"/>
      <point x="360" y="376" type="line"/>
      <point x="321" y="376" type="line"/>
      <point x="321" y="299" type="line"/>
      <point x="298" y="298"/>
      <point x="272" y="295"/>
      <point x="262" y="294" type="curve"/>
      <point x="262" y="319" type="line" smooth="yes"/>
      <point x="262" y="422"/>
      <point x="255" y="546"/>
      <point x="156" y="546" type="curve" smooth="yes"/>
      <point x="42" y="546"/>
      <point x="39" y="405"/>
      <point x="39" y="335" type="curve"/>
      <point x="45" y="333"/>
      <point x="48" y="332"/>
      <point x="57" y="332" type="curve" smooth="yes"/>
      <point x="67" y="332"/>
      <point x="71" y="334"/>
      <point x="78" y="336" type="curve"/>
      <point x="80" y="410"/>
      <point x="87" y="463"/>
      <point x="151" y="463" type="curve" smooth="yes"/>
      <point x="197" y="463"/>
      <point x="223" y="424"/>
      <point x="223" y="322" type="curve" smooth="yes"/>
      <point x="223" y="286" type="line"/>
      <point x="137" y="261"/>
      <point x="68" y="196"/>
      <point x="68" y="92" type="curve" smooth="yes"/>
      <point x="68" y="42"/>
      <point x="98" y="-10"/>
      <point x="153" y="-10" type="curve" smooth="yes"/>
      <point x="241" y="-10"/>
      <point x="262" y="79"/>
      <point x="262" y="182" type="curve" smooth="yes"/>
      <point x="262" y="212" type="line"/>
      <point x="273" y="213"/>
      <point x="300" y="215"/>
      <point x="321" y="216" type="curve"/>
      <point x="321" y="-7" type="line" smooth="yes"/>
      <point x="321" y="-132"/>
      <point x="376" y="-254"/>
      <point x="516" y="-254" type="curve" smooth="yes"/>
      <point x="615" y="-254"/>
      <point x="695" y="-201"/>
      <point x="711" y="-63" type="curve"/>
      <point x="679" y="-54" type="line"/>
      <point x="667" y="-146"/>
      <point x="587" y="-171"/>
      <point x="516" y="-171" type="curve" smooth="yes"/>
      <point x="404" y="-171"/>
      <point x="360" y="-82"/>
      <point x="360" y="-2" type="curve" smooth="yes"/>
      <point x="360" y="217" type="line"/>
      <point x="386" y="217"/>
      <point x="402" y="217"/>
      <point x="419" y="216" type="curve"/>
      <point x="419" y="202" type="line" smooth="yes"/>
      <point x="419" y="51"/>
      <point x="553" y="-10"/>
      <point x="625" y="-10" type="curve" smooth="yes"/>
      <point x="687" y="-10"/>
      <point x="757" y="19"/>
      <point x="757" y="99" type="curve" smooth="yes"/>
      <point x="757" y="241"/>
      <point x="611" y="280"/>
      <point x="458" y="294" type="curve"/>
      <point x="458" y="433"/>
      <point x="567" y="463"/>
      <point x="660" y="463" type="curve" smooth="yes"/>
      <point x="797" y="463"/>
      <point x="854" y="411"/>
      <point x="854" y="299" type="curve" smooth="yes"/>
      <point x="854" y="182" type="line" smooth="yes"/>
      <point x="854" y="79"/>
      <point x="864" y="-10"/>
      <point x="945" y="-10" type="curve" smooth="yes"/>
      <point x="1008" y="-10"/>
      <point x="1025" y="57"/>
      <point x="1025" y="108" type="curve" smooth="yes"/>
      <point x="1025" y="454" type="line"/>
      <point x="1038" y="454" type="line" smooth="yes"/>
      <point x="1084" y="454"/>
      <point x="1111" y="408"/>
      <point x="1111" y="306" type="curve" smooth="yes"/>
      <point x="1111" y="0" type="line"/>
      <point x="1150" y="0" type="line"/>
      <point x="1150" y="310" type="line" smooth="yes"/>
      <point x="1150" y="430"/>
      <point x="1145" y="537"/>
    </contour>
    <contour>
      <point x="708" y="85" type="curve" smooth="yes"/>
      <point x="708" y="52"/>
      <point x="667" y="39"/>
      <point x="630" y="39" type="curve" smooth="yes"/>
      <point x="583" y="39"/>
      <point x="458" y="68"/>
      <point x="458" y="199" type="curve" smooth="yes"/>
      <point x="458" y="213" type="line"/>
      <point x="579" y="206"/>
      <point x="708" y="165"/>
    </contour>
    <contour>
      <point x="223" y="178" type="line" smooth="yes"/>
      <point x="223" y="76"/>
      <point x="195" y="39"/>
      <point x="155" y="39" type="curve" smooth="yes"/>
      <point x="130" y="39"/>
      <point x="112" y="56"/>
      <point x="112" y="98" type="curve" smooth="yes"/>
      <point x="112" y="155"/>
      <point x="158" y="190"/>
      <point x="223" y="206" type="curve"/>
    </contour>
  </outline>
</glyph>
<glyph name="uni1B46" format="2">
  <advance width="1809"/>
  <unicode hex="1B46"/>
  <note>
uni1B46
</note>
  <outline>
    <contour>
      <point x="153" y="-10" type="curve" smooth="yes"/>
      <point x="241" y="-10"/>
      <point x="262" y="79"/>
      <point x="262" y="182" type="curve" smooth="yes"/>
      <point x="262" y="212" type="line"/>
      <point x="282" y="214"/>
      <point x="299" y="214"/>
      <point x="317" y="214" type="curve"/>
      <point x="317" y="202" type="line" smooth="yes"/>
      <point x="317" y="51"/>
      <point x="450" y="-10"/>
      <point x="522" y="-10" type="curve" smooth="yes"/>
      <point x="584" y="-10"/>
      <point x="655" y="19"/>
      <point x="655" y="99" type="curve" smooth="yes"/>
      <point x="655" y="239"/>
      <point x="502" y="289"/>
      <point x="356" y="297" type="curve"/>
      <point x="356" y="311" type="line" smooth="yes"/>
      <point x="356" y="448"/>
      <point x="465" y="463"/>
      <point x="557" y="463" type="curve" smooth="yes"/>
      <point x="695" y="463"/>
      <point x="767" y="411"/>
      <point x="767" y="299" type="curve" smooth="yes"/>
      <point x="767" y="235" type="line" smooth="yes"/>
      <point x="767" y="62"/>
      <point x="854" y="-10"/>
      <point x="990" y="-10" type="curve" smooth="yes"/>
      <point x="1124" y="-10"/>
      <point x="1205" y="66"/>
      <point x="1205" y="227" type="curve" smooth="yes"/>
      <point x="1205" y="299" type="line" smooth="yes"/>
      <point x="1205" y="411"/>
      <point x="1229" y="463"/>
      <point x="1332" y="463" type="curve" smooth="yes"/>
      <point x="1433" y="463"/>
      <point x="1459" y="430"/>
      <point x="1459" y="301" type="curve" smooth="yes"/>
      <point x="1459" y="158" type="line" smooth="yes"/>
      <point x="1459" y="77"/>
      <point x="1463" y="-10"/>
      <point x="1545" y="-10" type="curve" smooth="yes"/>
      <point x="1607" y="-10"/>
      <point x="1621" y="59"/>
      <point x="1621" y="166" type="curve" smooth="yes"/>
      <point x="1621" y="454" type="line"/>
      <point x="1634" y="454" type="line" smooth="yes"/>
      <point x="1680" y="454"/>
      <point x="1707" y="408"/>
      <point x="1707" y="306" type="curve" smooth="yes"/>
      <point x="1707" y="0" type="line"/>
      <point x="1746" y="0" type="line"/>
      <point x="1746" y="310" type="line" smooth="yes"/>
      <point x="1746" y="430"/>
      <point x="1740" y="537"/>
      <point x="1605" y="537" type="curve" smooth="yes"/>
      <point x="1582" y="537" type="line"/>
      <point x="1582" y="167" type="line" smooth="yes"/>
      <point x="1582" y="101"/>
      <point x="1572" y="63"/>
      <point x="1546" y="63" type="curve" smooth="yes"/>
      <point x="1507" y="63"/>
      <point x="1498" y="88"/>
      <point x="1498" y="178" type="curve" smooth="yes"/>
      <point x="1498" y="301" type="line" smooth="yes"/>
      <point x="1498" y="474"/>
      <point x="1455" y="546"/>
      <point x="1333" y="546" type="curve" smooth="yes"/>
      <point x="1205" y="546"/>
      <point x="1166" y="467"/>
      <point x="1166" y="300" type="curve" smooth="yes"/>
      <point x="1166" y="237" type="line" smooth="yes"/>
      <point x="1166" y="125"/>
      <point x="1118" y="73"/>
      <point x="990" y="73" type="curve" smooth="yes"/>
      <point x="884" y="73"/>
      <point x="806" y="106"/>
      <point x="806" y="235" type="curve" smooth="yes"/>
      <point x="806" y="300" type="line" smooth="yes"/>
      <point x="806" y="467"/>
      <point x="703" y="546"/>
      <point x="556" y="546" type="curve" smooth="yes"/>
      <point x="418" y="546"/>
      <point x="317" y="473"/>
      <point x="317" y="319" type="curve" smooth="yes"/>
      <point x="317" y="298" type="line"/>
      <point x="292" y="298"/>
      <point x="277" y="297"/>
      <point x="262" y="294" type="curve"/>
      <point x="262" y="319" type="line" smooth="yes"/>
      <point x="262" y="422"/>
      <point x="255" y="546"/>
      <point x="156" y="546" type="curve" smooth="yes"/>
      <point x="42" y="546"/>
      <point x="39" y="405"/>
      <point x="39" y="335" type="curve"/>
      <point x="45" y="333"/>
      <point x="48" y="332"/>
      <point x="57" y="332" type="curve" smooth="yes"/>
      <point x="67" y="332"/>
      <point x="71" y="334"/>
      <point x="78" y="336" type="curve"/>
      <point x="80" y="410"/>
      <point x="87" y="463"/>
      <point x="151" y="463" type="curve" smooth="yes"/>
      <point x="197" y="463"/>
      <point x="223" y="424"/>
      <point x="223" y="322" type="curve" smooth="yes"/>
      <point x="223" y="286" type="line"/>
      <point x="137" y="261"/>
      <point x="68" y="196"/>
      <point x="68" y="92" type="curve" smooth="yes"/>
      <point x="68" y="42"/>
      <point x="98" y="-10"/>
    </contour>
    <contour>
      <point x="155" y="39" type="curve" smooth="yes"/>
      <point x="130" y="39"/>
      <point x="112" y="56"/>
      <point x="112" y="98" type="curve" smooth="yes"/>
      <point x="112" y="155"/>
      <point x="158" y="190"/>
      <point x="223" y="206" type="curve"/>
      <point x="223" y="178" type="line" smooth="yes"/>
      <point x="223" y="76"/>
      <point x="195" y="39"/>
    </contour>
    <contour>
      <point x="527" y="39" type="curve" smooth="yes"/>
      <point x="481" y="39"/>
      <point x="356" y="68"/>
      <point x="356" y="199" type="curve" smooth="yes"/>
      <point x="356" y="213" type="line"/>
      <point x="476" y="206"/>
      <point x="606" y="165"/>
      <point x="606" y="85" type="curve" smooth="yes"/>
      <point x="606" y="52"/>
      <point x="564" y="39"/>
    </contour>
  </outline>
</glyph>
<glyph name="uni1B47" format="2">
  <advance width="1204"/>
  <unicode hex="1B47"/>
  <note>
uni1B47
</note>
  <outline>
    <contour>
      <point x="1000" y="537" type="curve" smooth="yes"/>
      <point x="977" y="537" type="line"/>
      <point x="977" y="138" type="line" smooth="yes"/>
      <point x="977" y="96"/>
      <point x="962" y="63"/>
      <point x="937" y="63" type="curve" smooth="yes"/>
      <point x="897" y="63"/>
      <point x="884" y="88"/>
      <point x="884" y="178" type="curve" smooth="yes"/>
      <point x="884" y="301" type="line" smooth="yes"/>
      <point x="884" y="480"/>
      <point x="768" y="546"/>
      <point x="633" y="546" type="curve" smooth="yes"/>
      <point x="487" y="546"/>
      <point x="399" y="468"/>
      <point x="399" y="374" type="curve" smooth="yes"/>
      <point x="399" y="175"/>
      <point x="612" y="292"/>
      <point x="612" y="179" type="curve" smooth="yes"/>
      <point x="612" y="113"/>
      <point x="540" y="73"/>
      <point x="418" y="73" type="curve" smooth="yes"/>
      <point x="390" y="73"/>
      <point x="367" y="75"/>
      <point x="346" y="80" type="curve"/>
      <point x="346" y="376" type="line"/>
      <point x="307" y="376" type="line"/>
      <point x="307" y="94" type="line"/>
      <point x="262" y="117"/>
      <point x="242" y="158"/>
      <point x="242" y="214" type="curve" smooth="yes"/>
      <point x="242" y="318" type="line" smooth="yes"/>
      <point x="242" y="421"/>
      <point x="233" y="546"/>
      <point x="151" y="546" type="curve" smooth="yes"/>
      <point x="40" y="546"/>
      <point x="39" y="405"/>
      <point x="39" y="335" type="curve"/>
      <point x="45" y="333"/>
      <point x="48" y="332"/>
      <point x="57" y="332" type="curve" smooth="yes"/>
      <point x="67" y="332"/>
      <point x="71" y="334"/>
      <point x="78" y="336" type="curve"/>
      <point x="80" y="410"/>
      <point x="82" y="463"/>
      <point x="146" y="463" type="curve" smooth="yes"/>
      <point x="184" y="463"/>
      <point x="203" y="424"/>
      <point x="203" y="322" type="curve" smooth="yes"/>
      <point x="203" y="200" type="line" smooth="yes"/>
      <point x="203" y="88"/>
      <point x="244" y="32"/>
      <point x="307" y="7" type="curve"/>
      <point x="307" y="-7" type="line" smooth="yes"/>
      <point x="307" y="-132"/>
      <point x="361" y="-254"/>
      <point x="501" y="-254" type="curve" smooth="yes"/>
      <point x="600" y="-254"/>
      <point x="681" y="-201"/>
      <point x="697" y="-63" type="curve"/>
      <point x="665" y="-54" type="line"/>
      <point x="652" y="-146"/>
      <point x="572" y="-171"/>
      <point x="501" y="-171" type="curve" smooth="yes"/>
      <point x="391" y="-171"/>
      <point x="347" y="-83"/>
      <point x="346" y="-4" type="curve"/>
      <point x="368" y="-8"/>
      <point x="393" y="-10"/>
      <point x="418" y="-10" type="curve" smooth="yes"/>
      <point x="558" y="-10"/>
      <point x="661" y="66"/>
      <point x="661" y="178" type="curve" smooth="yes"/>
      <point x="661" y="376"/>
      <point x="448" y="276"/>
      <point x="448" y="371" type="curve" smooth="yes"/>
      <point x="448" y="422"/>
      <point x="495" y="463"/>
      <point x="633" y="463" type="curve" smooth="yes"/>
      <point x="751" y="463"/>
      <point x="845" y="430"/>
      <point x="845" y="301" type="curve" smooth="yes"/>
      <point x="845" y="182" type="line" smooth="yes"/>
      <point x="845" y="79"/>
      <point x="854" y="-10"/>
      <point x="936" y="-10" type="curve" smooth="yes"/>
      <point x="998" y="-10"/>
      <point x="1016" y="57"/>
      <point x="1016" y="108" type="curve" smooth="yes"/>
      <point x="1016" y="454" type="line"/>
      <point x="1028" y="454" type="line" smooth="yes"/>
      <point x="1075" y="454"/>
      <point x="1101" y="408"/>
      <point x="1101" y="306" type="curve" smooth="yes"/>
      <point x="1101" y="0" type="line"/>
      <point x="1140" y="0" type="line"/>
      <point x="1140" y="310" type="line" smooth="yes"/>
      <point x="1140" y="430"/>
      <point x="1135" y="537"/>
    </contour>
  </outline>
</glyph>
<glyph name="uni1B48" format="2">
  <advance width="807"/>
  <unicode hex="1B48"/>
  <note>
uni1B48
</note>
  <outline>
    <contour>
      <point x="744" y="0" type="line"/>
      <point x="744" y="310" type="line" smooth="yes"/>
      <point x="744" y="430"/>
      <point x="738" y="537"/>
      <point x="603" y="537" type="curve" smooth="yes"/>
      <point x="580" y="537" type="line"/>
      <point x="580" y="235" type="line" smooth="yes"/>
      <point x="580" y="106"/>
      <point x="510" y="73"/>
      <point x="409" y="73" type="curve" smooth="yes"/>
      <point x="397" y="73"/>
      <point x="386" y="73"/>
      <point x="375" y="74" type="curve"/>
      <point x="375" y="376" type="line"/>
      <point x="336" y="376" type="line"/>
      <point x="336" y="81" type="line"/>
      <point x="264" y="99"/>
      <point x="238" y="150"/>
      <point x="238" y="237" type="curve" smooth="yes"/>
      <point x="238" y="319" type="line" smooth="yes"/>
      <point x="238" y="422"/>
      <point x="235" y="546"/>
      <point x="140" y="546" type="curve" smooth="yes"/>
      <point x="42" y="546"/>
      <point x="39" y="405"/>
      <point x="39" y="335" type="curve"/>
      <point x="45" y="333"/>
      <point x="48" y="332"/>
      <point x="57" y="332" type="curve" smooth="yes"/>
      <point x="67" y="332"/>
      <point x="71" y="334"/>
      <point x="78" y="336" type="curve"/>
      <point x="80" y="410"/>
      <point x="80" y="463"/>
      <point x="141" y="463" type="curve" smooth="yes"/>
      <point x="187" y="463"/>
      <point x="199" y="424"/>
      <point x="199" y="322" type="curve" smooth="yes"/>
      <point x="199" y="227" type="line" smooth="yes"/>
      <point x="199" y="98"/>
      <point x="248" y="24"/>
      <point x="336" y="-1" type="curve"/>
      <point x="336" y="-7" type="line" smooth="yes"/>
      <point x="336" y="-132"/>
      <point x="391" y="-254"/>
      <point x="531" y="-254" type="curve" smooth="yes"/>
      <point x="629" y="-254"/>
      <point x="710" y="-201"/>
      <point x="726" y="-63" type="curve"/>
      <point x="694" y="-54" type="line"/>
      <point x="681" y="-146"/>
      <point x="602" y="-171"/>
      <point x="531" y="-171" type="curve" smooth="yes"/>
      <point x="422" y="-171"/>
      <point x="377" y="-86"/>
      <point x="375" y="-8" type="curve"/>
      <point x="386" y="-9"/>
      <point x="398" y="-10"/>
      <point x="410" y="-10" type="curve" smooth="yes"/>
      <point x="537" y="-10"/>
      <point x="619" y="62"/>
      <point x="619" y="235" type="curve" smooth="yes"/>
      <point x="619" y="454" type="line"/>
      <point x="632" y="454" type="line" smooth="yes"/>
      <point x="678" y="454"/>
      <point x="705" y="408"/>
      <point x="705" y="306" type="curve" smooth="yes"/>
      <point x="705" y="0" type="line"/>
    </contour>
  </outline>
</glyph>
<glyph name="uni1B4B" format="2">
  <advance width="1462"/>
  <unicode hex="1B4B"/>
  <note>
uni1B4B
</note>
  <outline>
    <contour>
      <point x="153" y="-10" type="curve" smooth="yes"/>
      <point x="241" y="-10"/>
      <point x="262" y="79"/>
      <point x="262" y="182" type="curve" smooth="yes"/>
      <point x="262" y="188" type="line"/>
      <point x="350" y="154"/>
      <point x="393" y="-10"/>
      <point x="501" y="-10" type="curve" smooth="yes"/>
      <point x="597" y="-10"/>
      <point x="620" y="93"/>
      <point x="620" y="208" type="curve" smooth="yes"/>
      <point x="620" y="454" type="line"/>
      <point x="633" y="454" type="line" smooth="yes"/>
      <point x="679" y="454"/>
      <point x="706" y="408"/>
      <point x="706" y="306" type="curve" smooth="yes"/>
      <point x="706" y="200" type="line" smooth="yes"/>
      <point x="706" y="41"/>
      <point x="768" y="-10"/>
      <point x="835" y="-10" type="curve" smooth="yes"/>
      <point x="917" y="-10"/>
      <point x="960" y="70"/>
      <point x="982" y="189" type="curve"/>
      <point x="1004" y="70"/>
      <point x="1047" y="-10"/>
      <point x="1129" y="-10" type="curve" smooth="yes"/>
      <point x="1197" y="-10"/>
      <point x="1259" y="41"/>
      <point x="1259" y="200" type="curve" smooth="yes"/>
      <point x="1259" y="454" type="line"/>
      <point x="1282" y="454" type="line" smooth="yes"/>
      <point x="1328" y="454"/>
      <point x="1359" y="408"/>
      <point x="1359" y="306" type="curve" smooth="yes"/>
      <point x="1359" y="0" type="line"/>
      <point x="1398" y="0" type="line"/>
      <point x="1398" y="310" type="line" smooth="yes"/>
      <point x="1398" y="430"/>
      <point x="1388" y="537"/>
      <point x="1253" y="537" type="curve" smooth="yes"/>
      <point x="1220" y="537" type="line"/>
      <point x="1220" y="214" type="line" smooth="yes"/>
      <point x="1220" y="124"/>
      <point x="1194" y="73"/>
      <point x="1126" y="73" type="curve" smooth="yes"/>
      <point x="1009" y="73"/>
      <point x="1004" y="354"/>
      <point x="1003" y="493" type="curve"/>
      <point x="962" y="493" type="line"/>
      <point x="961" y="368"/>
      <point x="958" y="73"/>
      <point x="838" y="73" type="curve" smooth="yes"/>
      <point x="771" y="73"/>
      <point x="745" y="124"/>
      <point x="745" y="214" type="curve" smooth="yes"/>
      <point x="745" y="310" type="line" smooth="yes"/>
      <point x="745" y="430"/>
      <point x="739" y="537"/>
      <point x="604" y="537" type="curve" smooth="yes"/>
      <point x="581" y="537" type="line"/>
      <point x="581" y="232" type="line" smooth="yes"/>
      <point x="581" y="151"/>
      <point x="572" y="73"/>
      <point x="500" y="73" type="curve" smooth="yes"/>
      <point x="443" y="73"/>
      <point x="380" y="248"/>
      <point x="262" y="275" type="curve"/>
      <point x="262" y="319" type="line" smooth="yes"/>
      <point x="262" y="422"/>
      <point x="255" y="546"/>
      <point x="156" y="546" type="curve" smooth="yes"/>
      <point x="42" y="546"/>
      <point x="39" y="405"/>
      <point x="39" y="335" type="curve"/>
      <point x="45" y="333"/>
      <point x="48" y="332"/>
      <point x="57" y="332" type="curve" smooth="yes"/>
      <point x="67" y="332"/>
      <point x="71" y="334"/>
      <point x="78" y="336" type="curve"/>
      <point x="80" y="410"/>
      <point x="87" y="463"/>
      <point x="151" y="463" type="curve" smooth="yes"/>
      <point x="197" y="463"/>
      <point x="223" y="424"/>
      <point x="223" y="322" type="curve" smooth="yes"/>
      <point x="223" y="278" type="line"/>
      <point x="155" y="274"/>
      <point x="68" y="223"/>
      <point x="68" y="92" type="curve" smooth="yes"/>
      <point x="68" y="42"/>
      <point x="98" y="-10"/>
    </contour>
    <contour>
      <point x="155" y="39" type="curve" smooth="yes"/>
      <point x="130" y="39"/>
      <point x="112" y="56"/>
      <point x="112" y="98" type="curve" smooth="yes"/>
      <point x="112" y="175"/>
      <point x="167" y="193"/>
      <point x="223" y="195" type="curve"/>
      <point x="223" y="178" type="line" smooth="yes"/>
      <point x="223" y="76"/>
      <point x="195" y="39"/>
    </contour>
  </outline>
</glyph>
<glyph name="uni1B50" format="2">
  <advance width="472"/>
  <unicode hex="1B50"/>
  <note>
uni1B50
</note>
  <outline>
    <contour>
      <point x="238" y="469" type="curve" smooth="yes"/>
      <point x="132" y="469"/>
      <point x="59" y="376"/>
      <point x="59" y="246" type="curve" smooth="yes"/>
      <point x="59" y="115"/>
      <point x="132" y="27"/>
      <point x="238" y="27" type="curve" smooth="yes"/>
      <point x="343" y="27"/>
      <point x="413" y="113"/>
      <point x="413" y="246" type="curve" smooth="yes"/>
      <point x="413" y="378"/>
      <point x="343" y="469"/>
    </contour>
    <contour>
      <point x="236" y="110" type="curve" smooth="yes"/>
      <point x="158" y="110"/>
      <point x="107" y="162"/>
      <point x="107" y="248" type="curve" smooth="yes"/>
      <point x="107" y="334"/>
      <point x="158" y="386"/>
      <point x="236" y="386" type="curve" smooth="yes"/>
      <point x="314" y="386"/>
      <point x="364" y="334"/>
      <point x="364" y="248" type="curve" smooth="yes"/>
      <point x="364" y="162"/>
      <point x="313" y="110"/>
    </contour>
  </outline>
</glyph>
<glyph name="uni1B51" format="2">
  <advance width="1182"/>
  <unicode hex="1B51"/>
  <note>
uni1B51
</note>
  <outline>
    <contour>
      <point x="338" y="0" type="curve" smooth="yes"/>
      <point x="361" y="0" type="line"/>
      <point x="361" y="301" type="line" smooth="yes"/>
      <point x="361" y="430"/>
      <point x="405" y="463"/>
      <point x="474" y="463" type="curve" smooth="yes"/>
      <point x="532" y="463"/>
      <point x="579" y="411"/>
      <point x="579" y="358" type="curve"/>
      <point x="613" y="358" type="line"/>
      <point x="619" y="428"/>
      <point x="668" y="463"/>
      <point x="718" y="463" type="curve" smooth="yes"/>
      <point x="787" y="463"/>
      <point x="830" y="430"/>
      <point x="830" y="301" type="curve" smooth="yes"/>
      <point x="830" y="0" type="line"/>
      <point x="897" y="0" type="line" smooth="yes"/>
      <point x="1032" y="0"/>
      <point x="1036" y="107"/>
      <point x="1036" y="227" type="curve" smooth="yes"/>
      <point x="1036" y="440" type="line"/>
      <point x="1087" y="442"/>
      <point x="1171" y="480"/>
      <point x="1182" y="625" type="curve"/>
      <point x="1148" y="646" type="line"/>
      <point x="1141" y="549"/>
      <point x="1071" y="523"/>
      <point x="1036" y="523" type="curve"/>
      <point x="1034" y="609"/>
      <point x="995" y="698"/>
      <point x="925" y="698" type="curve" smooth="yes"/>
      <point x="870" y="698"/>
      <point x="842" y="659"/>
      <point x="842" y="608" type="curve" smooth="yes"/>
      <point x="842" y="496"/>
      <point x="932" y="450"/>
      <point x="997" y="441" type="curve"/>
      <point x="997" y="204" type="line" smooth="yes"/>
      <point x="997" y="121"/>
      <point x="968" y="83"/>
      <point x="926" y="83" type="curve" smooth="yes"/>
      <point x="869" y="83" type="line"/>
      <point x="869" y="301" type="line" smooth="yes"/>
      <point x="869" y="474"/>
      <point x="831" y="546"/>
      <point x="718" y="546" type="curve" smooth="yes"/>
      <point x="655" y="546"/>
      <point x="617" y="510"/>
      <point x="596" y="445" type="curve"/>
      <point x="575" y="510"/>
      <point x="536" y="546"/>
      <point x="474" y="546" type="curve" smooth="yes"/>
      <point x="361" y="546"/>
      <point x="322" y="474"/>
      <point x="322" y="301" type="curve" smooth="yes"/>
      <point x="322" y="83" type="line"/>
      <point x="310" y="83" type="line" smooth="yes"/>
      <point x="268" y="83"/>
      <point x="238" y="121"/>
      <point x="238" y="204" type="curve" smooth="yes"/>
      <point x="238" y="319" type="line" smooth="yes"/>
      <point x="238" y="422"/>
      <point x="235" y="546"/>
      <point x="140" y="546" type="curve" smooth="yes"/>
      <point x="42" y="546"/>
      <point x="39" y="405"/>
      <point x="39" y="335" type="curve"/>
      <point x="45" y="333"/>
      <point x="48" y="332"/>
      <point x="57" y="332" type="curve" smooth="yes"/>
      <point x="67" y="332"/>
      <point x="71" y="334"/>
      <point x="78" y="336" type="curve"/>
      <point x="80" y="410"/>
      <point x="80" y="463"/>
      <point x="141" y="463" type="curve" smooth="yes"/>
      <point x="187" y="463"/>
      <point x="199" y="424"/>
      <point x="199" y="322" type="curve" smooth="yes"/>
      <point x="199" y="227" type="line" smooth="yes"/>
      <point x="199" y="107"/>
      <point x="203" y="0"/>
    </contour>
    <contour>
      <point x="997" y="523" type="curve"/>
      <point x="935" y="528"/>
      <point x="886" y="555"/>
      <point x="886" y="609" type="curve" smooth="yes"/>
      <point x="886" y="637"/>
      <point x="901" y="649"/>
      <point x="927" y="649" type="curve" smooth="yes"/>
      <point x="965" y="649"/>
      <point x="995" y="591"/>
    </contour>
  </outline>
</glyph>
<glyph name="uni1B52" format="2">
  <advance width="947"/>
  <unicode hex="1B52"/>
  <note>
uni1B52
</note>
  <outline>
    <contour>
      <point x="771" y="-547" type="line"/>
      <point x="801" y="-466"/>
      <point x="833" y="-364"/>
      <point x="858" y="-248" type="curve"/>
      <point x="866" y="-248"/>
      <point x="875" y="-248"/>
      <point x="883" y="-248" type="curve" smooth="yes"/>
      <point x="926" y="-248"/>
      <point x="981" y="-237"/>
      <point x="1021" y="-211" type="curve"/>
      <point x="1004" y="-176" type="line"/>
      <point x="976" y="-192"/>
      <point x="937" y="-199"/>
      <point x="878" y="-199" type="curve" smooth="yes"/>
      <point x="875" y="-199"/>
      <point x="871" y="-199"/>
      <point x="868" y="-199" type="curve"/>
      <point x="886" y="-98"/>
      <point x="898" y="14"/>
      <point x="898" y="131" type="curve" smooth="yes"/>
      <point x="898" y="354"/>
      <point x="853" y="546"/>
      <point x="718" y="546" type="curve" smooth="yes"/>
      <point x="655" y="546"/>
      <point x="617" y="510"/>
      <point x="596" y="445" type="curve"/>
      <point x="575" y="510"/>
      <point x="536" y="546"/>
      <point x="474" y="546" type="curve" smooth="yes"/>
      <point x="361" y="546"/>
      <point x="322" y="474"/>
      <point x="322" y="301" type="curve" smooth="yes"/>
      <point x="322" y="83" type="line"/>
      <point x="310" y="83" type="line" smooth="yes"/>
      <point x="268" y="83"/>
      <point x="238" y="121"/>
      <point x="238" y="204" type="curve" smooth="yes"/>
      <point x="238" y="319" type="line" smooth="yes"/>
      <point x="238" y="422"/>
      <point x="235" y="546"/>
      <point x="140" y="546" type="curve" smooth="yes"/>
      <point x="42" y="546"/>
      <point x="39" y="405"/>
      <point x="39" y="335" type="curve"/>
      <point x="45" y="333"/>
      <point x="48" y="332"/>
      <point x="57" y="332" type="curve" smooth="yes"/>
      <point x="67" y="332"/>
      <point x="71" y="334"/>
      <point x="78" y="336" type="curve"/>
      <point x="80" y="410"/>
      <point x="80" y="463"/>
      <point x="141" y="463" type="curve" smooth="yes"/>
      <point x="187" y="463"/>
      <point x="199" y="424"/>
      <point x="199" y="322" type="curve" smooth="yes"/>
      <point x="199" y="227" type="line" smooth="yes"/>
      <point x="199" y="107"/>
      <point x="203" y="0"/>
      <point x="338" y="0" type="curve" smooth="yes"/>
      <point x="361" y="0" type="line"/>
      <point x="361" y="301" type="line" smooth="yes"/>
      <point x="361" y="430"/>
      <point x="405" y="463"/>
      <point x="474" y="463" type="curve" smooth="yes"/>
      <point x="532" y="463"/>
      <point x="579" y="411"/>
      <point x="579" y="358" type="curve"/>
      <point x="613" y="358" type="line"/>
      <point x="619" y="428"/>
      <point x="668" y="463"/>
      <point x="718" y="463" type="curve" smooth="yes"/>
      <point x="817" y="463"/>
      <point x="850" y="321"/>
      <point x="850" y="126" type="curve" smooth="yes"/>
      <point x="850" y="17"/>
      <point x="837" y="-93"/>
      <point x="819" y="-194" type="curve"/>
      <point x="667" y="-171"/>
      <point x="530" y="-68"/>
      <point x="363" y="-68" type="curve" smooth="yes"/>
      <point x="249" y="-68"/>
      <point x="186" y="-139"/>
      <point x="186" y="-209" type="curve" smooth="yes"/>
      <point x="186" y="-429"/>
      <point x="731" y="-390"/>
      <point x="737" y="-521" type="curve"/>
      <point x="732" y="-537" type="line"/>
    </contour>
    <contour>
      <point x="757" y="-457" type="curve"/>
      <point x="677" y="-361"/>
      <point x="234" y="-360"/>
      <point x="234" y="-211" type="curve" smooth="yes"/>
      <point x="234" y="-168"/>
      <point x="263" y="-142"/>
      <point x="333" y="-142" type="curve" smooth="yes"/>
      <point x="472" y="-142"/>
      <point x="635" y="-224"/>
      <point x="810" y="-244" type="curve"/>
      <point x="794" y="-322"/>
      <point x="775" y="-394"/>
    </contour>
  </outline>
</glyph>
<glyph name="uni1B54" format="2">
  <advance width="508"/>
  <unicode hex="1B54"/>
  <note>
uni1B54
</note>
  <outline>
    <contour>
      <point x="232" y="342" type="line"/>
      <point x="251" y="373"/>
      <point x="279" y="386"/>
      <point x="325" y="386" type="curve" smooth="yes"/>
      <point x="359" y="386"/>
      <point x="387" y="367"/>
      <point x="387" y="337" type="curve" smooth="yes"/>
      <point x="387" y="308"/>
      <point x="350" y="276"/>
      <point x="303" y="271" type="curve"/>
      <point x="265" y="271" type="line"/>
      <point x="260" y="232" type="line"/>
      <point x="305" y="232" type="line" smooth="yes"/>
      <point x="374" y="232"/>
      <point x="410" y="205"/>
      <point x="410" y="162" type="curve" smooth="yes"/>
      <point x="410" y="104"/>
      <point x="374" y="73"/>
      <point x="283" y="73" type="curve" smooth="yes"/>
      <point x="164" y="73"/>
      <point x="98" y="151"/>
      <point x="98" y="295" type="curve" smooth="yes"/>
      <point x="98" y="379"/>
      <point x="126" y="450"/>
      <point x="171" y="500" type="curve"/>
      <point x="134" y="521" type="line"/>
      <point x="78" y="463"/>
      <point x="49" y="382"/>
      <point x="49" y="292" type="curve" smooth="yes"/>
      <point x="49" y="122"/>
      <point x="150" y="-10"/>
      <point x="283" y="-10" type="curve" smooth="yes"/>
      <point x="389" y="-10"/>
      <point x="459" y="58"/>
      <point x="459" y="157" type="curve" smooth="yes"/>
      <point x="459" y="206"/>
      <point x="430" y="246"/>
      <point x="377" y="262" type="curve"/>
      <point x="416" y="287"/>
      <point x="436" y="324"/>
      <point x="436" y="373" type="curve" smooth="yes"/>
      <point x="436" y="428"/>
      <point x="391" y="469"/>
      <point x="334" y="469" type="curve" smooth="yes"/>
      <point x="283" y="469"/>
      <point x="237" y="423"/>
      <point x="215" y="354" type="curve"/>
    </contour>
  </outline>
</glyph>
<glyph name="uni1B55" format="2">
  <advance width="654"/>
  <unicode hex="1B55"/>
  <note>
uni1B55
</note>
  <outline>
    <contour>
      <point x="605" y="-527" type="line"/>
      <point x="564" y="-428"/>
      <point x="540" y="-332"/>
      <point x="540" y="-250" type="curve" smooth="yes"/>
      <point x="540" y="-180"/>
      <point x="550" y="-90"/>
      <point x="570" y="19" type="curve" smooth="yes"/>
      <point x="590" y="127"/>
      <point x="601" y="213"/>
      <point x="601" y="277" type="curve" smooth="yes"/>
      <point x="601" y="478"/>
      <point x="503" y="591"/>
      <point x="336" y="591" type="curve" smooth="yes"/>
      <point x="189" y="591"/>
      <point x="49" y="480"/>
      <point x="49" y="292" type="curve" smooth="yes"/>
      <point x="49" y="122"/>
      <point x="150" y="-10"/>
      <point x="283" y="-10" type="curve" smooth="yes"/>
      <point x="389" y="-10"/>
      <point x="459" y="58"/>
      <point x="459" y="157" type="curve" smooth="yes"/>
      <point x="459" y="206"/>
      <point x="430" y="246"/>
      <point x="377" y="262" type="curve"/>
      <point x="416" y="287"/>
      <point x="436" y="324"/>
      <point x="436" y="373" type="curve" smooth="yes"/>
      <point x="436" y="428"/>
      <point x="391" y="469"/>
      <point x="334" y="469" type="curve" smooth="yes"/>
      <point x="283" y="469"/>
      <point x="237" y="423"/>
      <point x="215" y="354" type="curve"/>
      <point x="232" y="342" type="line"/>
      <point x="251" y="373"/>
      <point x="279" y="386"/>
      <point x="325" y="386" type="curve" smooth="yes"/>
      <point x="359" y="386"/>
      <point x="387" y="367"/>
      <point x="387" y="337" type="curve" smooth="yes"/>
      <point x="387" y="308"/>
      <point x="350" y="276"/>
      <point x="303" y="271" type="curve"/>
      <point x="265" y="271" type="line"/>
      <point x="260" y="232" type="line"/>
      <point x="305" y="232" type="line" smooth="yes"/>
      <point x="374" y="232"/>
      <point x="410" y="205"/>
      <point x="410" y="162" type="curve" smooth="yes"/>
      <point x="410" y="104"/>
      <point x="374" y="73"/>
      <point x="283" y="73" type="curve" smooth="yes"/>
      <point x="164" y="73"/>
      <point x="98" y="151"/>
      <point x="98" y="295" type="curve" smooth="yes"/>
      <point x="98" y="442"/>
      <point x="203" y="542"/>
      <point x="337" y="542" type="curve" smooth="yes"/>
      <point x="478" y="542"/>
      <point x="552" y="448"/>
      <point x="552" y="283" type="curve" smooth="yes"/>
      <point x="552" y="195"/>
      <point x="541" y="105"/>
      <point x="521" y="13" type="curve" smooth="yes"/>
      <point x="501" y="-79"/>
      <point x="491" y="-165"/>
      <point x="491" y="-246" type="curve" smooth="yes"/>
      <point x="491" y="-353"/>
      <point x="545" y="-511"/>
      <point x="573" y="-546" type="curve"/>
    </contour>
  </outline>
</glyph>
<glyph name="uni1B56" format="2">
  <advance width="718"/>
  <unicode hex="1B56"/>
  <note>
uni1B56
</note>
  <outline>
    <contour>
      <point x="192" y="-12" type="curve"/>
      <point x="192" y="12" type="line" smooth="yes"/>
      <point x="192" y="124"/>
      <point x="264" y="210"/>
      <point x="401" y="210" type="curve" smooth="yes"/>
      <point x="522" y="210"/>
      <point x="611" y="145"/>
      <point x="611" y="21" type="curve" smooth="yes"/>
      <point x="611" y="11"/>
      <point x="611" y="0"/>
      <point x="610" y="-10" type="curve"/>
      <point x="659" y="0" type="line"/>
      <point x="660" y="9"/>
      <point x="660" y="17"/>
      <point x="660" y="25" type="curve" smooth="yes"/>
      <point x="660" y="177"/>
      <point x="559" y="293"/>
      <point x="400" y="293" type="curve" smooth="yes"/>
      <point x="286" y="293"/>
      <point x="188" y="217"/>
      <point x="161" y="90" type="curve"/>
      <point x="124" y="131"/>
      <point x="107" y="195"/>
      <point x="107" y="266" type="curve" smooth="yes"/>
      <point x="107" y="423"/>
      <point x="222" y="513"/>
      <point x="347" y="513" type="curve" smooth="yes"/>
      <point x="365" y="513"/>
      <point x="381" y="511"/>
      <point x="397" y="509" type="curve"/>
      <point x="408" y="556" type="line"/>
      <point x="389" y="560"/>
      <point x="368" y="562"/>
      <point x="346" y="562" type="curve" smooth="yes"/>
      <point x="224" y="562"/>
      <point x="59" y="474"/>
      <point x="59" y="262" type="curve" smooth="yes"/>
      <point x="59" y="143"/>
      <point x="107" y="39"/>
    </contour>
  </outline>
</glyph>
<glyph name="uni1B57" format="2">
  <advance width="1093"/>
  <unicode hex="1B57"/>
  <note>
uni1B57
</note>
  <outline>
    <contour>
      <point x="781" y="-10" type="curve" smooth="yes"/>
      <point x="908" y="-10"/>
      <point x="947" y="69"/>
      <point x="947" y="236" type="curve" smooth="yes"/>
      <point x="947" y="440" type="line"/>
      <point x="998" y="442"/>
      <point x="1082" y="480"/>
      <point x="1093" y="625" type="curve"/>
      <point x="1059" y="646" type="line"/>
      <point x="1052" y="549"/>
      <point x="982" y="523"/>
      <point x="947" y="523" type="curve"/>
      <point x="945" y="609"/>
      <point x="906" y="698"/>
      <point x="836" y="698" type="curve" smooth="yes"/>
      <point x="781" y="698"/>
      <point x="753" y="659"/>
      <point x="753" y="608" type="curve" smooth="yes"/>
      <point x="753" y="496"/>
      <point x="843" y="450"/>
      <point x="908" y="441" type="curve"/>
      <point x="908" y="237" type="line" smooth="yes"/>
      <point x="908" y="125"/>
      <point x="885" y="73"/>
      <point x="781" y="73" type="curve" smooth="yes"/>
      <point x="681" y="73"/>
      <point x="654" y="106"/>
      <point x="654" y="235" type="curve" smooth="yes"/>
      <point x="654" y="300" type="line" smooth="yes"/>
      <point x="654" y="467"/>
      <point x="615" y="546"/>
      <point x="488" y="546" type="curve" smooth="yes"/>
      <point x="365" y="546"/>
      <point x="322" y="474"/>
      <point x="322" y="301" type="curve" smooth="yes"/>
      <point x="322" y="83" type="line"/>
      <point x="310" y="83" type="line" smooth="yes"/>
      <point x="268" y="83"/>
      <point x="238" y="121"/>
      <point x="238" y="204" type="curve" smooth="yes"/>
      <point x="238" y="319" type="line" smooth="yes"/>
      <point x="238" y="422"/>
      <point x="235" y="546"/>
      <point x="140" y="546" type="curve" smooth="yes"/>
      <point x="42" y="546"/>
      <point x="39" y="405"/>
      <point x="39" y="335" type="curve"/>
      <point x="45" y="333"/>
      <point x="48" y="332"/>
      <point x="57" y="332" type="curve" smooth="yes"/>
      <point x="67" y="332"/>
      <point x="71" y="334"/>
      <point x="78" y="336" type="curve"/>
      <point x="80" y="410"/>
      <point x="80" y="463"/>
      <point x="141" y="463" type="curve" smooth="yes"/>
      <point x="187" y="463"/>
      <point x="199" y="424"/>
      <point x="199" y="322" type="curve" smooth="yes"/>
      <point x="199" y="227" type="line" smooth="yes"/>
      <point x="199" y="107"/>
      <point x="203" y="0"/>
      <point x="338" y="0" type="curve" smooth="yes"/>
      <point x="361" y="0" type="line"/>
      <point x="361" y="301" type="line" smooth="yes"/>
      <point x="361" y="430"/>
      <point x="388" y="463"/>
      <point x="488" y="463" type="curve" smooth="yes"/>
      <point x="592" y="463"/>
      <point x="615" y="411"/>
      <point x="615" y="299" type="curve" smooth="yes"/>
      <point x="615" y="235" type="line" smooth="yes"/>
      <point x="615" y="62"/>
      <point x="658" y="-10"/>
    </contour>
    <contour>
      <point x="908" y="523" type="curve"/>
      <point x="846" y="528"/>
      <point x="797" y="555"/>
      <point x="797" y="609" type="curve" smooth="yes"/>
      <point x="797" y="637"/>
      <point x="812" y="649"/>
      <point x="838" y="649" type="curve" smooth="yes"/>
      <point x="876" y="649"/>
      <point x="906" y="591"/>
    </contour>
  </outline>
</glyph>
<glyph name="uni1B59" format="2">
  <advance width="902"/>
  <unicode hex="1B59"/>
  <note>
uni1B59
</note>
  <outline>
    <contour>
      <point x="333" y="-10" type="curve" smooth="yes"/>
      <point x="414" y="-10"/>
      <point x="458" y="70"/>
      <point x="479" y="189" type="curve"/>
      <point x="501" y="70"/>
      <point x="544" y="-10"/>
      <point x="626" y="-10" type="curve" smooth="yes"/>
      <point x="694" y="-10"/>
      <point x="756" y="41"/>
      <point x="756" y="200" type="curve" smooth="yes"/>
      <point x="756" y="440" type="line"/>
      <point x="807" y="442"/>
      <point x="891" y="480"/>
      <point x="902" y="625" type="curve"/>
      <point x="868" y="646" type="line"/>
      <point x="861" y="549"/>
      <point x="792" y="523"/>
      <point x="756" y="523" type="curve"/>
      <point x="754" y="609"/>
      <point x="715" y="698"/>
      <point x="645" y="698" type="curve" smooth="yes"/>
      <point x="590" y="698"/>
      <point x="562" y="659"/>
      <point x="562" y="608" type="curve" smooth="yes"/>
      <point x="562" y="496"/>
      <point x="652" y="450"/>
      <point x="717" y="441" type="curve"/>
      <point x="717" y="214" type="line" smooth="yes"/>
      <point x="717" y="124"/>
      <point x="691" y="73"/>
      <point x="624" y="73" type="curve" smooth="yes"/>
      <point x="506" y="73"/>
      <point x="501" y="354"/>
      <point x="500" y="493" type="curve"/>
      <point x="459" y="493" type="line"/>
      <point x="458" y="368"/>
      <point x="456" y="73"/>
      <point x="335" y="73" type="curve" smooth="yes"/>
      <point x="268" y="73"/>
      <point x="242" y="124"/>
      <point x="242" y="214" type="curve" smooth="yes"/>
      <point x="242" y="318" type="line" smooth="yes"/>
      <point x="242" y="421"/>
      <point x="233" y="546"/>
      <point x="151" y="546" type="curve" smooth="yes"/>
      <point x="40" y="546"/>
      <point x="39" y="405"/>
      <point x="39" y="335" type="curve"/>
      <point x="45" y="333"/>
      <point x="48" y="332"/>
      <point x="57" y="332" type="curve" smooth="yes"/>
      <point x="67" y="332"/>
      <point x="71" y="334"/>
      <point x="78" y="336" type="curve"/>
      <point x="80" y="410"/>
      <point x="82" y="463"/>
      <point x="146" y="463" type="curve" smooth="yes"/>
      <point x="184" y="463"/>
      <point x="203" y="424"/>
      <point x="203" y="322" type="curve" smooth="yes"/>
      <point x="203" y="200" type="line" smooth="yes"/>
      <point x="203" y="41"/>
      <point x="265" y="-10"/>
    </contour>
    <contour>
      <point x="717" y="523" type="curve"/>
      <point x="655" y="528"/>
      <point x="606" y="555"/>
      <point x="606" y="609" type="curve" smooth="yes"/>
      <point x="606" y="637"/>
      <point x="622" y="649"/>
      <point x="647" y="649" type="curve" smooth="yes"/>
      <point x="685" y="649"/>
      <point x="715" y="591"/>
    </contour>
  </outline>
</glyph>
